<svg width="547" height="183" viewBox="0 0 547 183" fill="none" xmlns="http://www.w3.org/2000/svg">
<rect width="547" height="183" fill="white"/>
<path fill-rule="evenodd" clip-rule="evenodd" d="M20 79.5523C20 79.5523 20.8751 77.8026 23.7192 75.6144C24.5301 74.9904 25.0767 74.0909 25.6186 73.1991C26.4767 71.7869 27.323 70.3941 29.1885 70.1454C32.4702 69.7079 36.1893 69.9263 39.2522 75.6144C40.802 78.4926 41.0075 80.7546 41.2007 82.8824C41.3894 84.9596 41.5664 86.9088 42.9714 89.1784C45.8154 93.7727 46.6905 94.6478 51.066 98.3669C54.5664 101.342 62.2965 110.691 65.7239 114.994C74.402 123.672 91.5394 141.159 90.6643 141.684C89.7892 142.209 88.6953 142.487 88.2578 142.559L93.5084 148.685C93.1437 148.321 92.2395 147.81 91.5394 148.685C91.3789 148.886 91.2404 149.123 91.097 149.369C90.4589 150.464 89.7231 151.726 86.5076 150.654C83.3572 149.604 75.423 142.778 71.8496 139.497C68.4951 138.476 61.436 136.434 60.0358 136.434C58.6356 136.434 58.1398 137.455 58.0668 137.965L55.8791 136.434L55.2228 137.965L54.1289 142.559C54.7852 143.653 55.4415 144.966 55.4415 146.79C55.4415 146.965 53.4726 147.009 53.4726 145.696L52.8162 145.185H48.0032C46.9822 144.893 48.08 147.112 50.8473 147.665C53.035 148.103 52.3787 149.341 52.3787 149.341C52.3787 149.341 47.9594 148.19 46.0342 148.54C45.691 148.603 45.282 148.653 44.8166 148.711C43.8382 148.833 42.6106 148.985 41.2212 149.341C39.951 149.667 39.1365 150.02 38.6367 150.236C38.1199 150.46 37.9395 150.538 37.9395 150.29C37.9395 148.829 38.8131 148.507 39.7005 148.18C40.0817 148.04 40.4654 147.898 40.7836 147.665C41.2996 147.287 40.5985 147.326 39.7137 147.376C38.723 147.431 37.502 147.499 37.502 147.009C37.502 145.78 40.1125 145.871 42.3368 145.948C43.8114 146 45.1162 146.045 45.3779 145.696C45.8074 145.123 44.6069 145.048 43.8364 144.999C43.6651 144.989 43.515 144.979 43.4089 144.966C43.8465 144.091 44.9403 143.402 45.3779 143.216C45.6139 143.115 45.467 143.136 45.1526 143.181C44.3944 143.29 42.6621 143.539 42.9714 142.559L46.0342 141.684C46.6176 140.663 47.3031 138.053 45.3779 135.777C44.8314 135.132 43.642 133.978 42.1271 132.509C36.9709 127.509 28.045 118.853 27.8759 114.119C27.7923 111.779 27.6768 110.971 27.6026 110.452C27.4825 109.612 27.4703 109.527 27.8759 104.93C28.3433 99.6334 29.0325 95.779 29.5486 92.8927C29.7573 91.7258 29.9377 90.717 30.0636 89.8352C30.1144 89.4797 30.1834 89.0687 30.2582 88.6226C30.738 85.7632 31.4596 81.4627 29.1885 81.0842C27.915 80.872 27.2592 80.2479 26.7218 79.7365C26.1513 79.1936 25.7142 78.7776 24.813 79.1153C22.9444 79.8155 20 79.5523 20 79.5523ZM48.4097 138.32H50.1599C50.1599 139.195 50.0286 141.164 49.5036 142.039C48.8472 143.133 48.8472 143.133 47.5346 143.133C46.8186 143.133 47.1441 142.743 47.5879 142.21C47.9577 141.766 48.4097 141.224 48.4097 140.727V138.32Z" fill="url(#paint0_linear_4_36)" fill-opacity="0.8"/>
<path d="M219.328 36V25.536H221.232L224.496 31.424L225.568 33.648H225.632C225.589 33.1147 225.536 32.5333 225.472 31.904C225.419 31.2747 225.392 30.6667 225.392 30.08V25.536H227.168V36H225.264L222 30.112L220.928 27.888H220.864C220.907 28.4427 220.955 29.024 221.008 29.632C221.072 30.24 221.104 30.8373 221.104 31.424V36H219.328ZM233.028 36.192C232.303 36.192 231.647 36.032 231.06 35.712C230.473 35.3813 230.009 34.912 229.668 34.304C229.327 33.6853 229.156 32.944 229.156 32.08C229.156 31.2267 229.327 30.4907 229.668 29.872C230.02 29.2533 230.473 28.7787 231.028 28.448C231.583 28.1173 232.164 27.952 232.772 27.952C233.487 27.952 234.084 28.112 234.564 28.432C235.044 28.7413 235.407 29.1787 235.652 29.744C235.897 30.2987 236.02 30.944 236.02 31.68C236.02 32.064 235.993 32.3627 235.94 32.576H230.948C231.033 33.2693 231.284 33.808 231.7 34.192C232.116 34.576 232.639 34.768 233.268 34.768C233.609 34.768 233.924 34.72 234.212 34.624C234.511 34.5173 234.804 34.3733 235.092 34.192L235.716 35.344C235.343 35.5893 234.927 35.792 234.468 35.952C234.009 36.112 233.529 36.192 233.028 36.192ZM230.932 31.328H234.42C234.42 30.72 234.287 30.2453 234.02 29.904C233.753 29.552 233.353 29.376 232.82 29.376C232.361 29.376 231.951 29.5467 231.588 29.888C231.236 30.2187 231.017 30.6987 230.932 31.328ZM240.113 36.192C239.271 36.192 238.657 35.92 238.273 35.376C237.889 34.832 237.697 34.064 237.697 33.072V28.144H239.537V32.832C239.537 33.4827 239.633 33.9413 239.825 34.208C240.017 34.4747 240.327 34.608 240.753 34.608C241.095 34.608 241.393 34.5227 241.649 34.352C241.916 34.1813 242.199 33.904 242.497 33.52V28.144H244.337V36H242.833L242.689 34.848H242.641C242.3 35.2533 241.927 35.5787 241.521 35.824C241.116 36.0693 240.647 36.192 240.113 36.192ZM246.668 36V28.144H248.188L248.316 29.536H248.38C248.657 29.024 248.993 28.6347 249.388 28.368C249.783 28.0907 250.188 27.952 250.604 27.952C250.977 27.952 251.276 28.0053 251.5 28.112L251.18 29.712C251.041 29.6693 250.913 29.6373 250.796 29.616C250.679 29.5947 250.535 29.584 250.364 29.584C250.055 29.584 249.729 29.7067 249.388 29.952C249.047 30.1867 248.753 30.6027 248.508 31.2V36H246.668ZM254.119 36.192C253.436 36.192 252.876 35.9787 252.439 35.552C252.012 35.1253 251.799 34.5707 251.799 33.888C251.799 33.0453 252.167 32.3947 252.903 31.936C253.639 31.4667 254.812 31.1467 256.423 30.976C256.412 30.56 256.3 30.2027 256.087 29.904C255.884 29.5947 255.516 29.44 254.983 29.44C254.599 29.44 254.22 29.5147 253.847 29.664C253.484 29.8133 253.127 29.9947 252.775 30.208L252.103 28.976C252.54 28.6987 253.031 28.4587 253.575 28.256C254.13 28.0533 254.716 27.952 255.335 27.952C256.316 27.952 257.047 28.2453 257.527 28.832C258.018 29.408 258.263 30.2453 258.263 31.344V36H256.743L256.615 35.136H256.551C256.199 35.4347 255.82 35.6853 255.415 35.888C255.02 36.0907 254.588 36.192 254.119 36.192ZM254.711 34.752C255.031 34.752 255.319 34.6773 255.575 34.528C255.842 34.368 256.124 34.1547 256.423 33.888V32.128C255.356 32.2667 254.615 32.4747 254.199 32.752C253.783 33.0187 253.575 33.3493 253.575 33.744C253.575 34.096 253.682 34.352 253.895 34.512C254.108 34.672 254.38 34.752 254.711 34.752ZM262.257 36.192C261.606 36.192 261.142 35.9947 260.865 35.6C260.598 35.2053 260.465 34.6667 260.465 33.984V24.704H262.305V34.08C262.305 34.304 262.348 34.464 262.433 34.56C262.518 34.6453 262.609 34.688 262.705 34.688C262.748 34.688 262.785 34.688 262.817 34.688C262.86 34.6773 262.918 34.6667 262.993 34.656L263.233 36.032C263.126 36.0747 262.988 36.112 262.817 36.144C262.657 36.176 262.47 36.192 262.257 36.192ZM268.012 36V28.144H269.532L269.66 29.2H269.724C270.076 28.8587 270.46 28.5653 270.876 28.32C271.292 28.0747 271.766 27.952 272.3 27.952C273.142 27.952 273.756 28.224 274.14 28.768C274.524 29.312 274.716 30.08 274.716 31.072V36H272.876V31.312C272.876 30.6613 272.78 30.2027 272.588 29.936C272.396 29.6693 272.081 29.536 271.644 29.536C271.302 29.536 270.998 29.6213 270.732 29.792C270.476 29.952 270.182 30.192 269.852 30.512V36H268.012ZM280.325 36.192C279.6 36.192 278.944 36.032 278.357 35.712C277.77 35.3813 277.306 34.912 276.965 34.304C276.624 33.6853 276.453 32.944 276.453 32.08C276.453 31.2267 276.624 30.4907 276.965 29.872C277.317 29.2533 277.77 28.7787 278.325 28.448C278.88 28.1173 279.461 27.952 280.069 27.952C280.784 27.952 281.381 28.112 281.861 28.432C282.341 28.7413 282.704 29.1787 282.949 29.744C283.194 30.2987 283.317 30.944 283.317 31.68C283.317 32.064 283.29 32.3627 283.237 32.576H278.245C278.33 33.2693 278.581 33.808 278.997 34.192C279.413 34.576 279.936 34.768 280.565 34.768C280.906 34.768 281.221 34.72 281.509 34.624C281.808 34.5173 282.101 34.3733 282.389 34.192L283.013 35.344C282.64 35.5893 282.224 35.792 281.765 35.952C281.306 36.112 280.826 36.192 280.325 36.192ZM278.229 31.328H281.717C281.717 30.72 281.584 30.2453 281.317 29.904C281.05 29.552 280.65 29.376 280.117 29.376C279.658 29.376 279.248 29.5467 278.885 29.888C278.533 30.2187 278.314 30.6987 278.229 31.328ZM287.686 36.192C286.779 36.192 286.134 35.9307 285.75 35.408C285.377 34.8747 285.19 34.1867 285.19 33.344V29.6H284.07V28.224L285.286 28.144L285.51 26H287.046V28.144H289.046V29.6H287.046V33.344C287.046 34.2613 287.414 34.72 288.15 34.72C288.289 34.72 288.433 34.704 288.582 34.672C288.731 34.6293 288.859 34.5867 288.966 34.544L289.286 35.904C289.073 35.9787 288.827 36.0427 288.55 36.096C288.283 36.16 287.995 36.192 287.686 36.192ZM291.995 36L289.915 28.144H291.771L292.715 32.224C292.801 32.5973 292.87 32.9707 292.923 33.344C292.987 33.7173 293.057 34.096 293.131 34.48H293.195C293.27 34.096 293.345 33.7173 293.419 33.344C293.505 32.96 293.595 32.5867 293.691 32.224L294.715 28.144H296.395L297.435 32.224C297.531 32.5973 297.622 32.9707 297.707 33.344C297.793 33.7173 297.878 34.096 297.963 34.48H298.027C298.102 34.096 298.171 33.7173 298.235 33.344C298.299 32.9707 298.369 32.5973 298.443 32.224L299.387 28.144H301.115L299.115 36H296.923L296.011 32.336C295.926 31.9627 295.846 31.5947 295.771 31.232C295.697 30.8587 295.617 30.464 295.531 30.048H295.467C295.393 30.464 295.318 30.8587 295.243 31.232C295.169 31.6053 295.089 31.9787 295.003 32.352L294.107 36H291.995ZM305.79 36.192C305.14 36.192 304.532 36.032 303.966 35.712C303.401 35.3813 302.942 34.912 302.59 34.304C302.238 33.6853 302.062 32.944 302.062 32.08C302.062 31.2053 302.238 30.464 302.59 29.856C302.942 29.2373 303.401 28.768 303.966 28.448C304.532 28.1173 305.14 27.952 305.79 27.952C306.452 27.952 307.065 28.1173 307.63 28.448C308.196 28.768 308.654 29.2373 309.006 29.856C309.358 30.464 309.534 31.2053 309.534 32.08C309.534 32.944 309.358 33.6853 309.006 34.304C308.654 34.912 308.196 35.3813 307.63 35.712C307.065 36.032 306.452 36.192 305.79 36.192ZM305.79 34.688C306.366 34.688 306.82 34.448 307.15 33.968C307.481 33.488 307.646 32.8587 307.646 32.08C307.646 31.2907 307.481 30.656 307.15 30.176C306.82 29.696 306.366 29.456 305.79 29.456C305.214 29.456 304.761 29.696 304.43 30.176C304.11 30.656 303.95 31.2907 303.95 32.08C303.95 32.8587 304.11 33.488 304.43 33.968C304.761 34.448 305.214 34.688 305.79 34.688ZM311.356 36V28.144H312.876L313.004 29.536H313.068C313.345 29.024 313.681 28.6347 314.076 28.368C314.47 28.0907 314.876 27.952 315.292 27.952C315.665 27.952 315.964 28.0053 316.188 28.112L315.868 29.712C315.729 29.6693 315.601 29.6373 315.484 29.616C315.366 29.5947 315.222 29.584 315.052 29.584C314.742 29.584 314.417 29.7067 314.076 29.952C313.734 30.1867 313.441 30.6027 313.196 31.2V36H311.356ZM317.324 36V24.704H319.132V31.76H319.18L322.092 28.144H324.108L321.42 31.344L324.38 36H322.38L320.364 32.592L319.132 34V36H317.324Z" fill="#232A3D"/>
<path d="M35.328 35V24.536H37.184V35H35.328ZM39.6836 35V27.144H41.2036L41.3316 28.216H41.3956C41.7263 27.864 42.0836 27.5653 42.4676 27.32C42.8623 27.0747 43.305 26.952 43.7956 26.952C44.3716 26.952 44.8303 27.08 45.1716 27.336C45.5236 27.5813 45.7903 27.9227 45.9716 28.36C46.345 27.9547 46.7343 27.6187 47.1396 27.352C47.5556 27.0853 48.009 26.952 48.4996 26.952C49.3316 26.952 49.945 27.224 50.3396 27.768C50.7343 28.312 50.9316 29.08 50.9316 30.072V35H49.0756V30.312C49.0756 29.6613 48.9743 29.2027 48.7716 28.936C48.5796 28.6693 48.281 28.536 47.8756 28.536C47.385 28.536 46.8356 28.8613 46.2276 29.512V35H44.3876V30.312C44.3876 29.6613 44.2863 29.2027 44.0836 28.936C43.8916 28.6693 43.5876 28.536 43.1716 28.536C42.681 28.536 42.1316 28.8613 41.5236 29.512V35H39.6836ZM55.072 35.192C54.3893 35.192 53.8293 34.9787 53.392 34.552C52.9653 34.1253 52.752 33.5707 52.752 32.888C52.752 32.0453 53.12 31.3947 53.856 30.936C54.592 30.4667 55.7653 30.1467 57.376 29.976C57.3653 29.56 57.2533 29.2027 57.04 28.904C56.8373 28.5947 56.4693 28.44 55.936 28.44C55.552 28.44 55.1733 28.5147 54.8 28.664C54.4373 28.8133 54.08 28.9947 53.728 29.208L53.056 27.976C53.4933 27.6987 53.984 27.4587 54.528 27.256C55.0827 27.0533 55.6693 26.952 56.288 26.952C57.2693 26.952 58 27.2453 58.48 27.832C58.9707 28.408 59.216 29.2453 59.216 30.344V35H57.696L57.568 34.136H57.504C57.152 34.4347 56.7733 34.6853 56.368 34.888C55.9733 35.0907 55.5413 35.192 55.072 35.192ZM55.664 33.752C55.984 33.752 56.272 33.6773 56.528 33.528C56.7947 33.368 57.0773 33.1547 57.376 32.888V31.128C56.3093 31.2667 55.568 31.4747 55.152 31.752C54.736 32.0187 54.528 32.3493 54.528 32.744C54.528 33.096 54.6347 33.352 54.848 33.512C55.0613 33.672 55.3333 33.752 55.664 33.752ZM64.154 38.472C63.5353 38.472 62.9753 38.3973 62.474 38.248C61.9833 38.0987 61.594 37.8693 61.306 37.56C61.0287 37.2613 60.89 36.8827 60.89 36.424C60.89 35.7733 61.2633 35.2133 62.01 34.744V34.68C61.8073 34.552 61.6367 34.3813 61.498 34.168C61.37 33.9547 61.306 33.688 61.306 33.368C61.306 33.0587 61.3913 32.7813 61.562 32.536C61.7433 32.28 61.946 32.072 62.17 31.912V31.848C61.9033 31.6453 61.6633 31.3627 61.45 31C61.2473 30.6373 61.146 30.2267 61.146 29.768C61.146 29.16 61.29 28.648 61.578 28.232C61.866 27.816 62.2447 27.5013 62.714 27.288C63.194 27.064 63.706 26.952 64.25 26.952C64.4633 26.952 64.666 26.9733 64.858 27.016C65.0607 27.048 65.242 27.0907 65.402 27.144H68.218V28.504H66.778C66.906 28.6533 67.0127 28.8453 67.098 29.08C67.1833 29.304 67.226 29.5547 67.226 29.832C67.226 30.408 67.0927 30.8987 66.826 31.304C66.5593 31.6987 66.202 31.9973 65.754 32.2C65.306 32.4027 64.8047 32.504 64.25 32.504C64.0793 32.504 63.9033 32.488 63.722 32.456C63.5407 32.424 63.3593 32.3707 63.178 32.296C63.0607 32.4027 62.9647 32.5093 62.89 32.616C62.826 32.7227 62.794 32.8667 62.794 33.048C62.794 33.272 62.8847 33.448 63.066 33.576C63.258 33.704 63.594 33.768 64.074 33.768H65.466C66.4153 33.768 67.13 33.9227 67.61 34.232C68.1007 34.5307 68.346 35.0213 68.346 35.704C68.346 36.216 68.1753 36.68 67.834 37.096C67.4927 37.5227 67.0073 37.8587 66.378 38.104C65.7487 38.3493 65.0073 38.472 64.154 38.472ZM64.25 31.352C64.6233 31.352 64.9433 31.2133 65.21 30.936C65.4767 30.6587 65.61 30.2693 65.61 29.768C65.61 29.2773 65.4767 28.8987 65.21 28.632C64.954 28.3547 64.634 28.216 64.25 28.216C63.866 28.216 63.5407 28.3493 63.274 28.616C63.0073 28.8827 62.874 29.2667 62.874 29.768C62.874 30.2693 63.0073 30.6587 63.274 30.936C63.5407 31.2133 63.866 31.352 64.25 31.352ZM64.442 37.272C65.0713 37.272 65.5833 37.144 65.978 36.888C66.3727 36.632 66.57 36.3387 66.57 36.008C66.57 35.6987 66.4473 35.4907 66.202 35.384C65.9673 35.2773 65.626 35.224 65.178 35.224H64.106C63.6793 35.224 63.322 35.1867 63.034 35.112C62.6287 35.4213 62.426 35.768 62.426 36.152C62.426 36.504 62.6073 36.776 62.97 36.968C63.3327 37.1707 63.8233 37.272 64.442 37.272ZM72.8405 35.192C72.1152 35.192 71.4592 35.032 70.8725 34.712C70.2858 34.3813 69.8218 33.912 69.4805 33.304C69.1392 32.6853 68.9685 31.944 68.9685 31.08C68.9685 30.2267 69.1392 29.4907 69.4805 28.872C69.8325 28.2533 70.2858 27.7787 70.8405 27.448C71.3952 27.1173 71.9765 26.952 72.5845 26.952C73.2992 26.952 73.8965 27.112 74.3765 27.432C74.8565 27.7413 75.2192 28.1787 75.4645 28.744C75.7098 29.2987 75.8325 29.944 75.8325 30.68C75.8325 31.064 75.8058 31.3627 75.7525 31.576H70.7605C70.8458 32.2693 71.0965 32.808 71.5125 33.192C71.9285 33.576 72.4512 33.768 73.0805 33.768C73.4218 33.768 73.7365 33.72 74.0245 33.624C74.3232 33.5173 74.6165 33.3733 74.9045 33.192L75.5285 34.344C75.1552 34.5893 74.7392 34.792 74.2805 34.952C73.8218 35.112 73.3418 35.192 72.8405 35.192ZM70.7445 30.328H74.2325C74.2325 29.72 74.0992 29.2453 73.8325 28.904C73.5658 28.552 73.1658 28.376 72.6325 28.376C72.1738 28.376 71.7632 28.5467 71.4005 28.888C71.0485 29.2187 70.8298 29.6987 70.7445 30.328Z" fill="#232A3D"/>
<path d="M452.997 126V102.456H460.521C462.153 102.456 463.593 102.636 464.841 102.996C466.113 103.356 467.109 103.968 467.829 104.832C468.573 105.672 468.945 106.812 468.945 108.252C468.945 109.356 468.657 110.4 468.081 111.384C467.505 112.344 466.701 113.004 465.669 113.364V113.508C466.965 113.796 468.033 114.408 468.873 115.344C469.737 116.256 470.169 117.504 470.169 119.088C470.169 120.648 469.773 121.944 468.981 122.976C468.213 124.008 467.145 124.776 465.777 125.28C464.409 125.76 462.861 126 461.133 126H452.997ZM457.173 112.176H460.161C461.793 112.176 462.981 111.876 463.725 111.276C464.469 110.676 464.841 109.872 464.841 108.864C464.841 107.712 464.457 106.896 463.689 106.416C462.921 105.936 461.769 105.696 460.233 105.696H457.173V112.176ZM457.173 122.76H460.701C462.429 122.76 463.761 122.448 464.697 121.824C465.633 121.176 466.101 120.192 466.101 118.872C466.101 117.624 465.645 116.724 464.733 116.172C463.821 115.596 462.477 115.308 460.701 115.308H457.173V122.76ZM474.477 126V102.456H478.653V126H474.477ZM484.637 126V102.456H492.593C494.225 102.456 495.689 102.672 496.985 103.104C498.305 103.536 499.337 104.268 500.081 105.3C500.849 106.308 501.233 107.688 501.233 109.44C501.233 111.24 500.801 112.692 499.937 113.796C499.097 114.9 497.969 115.692 496.553 116.172L502.169 126H497.489L492.413 116.784H488.813V126H484.637ZM488.813 113.472H492.161C493.769 113.472 494.993 113.136 495.833 112.464C496.697 111.768 497.129 110.76 497.129 109.44C497.129 108.096 496.697 107.16 495.833 106.632C494.993 106.08 493.769 105.804 492.161 105.804H488.813V113.472ZM505.942 126V102.456H512.242C515.842 102.456 518.65 103.428 520.666 105.372C522.682 107.316 523.69 110.232 523.69 114.12C523.69 118.032 522.694 120.996 520.702 123.012C518.71 125.004 515.962 126 512.458 126H505.942ZM510.118 122.616H511.954C514.33 122.616 516.166 121.932 517.462 120.564C518.758 119.172 519.406 117.024 519.406 114.12C519.406 111.24 518.758 109.14 517.462 107.82C516.166 106.5 514.33 105.84 511.954 105.84H510.118V122.616Z" fill="#9B51E0"/>
<path d="M210.5 89.5L251.5 111.5" stroke="#1F69FF"/>
<path d="M210.5 130.5L251.5 152.5" stroke="#1F69FF"/>
<path d="M210.5 130.5L251.5 111.5" stroke="#1F69FF"/>
<path d="M210.5 89.5L251.5 70.5" stroke="#1F69FF"/>
<path d="M210.5 89L251.5 152.5" stroke="#1F69FF"/>
<path d="M210.5 130.5L251 70.5" stroke="#1F69FF"/>
<path d="M251.5 70.5L292.5 111.5" stroke="#1F69FF"/>
<path d="M251.5 111.5L292.5 152.5" stroke="#1F69FF"/>
<path d="M251.5 152.5H292.5" stroke="#1F69FF"/>
<path d="M251.5 152.5L292.5 111.5" stroke="#1F69FF"/>
<path d="M251.5 152.5L292.5 70.5" stroke="#1F69FF"/>
<path d="M251.5 111.5H292.5" stroke="#1F69FF"/>
<path d="M251.5 111.5L292.5 70.5" stroke="#1F69FF"/>
<path d="M251.5 70.5H292.188" stroke="#1F69FF"/>
<path d="M251.5 70.5L292.5 152.5" stroke="#1F69FF"/>
<path d="M293 70L334 111" stroke="#1F69FF"/>
<path d="M293 111H334" stroke="#1F69FF"/>
<path d="M293 152L334 110" stroke="#1F69FF"/>
<circle cx="210.5" cy="89.5" r="12.5" fill="white"/>
<circle cx="210.5" cy="89.5" r="12.5" fill="url(#paint1_linear_4_36)"/>
<circle cx="210.5" cy="130.5" r="12.5" fill="white"/>
<circle cx="210.5" cy="130.5" r="12.5" fill="url(#paint2_linear_4_36)"/>
<circle cx="251.5" cy="70.5" r="12.5" fill="white"/>
<circle cx="251.5" cy="70.5" r="12.5" fill="url(#paint3_linear_4_36)"/>
<circle cx="292.5" cy="70.5" r="12.5" fill="white"/>
<circle cx="292.5" cy="70.5" r="12.5" fill="url(#paint4_linear_4_36)"/>
<circle cx="251.5" cy="111.5" r="12.5" fill="white"/>
<circle cx="251.5" cy="111.5" r="12.5" fill="url(#paint5_linear_4_36)"/>
<circle cx="292.5" cy="111.5" r="12.5" fill="white"/>
<circle cx="292.5" cy="111.5" r="12.5" fill="url(#paint6_linear_4_36)"/>
<circle cx="251.5" cy="152.5" r="12.5" fill="white"/>
<circle cx="251.5" cy="152.5" r="12.5" fill="url(#paint7_linear_4_36)"/>
<circle cx="292.5" cy="152.5" r="12.5" fill="white"/>
<circle cx="292.5" cy="152.5" r="12.5" fill="url(#paint8_linear_4_36)"/>
<circle cx="333.5" cy="111.5" r="12.5" fill="white"/>
<circle cx="333.5" cy="111.5" r="12.5" fill="url(#paint9_linear_4_36)"/>
<path d="M178.216 115.707C178.606 115.317 178.606 114.683 178.216 114.293L171.852 107.929C171.461 107.538 170.828 107.538 170.437 107.929C170.047 108.319 170.047 108.953 170.437 109.343L176.094 115L170.437 120.657C170.047 121.047 170.047 121.681 170.437 122.071C170.828 122.462 171.461 122.462 171.852 122.071L178.216 115.707ZM113.009 116H177.509V114H113.009V116Z" fill="url(#paint10_linear_4_36)"/>
<path d="M430.716 115.707C431.106 115.317 431.106 114.683 430.716 114.293L424.352 107.929C423.961 107.538 423.328 107.538 422.937 107.929C422.547 108.319 422.547 108.953 422.937 109.343L428.594 115L422.937 120.657C422.547 121.047 422.547 121.681 422.937 122.071C423.328 122.462 423.961 122.462 424.352 122.071L430.716 115.707ZM365.509 116H430.009V114H365.509V116Z" fill="url(#paint11_linear_4_36)"/>
<defs>
<linearGradient id="paint0_linear_4_36" x1="68.5" y1="87" x2="56.2543" y2="151.061" gradientUnits="userSpaceOnUse">
<stop stop-color="#232A3D"/>
<stop offset="1" stop-color="#232A3D" stop-opacity="0.45"/>
</linearGradient>
<linearGradient id="paint1_linear_4_36" x1="210.5" y1="77" x2="211" y2="110.5" gradientUnits="userSpaceOnUse">
<stop stop-color="#1F69FF"/>
<stop offset="1" stop-color="#1F69FF" stop-opacity="0"/>
</linearGradient>
<linearGradient id="paint2_linear_4_36" x1="210.5" y1="118" x2="211" y2="151.5" gradientUnits="userSpaceOnUse">
<stop stop-color="#1F69FF"/>
<stop offset="1" stop-color="#1F69FF" stop-opacity="0"/>
</linearGradient>
<linearGradient id="paint3_linear_4_36" x1="251.5" y1="58" x2="252" y2="91.5" gradientUnits="userSpaceOnUse">
<stop stop-color="#1F69FF"/>
<stop offset="1" stop-color="#1F69FF" stop-opacity="0"/>
</linearGradient>
<linearGradient id="paint4_linear_4_36" x1="292.5" y1="58" x2="293" y2="91.5" gradientUnits="userSpaceOnUse">
<stop stop-color="#1F69FF"/>
<stop offset="1" stop-color="#1F69FF" stop-opacity="0"/>
</linearGradient>
<linearGradient id="paint5_linear_4_36" x1="251.5" y1="99" x2="252" y2="132.5" gradientUnits="userSpaceOnUse">
<stop stop-color="#1F69FF"/>
<stop offset="1" stop-color="#1F69FF" stop-opacity="0"/>
</linearGradient>
<linearGradient id="paint6_linear_4_36" x1="292.5" y1="99" x2="293" y2="132.5" gradientUnits="userSpaceOnUse">
<stop stop-color="#1F69FF"/>
<stop offset="1" stop-color="#1F69FF" stop-opacity="0"/>
</linearGradient>
<linearGradient id="paint7_linear_4_36" x1="251.5" y1="140" x2="252" y2="173.5" gradientUnits="userSpaceOnUse">
<stop stop-color="#1F69FF"/>
<stop offset="1" stop-color="#1F69FF" stop-opacity="0"/>
</linearGradient>
<linearGradient id="paint8_linear_4_36" x1="292.5" y1="140" x2="293" y2="173.5" gradientUnits="userSpaceOnUse">
<stop stop-color="#1F69FF"/>
<stop offset="1" stop-color="#1F69FF" stop-opacity="0"/>
</linearGradient>
<linearGradient id="paint9_linear_4_36" x1="333.5" y1="99" x2="334" y2="133.5" gradientUnits="userSpaceOnUse">
<stop stop-color="#9B51E0"/>
<stop offset="1" stop-color="#9B51E0" stop-opacity="0"/>
</linearGradient>
<linearGradient id="paint10_linear_4_36" x1="145.259" y1="115" x2="116.509" y2="115" gradientUnits="userSpaceOnUse">
<stop stop-color="#209766"/>
<stop offset="1" stop-color="#209766" stop-opacity="0"/>
</linearGradient>
<linearGradient id="paint11_linear_4_36" x1="397.759" y1="115" x2="369.009" y2="115" gradientUnits="userSpaceOnUse">
<stop stop-color="#209766"/>
<stop offset="1" stop-color="#209766" stop-opacity="0"/>
</linearGradient>
</defs>
</svg>
