<svg width="442" height="254" viewBox="0 0 442 254" fill="none" xmlns="http://www.w3.org/2000/svg">
<rect width="442" height="254" fill="white"/>
<path d="M23.232 224V213.568H25.584V224H23.232ZM27.8525 224V216.064H29.7725L29.9325 217.072H29.9965C30.3378 216.752 30.7112 216.475 31.1165 216.24C31.5325 215.995 32.0072 215.872 32.5405 215.872C33.4045 215.872 34.0285 216.16 34.4125 216.736C34.8072 217.301 35.0045 218.08 35.0045 219.072V224H32.6525V219.376C32.6525 218.8 32.5725 218.405 32.4125 218.192C32.2632 217.979 32.0178 217.872 31.6765 217.872C31.3778 217.872 31.1218 217.941 30.9085 218.08C30.6952 218.208 30.4605 218.395 30.2045 218.64V224H27.8525ZM37.0088 226.944V216.064H38.9288L39.0888 216.848H39.1528C39.4621 216.571 39.8088 216.341 40.1927 216.16C40.5874 215.968 40.9928 215.872 41.4088 215.872C42.3688 215.872 43.1261 216.24 43.6808 216.976C44.2354 217.701 44.5128 218.677 44.5128 219.904C44.5128 220.811 44.3528 221.584 44.0328 222.224C43.7128 222.864 43.2968 223.355 42.7848 223.696C42.2834 224.027 41.7448 224.192 41.1688 224.192C40.8274 224.192 40.4968 224.123 40.1768 223.984C39.8568 223.835 39.5581 223.627 39.2808 223.36L39.3608 224.624V226.944H37.0088ZM40.6248 222.272C41.0301 222.272 41.3768 222.085 41.6648 221.712C41.9528 221.339 42.0968 220.747 42.0968 219.936C42.0968 218.507 41.6381 217.792 40.7208 217.792C40.2621 217.792 39.8088 218.032 39.3608 218.512V221.76C39.5741 221.952 39.7874 222.085 40.0008 222.16C40.2141 222.235 40.4221 222.272 40.6248 222.272ZM48.5646 224.192C47.7006 224.192 47.0713 223.909 46.6766 223.344C46.2926 222.768 46.1006 221.984 46.1006 220.992V216.064H48.4526V220.688C48.4526 221.253 48.5326 221.648 48.6926 221.872C48.8526 222.085 49.1033 222.192 49.4446 222.192C49.7433 222.192 49.994 222.123 50.1966 221.984C50.3993 221.845 50.618 221.621 50.8526 221.312V216.064H53.2046V224H51.2846L51.1086 222.896H51.0606C50.73 223.291 50.3673 223.605 49.9726 223.84C49.578 224.075 49.1086 224.192 48.5646 224.192ZM58.3304 224.192C57.349 224.192 56.645 223.909 56.2184 223.344C55.8024 222.779 55.5944 222.037 55.5944 221.12V217.904H54.5064V216.16L55.7224 216.064L55.9944 213.952H57.9464V216.064H59.8504V217.904H57.9464V221.088C57.9464 221.536 58.037 221.861 58.2184 222.064C58.4104 222.256 58.661 222.352 58.9704 222.352C59.0984 222.352 59.2264 222.336 59.3544 222.304C59.493 222.272 59.6157 222.235 59.7224 222.192L60.0904 223.904C59.8877 223.968 59.637 224.032 59.3384 224.096C59.0504 224.16 58.7144 224.192 58.3304 224.192ZM64.7945 224V213.568H67.1465V222.016H71.2745V224H64.7945ZM74.8838 224.192C74.1584 224.192 73.5824 223.963 73.1558 223.504C72.7291 223.035 72.5158 222.464 72.5158 221.792C72.5158 220.96 72.8678 220.309 73.5718 219.84C74.2758 219.371 75.4118 219.056 76.9798 218.896C76.9584 218.544 76.8518 218.267 76.6598 218.064C76.4784 217.851 76.1691 217.744 75.7318 217.744C75.4011 217.744 75.0651 217.808 74.7238 217.936C74.3824 218.064 74.0198 218.24 73.6358 218.464L72.7878 216.912C73.2891 216.603 73.8224 216.352 74.3878 216.16C74.9638 215.968 75.5611 215.872 76.1798 215.872C77.1931 215.872 77.9718 216.165 78.5158 216.752C79.0598 217.339 79.3318 218.24 79.3318 219.456V224H77.4118L77.2518 223.184H77.1878C76.8571 223.483 76.4998 223.728 76.1158 223.92C75.7424 224.101 75.3318 224.192 74.8838 224.192ZM75.6838 222.368C75.9504 222.368 76.1798 222.309 76.3718 222.192C76.5744 222.064 76.7771 221.899 76.9798 221.696V220.304C76.1478 220.411 75.5718 220.581 75.2518 220.816C74.9318 221.04 74.7718 221.307 74.7718 221.616C74.7718 221.872 74.8518 222.064 75.0118 222.192C75.1824 222.309 75.4064 222.368 75.6838 222.368ZM82.2013 227.104C81.9666 227.104 81.7586 227.088 81.5773 227.056C81.4066 227.024 81.2413 226.987 81.0813 226.944L81.4973 225.152C81.5719 225.163 81.6573 225.179 81.7533 225.2C81.8493 225.232 81.9399 225.248 82.0253 225.248C82.4199 225.248 82.7239 225.152 82.9373 224.96C83.1506 224.768 83.3106 224.517 83.4173 224.208L83.5293 223.792L80.4733 216.064H82.8413L83.9773 219.472C84.0946 219.835 84.2013 220.203 84.2973 220.576C84.3933 220.949 84.4946 221.333 84.6013 221.728H84.6653C84.7506 221.355 84.8359 220.981 84.9213 220.608C85.0173 220.224 85.1133 219.845 85.2093 219.472L86.1693 216.064H88.4253L85.6733 224.08C85.4279 224.741 85.1559 225.296 84.8573 225.744C84.5586 226.203 84.1959 226.544 83.7693 226.768C83.3533 226.992 82.8306 227.104 82.2013 227.104ZM93.092 224.192C92.3347 224.192 91.652 224.027 91.044 223.696C90.436 223.365 89.956 222.891 89.604 222.272C89.252 221.653 89.076 220.907 89.076 220.032C89.076 219.168 89.252 218.427 89.604 217.808C89.9667 217.189 90.436 216.715 91.012 216.384C91.588 216.043 92.1907 215.872 92.82 215.872C93.5773 215.872 94.2013 216.043 94.692 216.384C95.1933 216.715 95.5667 217.168 95.812 217.744C96.068 218.309 96.196 218.955 96.196 219.68C96.196 219.883 96.1853 220.085 96.164 220.288C96.1427 220.48 96.1213 220.624 96.1 220.72H91.348C91.4547 221.296 91.6947 221.723 92.068 222C92.4413 222.267 92.8893 222.4 93.412 222.4C93.9773 222.4 94.548 222.224 95.124 221.872L95.908 223.296C95.5027 223.573 95.0493 223.792 94.548 223.952C94.0467 224.112 93.5613 224.192 93.092 224.192ZM91.332 219.168H94.196C94.196 218.731 94.0893 218.373 93.876 218.096C93.6733 217.808 93.3373 217.664 92.868 217.664C92.5053 217.664 92.18 217.792 91.892 218.048C91.604 218.293 91.4173 218.667 91.332 219.168ZM97.8213 224V216.064H99.7413L99.9013 217.456H99.9653C100.253 216.923 100.6 216.528 101.005 216.272C101.411 216.005 101.816 215.872 102.221 215.872C102.445 215.872 102.632 215.888 102.781 215.92C102.931 215.941 103.059 215.979 103.165 216.032L102.781 218.064C102.643 218.021 102.504 217.989 102.365 217.968C102.237 217.947 102.088 217.936 101.917 217.936C101.619 217.936 101.304 218.048 100.973 218.272C100.653 218.485 100.387 218.859 100.173 219.392V224H97.8213Z" fill="#232A3D"/>
<path d="M341.472 180.192C340.533 180.192 339.707 179.973 338.992 179.536C338.288 179.099 337.733 178.475 337.328 177.664C336.933 176.843 336.736 175.867 336.736 174.736C336.736 173.595 336.933 172.629 337.328 171.84C337.733 171.04 338.288 170.432 338.992 170.016C339.707 169.589 340.533 169.376 341.472 169.376C342.411 169.376 343.232 169.589 343.936 170.016C344.651 170.432 345.205 171.04 345.6 171.84C346.005 172.64 346.208 173.605 346.208 174.736C346.208 175.867 346.005 176.843 345.6 177.664C345.205 178.475 344.651 179.099 343.936 179.536C343.232 179.973 342.411 180.192 341.472 180.192ZM341.472 178.16C342.187 178.16 342.752 177.851 343.168 177.232C343.584 176.613 343.792 175.781 343.792 174.736C343.792 173.691 343.584 172.875 343.168 172.288C342.752 171.701 342.187 171.408 341.472 171.408C340.757 171.408 340.192 171.701 339.776 172.288C339.36 172.875 339.152 173.691 339.152 174.736C339.152 175.781 339.36 176.613 339.776 177.232C340.192 177.851 340.757 178.16 341.472 178.16ZM350.362 180.192C349.498 180.192 348.868 179.909 348.474 179.344C348.09 178.768 347.898 177.984 347.898 176.992V172.064H350.25V176.688C350.25 177.253 350.33 177.648 350.49 177.872C350.65 178.085 350.9 178.192 351.242 178.192C351.54 178.192 351.791 178.123 351.994 177.984C352.196 177.845 352.415 177.621 352.65 177.312V172.064H355.002V180H353.082L352.906 178.896H352.858C352.527 179.291 352.164 179.605 351.77 179.84C351.375 180.075 350.906 180.192 350.362 180.192ZM360.127 180.192C359.146 180.192 358.442 179.909 358.015 179.344C357.599 178.779 357.391 178.037 357.391 177.12V173.904H356.303V172.16L357.519 172.064L357.791 169.952H359.743V172.064H361.647V173.904H359.743V177.088C359.743 177.536 359.834 177.861 360.015 178.064C360.207 178.256 360.458 178.352 360.767 178.352C360.895 178.352 361.023 178.336 361.151 178.304C361.29 178.272 361.413 178.235 361.519 178.192L361.887 179.904C361.685 179.968 361.434 180.032 361.135 180.096C360.847 180.16 360.511 180.192 360.127 180.192ZM363.196 182.944V172.064H365.116L365.276 172.848H365.34C365.65 172.571 365.996 172.341 366.38 172.16C366.775 171.968 367.18 171.872 367.596 171.872C368.556 171.872 369.314 172.24 369.868 172.976C370.423 173.701 370.7 174.677 370.7 175.904C370.7 176.811 370.54 177.584 370.22 178.224C369.9 178.864 369.484 179.355 368.972 179.696C368.471 180.027 367.932 180.192 367.356 180.192C367.015 180.192 366.684 180.123 366.364 179.984C366.044 179.835 365.746 179.627 365.468 179.36L365.548 180.624V182.944H363.196ZM366.812 178.272C367.218 178.272 367.564 178.085 367.852 177.712C368.14 177.339 368.284 176.747 368.284 175.936C368.284 174.507 367.826 173.792 366.908 173.792C366.45 173.792 365.996 174.032 365.548 174.512V177.76C365.762 177.952 365.975 178.085 366.188 178.16C366.402 178.235 366.61 178.272 366.812 178.272ZM374.752 180.192C373.888 180.192 373.259 179.909 372.864 179.344C372.48 178.768 372.288 177.984 372.288 176.992V172.064H374.64V176.688C374.64 177.253 374.72 177.648 374.88 177.872C375.04 178.085 375.291 178.192 375.632 178.192C375.931 178.192 376.181 178.123 376.384 177.984C376.587 177.845 376.805 177.621 377.04 177.312V172.064H379.392V180H377.472L377.296 178.896H377.248C376.917 179.291 376.555 179.605 376.16 179.84C375.765 180.075 375.296 180.192 374.752 180.192ZM384.518 180.192C383.537 180.192 382.833 179.909 382.406 179.344C381.99 178.779 381.782 178.037 381.782 177.12V173.904H380.694V172.16L381.91 172.064L382.182 169.952H384.134V172.064H386.038V173.904H384.134V177.088C384.134 177.536 384.225 177.861 384.406 178.064C384.598 178.256 384.849 178.352 385.158 178.352C385.286 178.352 385.414 178.336 385.542 178.304C385.681 178.272 385.803 178.235 385.91 178.192L386.278 179.904C386.075 179.968 385.825 180.032 385.526 180.096C385.238 180.16 384.902 180.192 384.518 180.192ZM390.982 180V169.568H393.334V178.016H397.462V180H390.982ZM401.071 180.192C400.346 180.192 399.77 179.963 399.343 179.504C398.917 179.035 398.703 178.464 398.703 177.792C398.703 176.96 399.055 176.309 399.759 175.84C400.463 175.371 401.599 175.056 403.167 174.896C403.146 174.544 403.039 174.267 402.847 174.064C402.666 173.851 402.357 173.744 401.919 173.744C401.589 173.744 401.253 173.808 400.911 173.936C400.57 174.064 400.207 174.24 399.823 174.464L398.975 172.912C399.477 172.603 400.01 172.352 400.575 172.16C401.151 171.968 401.749 171.872 402.367 171.872C403.381 171.872 404.159 172.165 404.703 172.752C405.247 173.339 405.519 174.24 405.519 175.456V180H403.599L403.439 179.184H403.375C403.045 179.483 402.687 179.728 402.303 179.92C401.93 180.101 401.519 180.192 401.071 180.192ZM401.871 178.368C402.138 178.368 402.367 178.309 402.559 178.192C402.762 178.064 402.965 177.899 403.167 177.696V176.304C402.335 176.411 401.759 176.581 401.439 176.816C401.119 177.04 400.959 177.307 400.959 177.616C400.959 177.872 401.039 178.064 401.199 178.192C401.37 178.309 401.594 178.368 401.871 178.368ZM408.389 183.104C408.154 183.104 407.946 183.088 407.765 183.056C407.594 183.024 407.429 182.987 407.269 182.944L407.685 181.152C407.759 181.163 407.845 181.179 407.941 181.2C408.037 181.232 408.127 181.248 408.213 181.248C408.607 181.248 408.911 181.152 409.125 180.96C409.338 180.768 409.498 180.517 409.605 180.208L409.717 179.792L406.661 172.064H409.029L410.165 175.472C410.282 175.835 410.389 176.203 410.485 176.576C410.581 176.949 410.682 177.333 410.789 177.728H410.853C410.938 177.355 411.023 176.981 411.109 176.608C411.205 176.224 411.301 175.845 411.397 175.472L412.357 172.064H414.613L411.861 180.08C411.615 180.741 411.343 181.296 411.045 181.744C410.746 182.203 410.383 182.544 409.957 182.768C409.541 182.992 409.018 183.104 408.389 183.104ZM419.28 180.192C418.522 180.192 417.84 180.027 417.232 179.696C416.624 179.365 416.144 178.891 415.792 178.272C415.44 177.653 415.264 176.907 415.264 176.032C415.264 175.168 415.44 174.427 415.792 173.808C416.154 173.189 416.624 172.715 417.2 172.384C417.776 172.043 418.378 171.872 419.008 171.872C419.765 171.872 420.389 172.043 420.88 172.384C421.381 172.715 421.754 173.168 422 173.744C422.256 174.309 422.384 174.955 422.384 175.68C422.384 175.883 422.373 176.085 422.352 176.288C422.33 176.48 422.309 176.624 422.288 176.72H417.536C417.642 177.296 417.882 177.723 418.256 178C418.629 178.267 419.077 178.4 419.6 178.4C420.165 178.4 420.736 178.224 421.312 177.872L422.096 179.296C421.69 179.573 421.237 179.792 420.736 179.952C420.234 180.112 419.749 180.192 419.28 180.192ZM417.52 175.168H420.384C420.384 174.731 420.277 174.373 420.064 174.096C419.861 173.808 419.525 173.664 419.056 173.664C418.693 173.664 418.368 173.792 418.08 174.048C417.792 174.293 417.605 174.667 417.52 175.168ZM424.009 180V172.064H425.929L426.089 173.456H426.153C426.441 172.923 426.787 172.528 427.193 172.272C427.598 172.005 428.003 171.872 428.409 171.872C428.633 171.872 428.819 171.888 428.969 171.92C429.118 171.941 429.246 171.979 429.353 172.032L428.969 174.064C428.83 174.021 428.691 173.989 428.553 173.968C428.425 173.947 428.275 173.936 428.105 173.936C427.806 173.936 427.491 174.048 427.161 174.272C426.841 174.485 426.574 174.859 426.361 175.392V180H424.009Z" fill="#232A3D"/>
<path d="M177.232 224V213.568H179.584V217.584H183.184V213.568H185.552V224H183.184V219.648H179.584V224H177.232ZM187.821 224V216.064H190.173V224H187.821ZM188.989 214.896C188.595 214.896 188.275 214.784 188.029 214.56C187.784 214.336 187.661 214.037 187.661 213.664C187.661 213.291 187.784 212.992 188.029 212.768C188.275 212.544 188.595 212.432 188.989 212.432C189.384 212.432 189.704 212.544 189.949 212.768C190.195 212.992 190.317 213.291 190.317 213.664C190.317 214.037 190.195 214.336 189.949 214.56C189.704 214.784 189.384 214.896 188.989 214.896ZM195.075 224.192C194.094 224.192 193.304 223.824 192.707 223.088C192.12 222.341 191.827 221.323 191.827 220.032C191.827 219.168 191.982 218.427 192.291 217.808C192.611 217.179 193.022 216.699 193.523 216.368C194.035 216.037 194.568 215.872 195.123 215.872C195.56 215.872 195.928 215.947 196.227 216.096C196.526 216.245 196.808 216.448 197.075 216.704L196.979 215.488V212.784H199.331V224H197.411L197.251 223.216H197.187C196.91 223.493 196.584 223.728 196.211 223.92C195.838 224.101 195.459 224.192 195.075 224.192ZM195.683 222.272C195.939 222.272 196.168 222.219 196.371 222.112C196.584 222.005 196.787 221.819 196.979 221.552V218.304C196.776 218.112 196.558 217.979 196.323 217.904C196.099 217.829 195.88 217.792 195.667 217.792C195.294 217.792 194.963 217.973 194.675 218.336C194.387 218.688 194.243 219.243 194.243 220C194.243 220.779 194.366 221.355 194.611 221.728C194.867 222.091 195.224 222.272 195.683 222.272ZM204.247 224.192C203.266 224.192 202.476 223.824 201.879 223.088C201.292 222.341 200.999 221.323 200.999 220.032C200.999 219.168 201.154 218.427 201.463 217.808C201.783 217.179 202.194 216.699 202.695 216.368C203.207 216.037 203.74 215.872 204.295 215.872C204.732 215.872 205.1 215.947 205.399 216.096C205.698 216.245 205.98 216.448 206.247 216.704L206.151 215.488V212.784H208.503V224H206.583L206.423 223.216H206.359C206.082 223.493 205.756 223.728 205.383 223.92C205.01 224.101 204.631 224.192 204.247 224.192ZM204.855 222.272C205.111 222.272 205.34 222.219 205.543 222.112C205.756 222.005 205.959 221.819 206.151 221.552V218.304C205.948 218.112 205.73 217.979 205.495 217.904C205.271 217.829 205.052 217.792 204.839 217.792C204.466 217.792 204.135 217.973 203.847 218.336C203.559 218.688 203.415 219.243 203.415 220C203.415 220.779 203.538 221.355 203.783 221.728C204.039 222.091 204.396 222.272 204.855 222.272ZM214.139 224.192C213.382 224.192 212.699 224.027 212.091 223.696C211.483 223.365 211.003 222.891 210.651 222.272C210.299 221.653 210.123 220.907 210.123 220.032C210.123 219.168 210.299 218.427 210.651 217.808C211.014 217.189 211.483 216.715 212.059 216.384C212.635 216.043 213.238 215.872 213.867 215.872C214.624 215.872 215.248 216.043 215.739 216.384C216.24 216.715 216.614 217.168 216.859 217.744C217.115 218.309 217.243 218.955 217.243 219.68C217.243 219.883 217.232 220.085 217.211 220.288C217.19 220.48 217.168 220.624 217.147 220.72H212.395C212.502 221.296 212.742 221.723 213.115 222C213.488 222.267 213.936 222.4 214.459 222.4C215.024 222.4 215.595 222.224 216.171 221.872L216.955 223.296C216.55 223.573 216.096 223.792 215.595 223.952C215.094 224.112 214.608 224.192 214.139 224.192ZM212.379 219.168H215.243C215.243 218.731 215.136 218.373 214.923 218.096C214.72 217.808 214.384 217.664 213.915 217.664C213.552 217.664 213.227 217.792 212.939 218.048C212.651 218.293 212.464 218.667 212.379 219.168ZM218.868 224V216.064H220.788L220.948 217.072H221.012C221.353 216.752 221.727 216.475 222.132 216.24C222.548 215.995 223.023 215.872 223.556 215.872C224.42 215.872 225.044 216.16 225.428 216.736C225.823 217.301 226.02 218.08 226.02 219.072V224H223.668V219.376C223.668 218.8 223.588 218.405 223.428 218.192C223.279 217.979 223.033 217.872 222.692 217.872C222.393 217.872 222.137 217.941 221.924 218.08C221.711 218.208 221.476 218.395 221.22 218.64V224H218.868ZM231.42 224V213.568H233.772V222.016H237.9V224H231.42ZM241.509 224.192C240.783 224.192 240.207 223.963 239.781 223.504C239.354 223.035 239.141 222.464 239.141 221.792C239.141 220.96 239.493 220.309 240.197 219.84C240.901 219.371 242.037 219.056 243.605 218.896C243.583 218.544 243.477 218.267 243.285 218.064C243.103 217.851 242.794 217.744 242.357 217.744C242.026 217.744 241.69 217.808 241.349 217.936C241.007 218.064 240.645 218.24 240.261 218.464L239.413 216.912C239.914 216.603 240.447 216.352 241.013 216.16C241.589 215.968 242.186 215.872 242.805 215.872C243.818 215.872 244.597 216.165 245.141 216.752C245.685 217.339 245.957 218.24 245.957 219.456V224H244.037L243.877 223.184H243.813C243.482 223.483 243.125 223.728 242.741 223.92C242.367 224.101 241.957 224.192 241.509 224.192ZM242.309 222.368C242.575 222.368 242.805 222.309 242.997 222.192C243.199 222.064 243.402 221.899 243.605 221.696V220.304C242.773 220.411 242.197 220.581 241.877 220.816C241.557 221.04 241.397 221.307 241.397 221.616C241.397 221.872 241.477 222.064 241.637 222.192C241.807 222.309 242.031 222.368 242.309 222.368ZM248.826 227.104C248.592 227.104 248.384 227.088 248.202 227.056C248.032 227.024 247.866 226.987 247.706 226.944L248.122 225.152C248.197 225.163 248.282 225.179 248.378 225.2C248.474 225.232 248.565 225.248 248.65 225.248C249.045 225.248 249.349 225.152 249.562 224.96C249.776 224.768 249.936 224.517 250.042 224.208L250.154 223.792L247.098 216.064H249.466L250.602 219.472C250.72 219.835 250.826 220.203 250.922 220.576C251.018 220.949 251.12 221.333 251.226 221.728H251.29C251.376 221.355 251.461 220.981 251.546 220.608C251.642 220.224 251.738 219.845 251.834 219.472L252.794 216.064H255.05L252.298 224.08C252.053 224.741 251.781 225.296 251.482 225.744C251.184 226.203 250.821 226.544 250.394 226.768C249.978 226.992 249.456 227.104 248.826 227.104ZM259.717 224.192C258.96 224.192 258.277 224.027 257.669 223.696C257.061 223.365 256.581 222.891 256.229 222.272C255.877 221.653 255.701 220.907 255.701 220.032C255.701 219.168 255.877 218.427 256.229 217.808C256.592 217.189 257.061 216.715 257.637 216.384C258.213 216.043 258.816 215.872 259.445 215.872C260.202 215.872 260.826 216.043 261.317 216.384C261.818 216.715 262.192 217.168 262.437 217.744C262.693 218.309 262.821 218.955 262.821 219.68C262.821 219.883 262.81 220.085 262.789 220.288C262.768 220.48 262.746 220.624 262.725 220.72H257.973C258.08 221.296 258.32 221.723 258.693 222C259.066 222.267 259.514 222.4 260.037 222.4C260.602 222.4 261.173 222.224 261.749 221.872L262.533 223.296C262.128 223.573 261.674 223.792 261.173 223.952C260.672 224.112 260.186 224.192 259.717 224.192ZM257.957 219.168H260.821C260.821 218.731 260.714 218.373 260.501 218.096C260.298 217.808 259.962 217.664 259.493 217.664C259.13 217.664 258.805 217.792 258.517 218.048C258.229 218.293 258.042 218.667 257.957 219.168ZM264.446 224V216.064H266.366L266.526 217.456H266.59C266.878 216.923 267.225 216.528 267.63 216.272C268.036 216.005 268.441 215.872 268.846 215.872C269.07 215.872 269.257 215.888 269.406 215.92C269.556 215.941 269.684 215.979 269.79 216.032L269.406 218.064C269.268 218.021 269.129 217.989 268.99 217.968C268.862 217.947 268.713 217.936 268.542 217.936C268.244 217.936 267.929 218.048 267.598 218.272C267.278 218.485 267.012 218.859 266.798 219.392V224H264.446Z" fill="#232A3D"/>
<path d="M346.177 158V157.06H347.597V152.88H346.427V152.16C346.74 152.1 347.013 152.03 347.247 151.95C347.48 151.863 347.697 151.76 347.897 151.64H348.757V157.06H350.007V158H346.177Z" fill="white"/>
<path d="M54.28 63L57.4 57.88L54.48 53.18H56.96L58.06 55.04C58.2067 55.3067 58.3533 55.5867 58.5 55.88C58.66 56.16 58.8133 56.4333 58.96 56.7H59.04C59.16 56.4333 59.2867 56.16 59.42 55.88C59.5533 55.5867 59.68 55.3067 59.8 55.04L60.74 53.18H63.12L60.22 58.14L63.34 63H60.86L59.66 61.06C59.5 60.7667 59.3333 60.4733 59.16 60.18C59 59.8867 58.8333 59.6 58.66 59.32H58.58C58.4467 59.6 58.3067 59.8867 58.16 60.18C58.0133 60.46 57.8667 60.7533 57.72 61.06L56.68 63H54.28ZM66.9889 66.64V60.76H65.2689V59.68C65.7622 59.6 66.1556 59.4933 66.4489 59.36C66.7556 59.2267 67.0556 59.0533 67.3489 58.84H68.7289V66.64H66.9889Z" fill="#9B51E0"/>
<circle cx="63" cy="56" r="29.5" fill="url(#paint0_linear_13_157)" fill-opacity="0.2" stroke="#9B51E0"/>
<path d="M54.28 163L57.4 157.88L54.48 153.18H56.96L58.06 155.04C58.2067 155.307 58.3533 155.587 58.5 155.88C58.66 156.16 58.8133 156.433 58.96 156.7H59.04C59.16 156.433 59.2867 156.16 59.42 155.88C59.5533 155.587 59.68 155.307 59.8 155.04L60.74 153.18H63.12L60.22 158.14L63.34 163H60.86L59.66 161.06C59.5 160.767 59.3333 160.473 59.16 160.18C59 159.887 58.8333 159.6 58.66 159.32H58.58C58.4467 159.6 58.3067 159.887 58.16 160.18C58.0133 160.46 57.8667 160.753 57.72 161.06L56.68 163H54.28ZM64.5889 166.64V165.68C65.6956 164.733 66.5622 163.927 67.1889 163.26C67.8289 162.593 68.1489 161.993 68.1489 161.46C68.1489 161.02 68.0289 160.673 67.7889 160.42C67.5622 160.167 67.2422 160.04 66.8289 160.04C66.5356 160.04 66.2622 160.14 66.0089 160.34C65.7556 160.527 65.5156 160.773 65.2889 161.08L64.2889 160.16C64.6356 159.667 65.0489 159.287 65.5289 159.02C66.0089 158.74 66.5289 158.6 67.0889 158.6C67.9156 158.6 68.5756 158.827 69.0689 159.28C69.5756 159.72 69.8289 160.353 69.8289 161.18C69.8289 161.873 69.5889 162.527 69.1089 163.14C68.6289 163.767 68.0422 164.447 67.3489 165.18H70.1689V166.64H64.5889Z" fill="#9B51E0"/>
<circle cx="63" cy="156" r="29.5" fill="url(#paint1_linear_13_157)" fill-opacity="0.2" stroke="#9B51E0"/>
<path d="M215.46 63V53.18H217.36L217.52 54.5H217.6C218.04 54.0733 218.52 53.7067 219.04 53.4C219.56 53.0933 220.153 52.94 220.82 52.94C221.873 52.94 222.64 53.28 223.12 53.96C223.6 54.64 223.84 55.6 223.84 56.84V63H221.54V57.14C221.54 56.3267 221.42 55.7533 221.18 55.42C220.94 55.0867 220.547 54.92 220 54.92C219.573 54.92 219.193 55.0267 218.86 55.24C218.54 55.44 218.173 55.74 217.76 56.14V63H215.46ZM228.551 66.64V60.76H226.831V59.68C227.325 59.6 227.718 59.4933 228.011 59.36C228.318 59.2267 228.618 59.0533 228.911 58.84H230.291V66.64H228.551Z" fill="#209766"/>
<circle cx="223" cy="56" r="29.5" fill="url(#paint2_linear_13_157)" fill-opacity="0.2" stroke="#209766"/>
<path d="M215.46 163V153.18H217.36L217.52 154.5H217.6C218.04 154.073 218.52 153.707 219.04 153.4C219.56 153.093 220.153 152.94 220.82 152.94C221.873 152.94 222.64 153.28 223.12 153.96C223.6 154.64 223.84 155.6 223.84 156.84V163H221.54V157.14C221.54 156.327 221.42 155.753 221.18 155.42C220.94 155.087 220.547 154.92 220 154.92C219.573 154.92 219.193 155.027 218.86 155.24C218.54 155.44 218.173 155.74 217.76 156.14V163H215.46ZM226.151 166.64V165.68C227.258 164.733 228.125 163.927 228.751 163.26C229.391 162.593 229.711 161.993 229.711 161.46C229.711 161.02 229.591 160.673 229.351 160.42C229.125 160.167 228.805 160.04 228.391 160.04C228.098 160.04 227.825 160.14 227.571 160.34C227.318 160.527 227.078 160.773 226.851 161.08L225.851 160.16C226.198 159.667 226.611 159.287 227.091 159.02C227.571 158.74 228.091 158.6 228.651 158.6C229.478 158.6 230.138 158.827 230.631 159.28C231.138 159.72 231.391 160.353 231.391 161.18C231.391 161.873 231.151 162.527 230.671 163.14C230.191 163.767 229.605 164.447 228.911 165.18H231.731V166.64H226.151Z" fill="#209766"/>
<circle cx="223" cy="156" r="29.5" fill="url(#paint3_linear_13_157)" fill-opacity="0.2" stroke="#209766"/>
<circle cx="383" cy="112" r="29.5" fill="url(#paint4_linear_13_157)" fill-opacity="0.2" stroke="#1F69FF"/>
<path d="M93 55.5C92.7239 55.5 92.5 55.7239 92.5 56C92.5 56.2761 92.7239 56.5 93 56.5L93 55.5ZM191.354 56.3536C191.549 56.1583 191.549 55.8417 191.354 55.6465L188.172 52.4645C187.976 52.2692 187.66 52.2692 187.464 52.4645C187.269 52.6597 187.269 52.9763 187.464 53.1716L190.293 56L187.464 58.8284C187.269 59.0237 187.269 59.3403 187.464 59.5355C187.66 59.7308 187.976 59.7308 188.172 59.5355L191.354 56.3536ZM93 56.5L191 56.5L191 55.5L93 55.5L93 56.5Z" fill="url(#paint5_linear_13_157)"/>
<path d="M93 157.5C92.7239 157.5 92.5 157.724 92.5 158C92.5 158.276 92.7239 158.5 93 158.5L93 157.5ZM191.354 158.354C191.549 158.158 191.549 157.842 191.354 157.646L188.172 154.464C187.976 154.269 187.66 154.269 187.464 154.464C187.269 154.66 187.269 154.976 187.464 155.172L190.293 158L187.464 160.828C187.269 161.024 187.269 161.34 187.464 161.536C187.66 161.731 187.976 161.731 188.172 161.536L191.354 158.354ZM93 158.5L191 158.5L191 157.5L93 157.5L93 158.5Z" fill="url(#paint6_linear_13_157)"/>
<path d="M252.795 157.544C252.543 157.657 252.431 157.953 252.544 158.205C252.657 158.457 252.953 158.569 253.205 158.456L252.795 157.544ZM351.467 114.178C351.566 113.92 351.436 113.631 351.178 113.533L346.972 111.933C346.713 111.835 346.425 111.965 346.327 112.223C346.228 112.481 346.358 112.77 346.616 112.868L350.355 114.29L348.933 118.028C348.835 118.287 348.965 118.575 349.223 118.673C349.481 118.772 349.77 118.642 349.868 118.384L351.467 114.178ZM253.205 158.456L351.205 114.456L350.795 113.544L252.795 157.544L253.205 158.456Z" fill="url(#paint7_linear_13_157)"/>
<path d="M252.795 57.4561C252.543 57.343 252.431 57.0471 252.544 56.7952C252.657 56.5433 252.953 56.4308 253.205 56.5439L252.795 57.4561ZM351.467 100.822C351.566 101.08 351.436 101.369 351.178 101.467L346.972 103.067C346.713 103.165 346.425 103.035 346.327 102.777C346.228 102.519 346.358 102.23 346.616 102.132L350.355 100.71L348.933 96.9716C348.835 96.7135 348.965 96.4247 349.223 96.3265C349.481 96.2284 349.77 96.358 349.868 96.6161L351.467 100.822ZM253.205 56.5439L351.205 100.544L350.795 101.456L252.795 57.4561L253.205 56.5439Z" fill="url(#paint8_linear_13_157)"/>
<path d="M93.348 55.641C93.1497 55.4488 92.8332 55.4537 92.641 55.652C92.4488 55.8503 92.4537 56.1668 92.652 56.359L93.348 55.641ZM191.008 151.5C191.284 151.496 191.504 151.268 191.5 150.992L191.43 146.493C191.426 146.217 191.198 145.996 190.922 146.001C190.646 146.005 190.426 146.232 190.43 146.508L190.492 150.508L186.493 150.57C186.217 150.574 185.996 150.802 186.001 151.078C186.005 151.354 186.232 151.574 186.508 151.57L191.008 151.5ZM92.652 56.359L190.652 151.359L191.348 150.641L93.348 55.641L92.652 56.359Z" fill="url(#paint9_linear_13_157)"/>
<path d="M93.348 158.359C93.1497 158.551 92.8332 158.546 92.641 158.348C92.4488 158.15 92.4537 157.833 92.652 157.641L93.348 158.359ZM191.008 62.5001C191.284 62.5044 191.504 62.7317 191.5 63.0078L191.43 67.5072C191.426 67.7833 191.198 68.0037 190.922 67.9994C190.646 67.9951 190.426 67.7678 190.43 67.4917L190.492 63.4922L186.493 63.43C186.217 63.4257 185.996 63.1984 186.001 62.9223C186.005 62.6462 186.232 62.4258 186.508 62.4301L191.008 62.5001ZM92.652 157.641L190.652 62.641L191.348 63.359L93.348 158.359L92.652 157.641Z" fill="url(#paint10_linear_13_157)"/>
<defs>
<linearGradient id="paint0_linear_13_157" x1="63" y1="26" x2="63" y2="86" gradientUnits="userSpaceOnUse">
<stop stop-color="#9B51E0"/>
<stop offset="1" stop-color="#9B51E0" stop-opacity="0"/>
</linearGradient>
<linearGradient id="paint1_linear_13_157" x1="63" y1="126" x2="63" y2="186" gradientUnits="userSpaceOnUse">
<stop stop-color="#9B51E0"/>
<stop offset="1" stop-color="#9B51E0" stop-opacity="0"/>
</linearGradient>
<linearGradient id="paint2_linear_13_157" x1="223" y1="26" x2="223" y2="86" gradientUnits="userSpaceOnUse">
<stop stop-color="#209766"/>
<stop offset="1" stop-color="#209766" stop-opacity="0.01"/>
</linearGradient>
<linearGradient id="paint3_linear_13_157" x1="223" y1="126" x2="223" y2="186" gradientUnits="userSpaceOnUse">
<stop stop-color="#209766"/>
<stop offset="1" stop-color="#209766" stop-opacity="0.01"/>
</linearGradient>
<linearGradient id="paint4_linear_13_157" x1="383" y1="82" x2="383" y2="142" gradientUnits="userSpaceOnUse">
<stop stop-color="#1F69FF"/>
<stop offset="1" stop-color="#1F69FF" stop-opacity="0.02"/>
</linearGradient>
<linearGradient id="paint5_linear_13_157" x1="106" y1="56" x2="178" y2="56" gradientUnits="userSpaceOnUse">
<stop stop-color="#9B51E0"/>
<stop offset="1" stop-color="#209766"/>
</linearGradient>
<linearGradient id="paint6_linear_13_157" x1="106" y1="158" x2="178" y2="158" gradientUnits="userSpaceOnUse">
<stop stop-color="#9B51E0"/>
<stop offset="1" stop-color="#209766"/>
</linearGradient>
<linearGradient id="paint7_linear_13_157" x1="263.676" y1="153.292" x2="338.711" y2="119.939" gradientUnits="userSpaceOnUse">
<stop stop-color="#209766"/>
<stop offset="1" stop-color="#1F69FF"/>
</linearGradient>
<linearGradient id="paint8_linear_13_157" x1="263.676" y1="61.7079" x2="338.711" y2="95.0613" gradientUnits="userSpaceOnUse">
<stop stop-color="#209766"/>
<stop offset="1" stop-color="#1F69FF"/>
</linearGradient>
<linearGradient id="paint9_linear_13_157" x1="106" y1="68.602" x2="178" y2="138.398" gradientUnits="userSpaceOnUse">
<stop stop-color="#9B51E0"/>
<stop offset="1" stop-color="#209766"/>
</linearGradient>
<linearGradient id="paint10_linear_13_157" x1="106" y1="145.398" x2="178" y2="75.6021" gradientUnits="userSpaceOnUse">
<stop stop-color="#9B51E0"/>
<stop offset="1" stop-color="#209766"/>
</linearGradient>
</defs>
</svg>
