<svg width="600" height="314" viewBox="0 0 600 314" fill="none" xmlns="http://www.w3.org/2000/svg">
<rect width="600" height="314" fill="white"/>
<path d="M11.232 236V225.568H13.584V236H11.232ZM15.8525 236V228.064H17.7725L17.9325 229.072H17.9965C18.3378 228.752 18.7112 228.475 19.1165 228.24C19.5325 227.995 20.0072 227.872 20.5405 227.872C21.4045 227.872 22.0285 228.16 22.4125 228.736C22.8072 229.301 23.0045 230.08 23.0045 231.072V236H20.6525V231.376C20.6525 230.8 20.5725 230.405 20.4125 230.192C20.2632 229.979 20.0178 229.872 19.6765 229.872C19.3778 229.872 19.1218 229.941 18.9085 230.08C18.6952 230.208 18.4605 230.395 18.2045 230.64V236H15.8525ZM25.0088 238.944V228.064H26.9288L27.0888 228.848H27.1528C27.4621 228.571 27.8088 228.341 28.1927 228.16C28.5874 227.968 28.9928 227.872 29.4088 227.872C30.3688 227.872 31.1261 228.24 31.6808 228.976C32.2354 229.701 32.5128 230.677 32.5128 231.904C32.5128 232.811 32.3528 233.584 32.0328 234.224C31.7128 234.864 31.2968 235.355 30.7848 235.696C30.2834 236.027 29.7448 236.192 29.1688 236.192C28.8274 236.192 28.4968 236.123 28.1768 235.984C27.8568 235.835 27.5581 235.627 27.2808 235.36L27.3608 236.624V238.944H25.0088ZM28.6248 234.272C29.0301 234.272 29.3768 234.085 29.6648 233.712C29.9528 233.339 30.0968 232.747 30.0968 231.936C30.0968 230.507 29.6381 229.792 28.7208 229.792C28.2621 229.792 27.8088 230.032 27.3608 230.512V233.76C27.5741 233.952 27.7874 234.085 28.0008 234.16C28.2141 234.235 28.4221 234.272 28.6248 234.272ZM36.5646 236.192C35.7006 236.192 35.0713 235.909 34.6766 235.344C34.2926 234.768 34.1006 233.984 34.1006 232.992V228.064H36.4526V232.688C36.4526 233.253 36.5326 233.648 36.6926 233.872C36.8526 234.085 37.1033 234.192 37.4446 234.192C37.7433 234.192 37.994 234.123 38.1966 233.984C38.3993 233.845 38.618 233.621 38.8526 233.312V228.064H41.2046V236H39.2846L39.1086 234.896H39.0606C38.73 235.291 38.3673 235.605 37.9726 235.84C37.578 236.075 37.1086 236.192 36.5646 236.192ZM46.3304 236.192C45.349 236.192 44.645 235.909 44.2184 235.344C43.8024 234.779 43.5944 234.037 43.5944 233.12V229.904H42.5064V228.16L43.7224 228.064L43.9944 225.952H45.9464V228.064H47.8504V229.904H45.9464V233.088C45.9464 233.536 46.037 233.861 46.2184 234.064C46.4104 234.256 46.661 234.352 46.9704 234.352C47.0984 234.352 47.2264 234.336 47.3544 234.304C47.493 234.272 47.6157 234.235 47.7224 234.192L48.0904 235.904C47.8877 235.968 47.637 236.032 47.3384 236.096C47.0504 236.16 46.7144 236.192 46.3304 236.192ZM52.7945 236V225.568H55.1465V234.016H59.2745V236H52.7945ZM62.8838 236.192C62.1584 236.192 61.5824 235.963 61.1558 235.504C60.7291 235.035 60.5158 234.464 60.5158 233.792C60.5158 232.96 60.8678 232.309 61.5718 231.84C62.2758 231.371 63.4118 231.056 64.9798 230.896C64.9584 230.544 64.8518 230.267 64.6598 230.064C64.4784 229.851 64.1691 229.744 63.7318 229.744C63.4011 229.744 63.0651 229.808 62.7238 229.936C62.3824 230.064 62.0198 230.24 61.6358 230.464L60.7878 228.912C61.2891 228.603 61.8224 228.352 62.3878 228.16C62.9638 227.968 63.5611 227.872 64.1798 227.872C65.1931 227.872 65.9718 228.165 66.5158 228.752C67.0598 229.339 67.3318 230.24 67.3318 231.456V236H65.4118L65.2518 235.184H65.1878C64.8571 235.483 64.4998 235.728 64.1158 235.92C63.7424 236.101 63.3318 236.192 62.8838 236.192ZM63.6838 234.368C63.9504 234.368 64.1798 234.309 64.3718 234.192C64.5744 234.064 64.7771 233.899 64.9798 233.696V232.304C64.1478 232.411 63.5718 232.581 63.2518 232.816C62.9318 233.04 62.7718 233.307 62.7718 233.616C62.7718 233.872 62.8518 234.064 63.0118 234.192C63.1824 234.309 63.4064 234.368 63.6838 234.368ZM70.2013 239.104C69.9666 239.104 69.7586 239.088 69.5773 239.056C69.4066 239.024 69.2413 238.987 69.0813 238.944L69.4973 237.152C69.5719 237.163 69.6573 237.179 69.7533 237.2C69.8493 237.232 69.9399 237.248 70.0253 237.248C70.4199 237.248 70.7239 237.152 70.9373 236.96C71.1506 236.768 71.3106 236.517 71.4173 236.208L71.5293 235.792L68.4733 228.064H70.8413L71.9773 231.472C72.0946 231.835 72.2013 232.203 72.2973 232.576C72.3933 232.949 72.4946 233.333 72.6013 233.728H72.6653C72.7506 233.355 72.8359 232.981 72.9213 232.608C73.0173 232.224 73.1133 231.845 73.2093 231.472L74.1693 228.064H76.4253L73.6733 236.08C73.4279 236.741 73.1559 237.296 72.8573 237.744C72.5586 238.203 72.1959 238.544 71.7693 238.768C71.3533 238.992 70.8306 239.104 70.2013 239.104ZM81.092 236.192C80.3347 236.192 79.652 236.027 79.044 235.696C78.436 235.365 77.956 234.891 77.604 234.272C77.252 233.653 77.076 232.907 77.076 232.032C77.076 231.168 77.252 230.427 77.604 229.808C77.9667 229.189 78.436 228.715 79.012 228.384C79.588 228.043 80.1907 227.872 80.82 227.872C81.5773 227.872 82.2013 228.043 82.692 228.384C83.1933 228.715 83.5667 229.168 83.812 229.744C84.068 230.309 84.196 230.955 84.196 231.68C84.196 231.883 84.1853 232.085 84.164 232.288C84.1427 232.48 84.1213 232.624 84.1 232.72H79.348C79.4547 233.296 79.6947 233.723 80.068 234C80.4413 234.267 80.8893 234.4 81.412 234.4C81.9773 234.4 82.548 234.224 83.124 233.872L83.908 235.296C83.5027 235.573 83.0493 235.792 82.548 235.952C82.0467 236.112 81.5613 236.192 81.092 236.192ZM79.332 231.168H82.196C82.196 230.731 82.0893 230.373 81.876 230.096C81.6733 229.808 81.3373 229.664 80.868 229.664C80.5053 229.664 80.18 229.792 79.892 230.048C79.604 230.293 79.4173 230.667 79.332 231.168ZM85.8213 236V228.064H87.7413L87.9013 229.456H87.9653C88.2533 228.923 88.5999 228.528 89.0052 228.272C89.4106 228.005 89.8159 227.872 90.2213 227.872C90.4453 227.872 90.6319 227.888 90.7813 227.92C90.9306 227.941 91.0586 227.979 91.1653 228.032L90.7813 230.064C90.6426 230.021 90.5039 229.989 90.3653 229.968C90.2373 229.947 90.0879 229.936 89.9173 229.936C89.6186 229.936 89.3039 230.048 88.9733 230.272C88.6533 230.485 88.3866 230.859 88.1733 231.392V236H85.8213Z" fill="#232A3D"/>
<path d="M81.2946 166.404C81.0715 166.567 80.7587 166.518 80.596 166.295C80.4333 166.071 80.4823 165.759 80.7054 165.596L81.2946 166.404ZM129.077 130.506C129.35 130.549 129.537 130.805 129.494 131.077L128.798 135.523C128.755 135.796 128.499 135.983 128.226 135.94C127.953 135.897 127.767 135.641 127.81 135.368L128.429 131.417L124.477 130.798C124.204 130.755 124.017 130.499 124.06 130.226C124.103 129.953 124.359 129.767 124.632 129.81L129.077 130.506ZM80.7054 165.596L128.705 130.596L129.295 131.404L81.2946 166.404L80.7054 165.596Z" fill="url(#paint0_linear_4_5)"/>
<path d="M81.2946 87.596C81.0715 87.4333 80.7587 87.4823 80.596 87.7054C80.4333 87.9285 80.4823 88.2413 80.7054 88.404L81.2946 87.596ZM129.077 123.494C129.35 123.451 129.537 123.195 129.494 122.923L128.798 118.477C128.755 118.204 128.499 118.017 128.226 118.06C127.953 118.103 127.767 118.359 127.81 118.632L128.429 122.583L124.477 123.202C124.204 123.245 124.017 123.501 124.06 123.774C124.103 124.047 124.359 124.233 124.632 124.19L129.077 123.494ZM80.7054 88.404L128.705 123.404L129.295 122.596L81.2946 87.596L80.7054 88.404Z" fill="url(#paint1_linear_4_5)"/>
<path d="M503.472 195.192C502.533 195.192 501.707 194.973 500.992 194.536C500.288 194.099 499.733 193.475 499.328 192.664C498.933 191.843 498.736 190.867 498.736 189.736C498.736 188.595 498.933 187.629 499.328 186.84C499.733 186.04 500.288 185.432 500.992 185.016C501.707 184.589 502.533 184.376 503.472 184.376C504.411 184.376 505.232 184.589 505.936 185.016C506.651 185.432 507.205 186.04 507.6 186.84C508.005 187.64 508.208 188.605 508.208 189.736C508.208 190.867 508.005 191.843 507.6 192.664C507.205 193.475 506.651 194.099 505.936 194.536C505.232 194.973 504.411 195.192 503.472 195.192ZM503.472 193.16C504.187 193.16 504.752 192.851 505.168 192.232C505.584 191.613 505.792 190.781 505.792 189.736C505.792 188.691 505.584 187.875 505.168 187.288C504.752 186.701 504.187 186.408 503.472 186.408C502.757 186.408 502.192 186.701 501.776 187.288C501.36 187.875 501.152 188.691 501.152 189.736C501.152 190.781 501.36 191.613 501.776 192.232C502.192 192.851 502.757 193.16 503.472 193.16ZM512.362 195.192C511.498 195.192 510.868 194.909 510.474 194.344C510.09 193.768 509.898 192.984 509.898 191.992V187.064H512.25V191.688C512.25 192.253 512.33 192.648 512.49 192.872C512.65 193.085 512.9 193.192 513.242 193.192C513.54 193.192 513.791 193.123 513.994 192.984C514.196 192.845 514.415 192.621 514.65 192.312V187.064H517.002V195H515.082L514.906 193.896H514.858C514.527 194.291 514.164 194.605 513.77 194.84C513.375 195.075 512.906 195.192 512.362 195.192ZM522.127 195.192C521.146 195.192 520.442 194.909 520.015 194.344C519.599 193.779 519.391 193.037 519.391 192.12V188.904H518.303V187.16L519.519 187.064L519.791 184.952H521.743V187.064H523.647V188.904H521.743V192.088C521.743 192.536 521.834 192.861 522.015 193.064C522.207 193.256 522.458 193.352 522.767 193.352C522.895 193.352 523.023 193.336 523.151 193.304C523.29 193.272 523.413 193.235 523.519 193.192L523.887 194.904C523.685 194.968 523.434 195.032 523.135 195.096C522.847 195.16 522.511 195.192 522.127 195.192ZM525.196 197.944V187.064H527.116L527.276 187.848H527.34C527.65 187.571 527.996 187.341 528.38 187.16C528.775 186.968 529.18 186.872 529.596 186.872C530.556 186.872 531.314 187.24 531.868 187.976C532.423 188.701 532.7 189.677 532.7 190.904C532.7 191.811 532.54 192.584 532.22 193.224C531.9 193.864 531.484 194.355 530.972 194.696C530.471 195.027 529.932 195.192 529.356 195.192C529.015 195.192 528.684 195.123 528.364 194.984C528.044 194.835 527.746 194.627 527.468 194.36L527.548 195.624V197.944H525.196ZM528.812 193.272C529.218 193.272 529.564 193.085 529.852 192.712C530.14 192.339 530.284 191.747 530.284 190.936C530.284 189.507 529.826 188.792 528.908 188.792C528.45 188.792 527.996 189.032 527.548 189.512V192.76C527.762 192.952 527.975 193.085 528.188 193.16C528.402 193.235 528.61 193.272 528.812 193.272ZM536.752 195.192C535.888 195.192 535.259 194.909 534.864 194.344C534.48 193.768 534.288 192.984 534.288 191.992V187.064H536.64V191.688C536.64 192.253 536.72 192.648 536.88 192.872C537.04 193.085 537.291 193.192 537.632 193.192C537.931 193.192 538.181 193.123 538.384 192.984C538.587 192.845 538.805 192.621 539.04 192.312V187.064H541.392V195H539.472L539.296 193.896H539.248C538.917 194.291 538.555 194.605 538.16 194.84C537.765 195.075 537.296 195.192 536.752 195.192ZM546.518 195.192C545.537 195.192 544.833 194.909 544.406 194.344C543.99 193.779 543.782 193.037 543.782 192.12V188.904H542.694V187.16L543.91 187.064L544.182 184.952H546.134V187.064H548.038V188.904H546.134V192.088C546.134 192.536 546.225 192.861 546.406 193.064C546.598 193.256 546.849 193.352 547.158 193.352C547.286 193.352 547.414 193.336 547.542 193.304C547.681 193.272 547.803 193.235 547.91 193.192L548.278 194.904C548.075 194.968 547.825 195.032 547.526 195.096C547.238 195.16 546.902 195.192 546.518 195.192ZM552.982 195V184.568H555.334V193.016H559.462V195H552.982ZM563.071 195.192C562.346 195.192 561.77 194.963 561.343 194.504C560.917 194.035 560.703 193.464 560.703 192.792C560.703 191.96 561.055 191.309 561.759 190.84C562.463 190.371 563.599 190.056 565.167 189.896C565.146 189.544 565.039 189.267 564.847 189.064C564.666 188.851 564.357 188.744 563.919 188.744C563.589 188.744 563.253 188.808 562.911 188.936C562.57 189.064 562.207 189.24 561.823 189.464L560.975 187.912C561.477 187.603 562.01 187.352 562.575 187.16C563.151 186.968 563.749 186.872 564.367 186.872C565.381 186.872 566.159 187.165 566.703 187.752C567.247 188.339 567.519 189.24 567.519 190.456V195H565.599L565.439 194.184H565.375C565.045 194.483 564.687 194.728 564.303 194.92C563.93 195.101 563.519 195.192 563.071 195.192ZM563.871 193.368C564.138 193.368 564.367 193.309 564.559 193.192C564.762 193.064 564.965 192.899 565.167 192.696V191.304C564.335 191.411 563.759 191.581 563.439 191.816C563.119 192.04 562.959 192.307 562.959 192.616C562.959 192.872 563.039 193.064 563.199 193.192C563.37 193.309 563.594 193.368 563.871 193.368ZM570.389 198.104C570.154 198.104 569.946 198.088 569.765 198.056C569.594 198.024 569.429 197.987 569.269 197.944L569.685 196.152C569.759 196.163 569.845 196.179 569.941 196.2C570.037 196.232 570.127 196.248 570.213 196.248C570.607 196.248 570.911 196.152 571.125 195.96C571.338 195.768 571.498 195.517 571.605 195.208L571.717 194.792L568.661 187.064H571.029L572.165 190.472C572.282 190.835 572.389 191.203 572.485 191.576C572.581 191.949 572.682 192.333 572.789 192.728H572.853C572.938 192.355 573.023 191.981 573.109 191.608C573.205 191.224 573.301 190.845 573.397 190.472L574.357 187.064H576.613L573.861 195.08C573.615 195.741 573.343 196.296 573.045 196.744C572.746 197.203 572.383 197.544 571.957 197.768C571.541 197.992 571.018 198.104 570.389 198.104ZM581.28 195.192C580.522 195.192 579.84 195.027 579.232 194.696C578.624 194.365 578.144 193.891 577.792 193.272C577.44 192.653 577.264 191.907 577.264 191.032C577.264 190.168 577.44 189.427 577.792 188.808C578.154 188.189 578.624 187.715 579.2 187.384C579.776 187.043 580.378 186.872 581.008 186.872C581.765 186.872 582.389 187.043 582.88 187.384C583.381 187.715 583.754 188.168 584 188.744C584.256 189.309 584.384 189.955 584.384 190.68C584.384 190.883 584.373 191.085 584.352 191.288C584.33 191.48 584.309 191.624 584.288 191.72H579.536C579.642 192.296 579.882 192.723 580.256 193C580.629 193.267 581.077 193.4 581.6 193.4C582.165 193.4 582.736 193.224 583.312 192.872L584.096 194.296C583.69 194.573 583.237 194.792 582.736 194.952C582.234 195.112 581.749 195.192 581.28 195.192ZM579.52 190.168H582.384C582.384 189.731 582.277 189.373 582.064 189.096C581.861 188.808 581.525 188.664 581.056 188.664C580.693 188.664 580.368 188.792 580.08 189.048C579.792 189.293 579.605 189.667 579.52 190.168ZM586.009 195V187.064H587.929L588.089 188.456H588.153C588.441 187.923 588.787 187.528 589.193 187.272C589.598 187.005 590.003 186.872 590.409 186.872C590.633 186.872 590.819 186.888 590.969 186.92C591.118 186.941 591.246 186.979 591.353 187.032L590.969 189.064C590.83 189.021 590.691 188.989 590.553 188.968C590.425 188.947 590.275 188.936 590.105 188.936C589.806 188.936 589.491 189.048 589.161 189.272C588.841 189.485 588.574 189.859 588.361 190.392V195H586.009Z" fill="#232A3D"/>
<circle cx="423" cy="47" r="29.5" fill="url(#paint2_linear_4_5)" fill-opacity="0.2" stroke="#209766"/>
<path d="M415.3 54V44.08H417.7L417.9 45.34H417.98C418.407 44.94 418.873 44.5933 419.38 44.3C419.9 43.9933 420.493 43.84 421.16 43.84C422.24 43.84 423.02 44.2 423.5 44.92C423.993 45.6267 424.24 46.6 424.24 47.84V54H421.3V48.22C421.3 47.5 421.2 47.0067 421 46.74C420.813 46.4733 420.507 46.34 420.08 46.34C419.707 46.34 419.387 46.4267 419.12 46.6C418.853 46.76 418.56 46.9933 418.24 47.3V54H415.3ZM428.805 57.64V51.76H427.085V50.68C427.579 50.6 427.972 50.4933 428.265 50.36C428.572 50.2267 428.872 50.0533 429.165 49.84H430.545V57.64H428.805Z" fill="#209766"/>
<circle cx="423" cy="127" r="29.5" fill="url(#paint3_linear_4_5)" fill-opacity="0.2" stroke="#209766"/>
<path d="M415.3 134V124.08H417.7L417.9 125.34H417.98C418.407 124.94 418.873 124.593 419.38 124.3C419.9 123.993 420.493 123.84 421.16 123.84C422.24 123.84 423.02 124.2 423.5 124.92C423.993 125.627 424.24 126.6 424.24 127.84V134H421.3V128.22C421.3 127.5 421.2 127.007 421 126.74C420.813 126.473 420.507 126.34 420.08 126.34C419.707 126.34 419.387 126.427 419.12 126.6C418.853 126.76 418.56 126.993 418.24 127.3V134H415.3ZM426.345 137.72V136.56C427.345 135.733 428.165 135 428.805 134.36C429.445 133.733 429.765 133.173 429.765 132.68C429.765 132.293 429.665 131.993 429.465 131.78C429.265 131.567 428.985 131.46 428.625 131.46C428.372 131.46 428.125 131.547 427.885 131.72C427.659 131.88 427.432 132.107 427.205 132.4L425.985 131.28C426.785 130.213 427.779 129.68 428.965 129.68C429.832 129.68 430.525 129.913 431.045 130.38C431.579 130.833 431.845 131.48 431.845 132.32C431.845 132.947 431.632 133.547 431.205 134.12C430.792 134.707 430.312 135.307 429.765 135.92H432.125V137.72H426.345Z" fill="#209766"/>
<circle cx="423" cy="207" r="29.5" fill="url(#paint4_linear_4_5)" fill-opacity="0.2" stroke="#209766"/>
<path d="M415.3 214V204.08H417.7L417.9 205.34H417.98C418.407 204.94 418.873 204.593 419.38 204.3C419.9 203.993 420.493 203.84 421.16 203.84C422.24 203.84 423.02 204.2 423.5 204.92C423.993 205.627 424.24 206.6 424.24 207.84V214H421.3V208.22C421.3 207.5 421.2 207.007 421 206.74C420.813 206.473 420.507 206.34 420.08 206.34C419.707 206.34 419.387 206.427 419.12 206.6C418.853 206.76 418.56 206.993 418.24 207.3V214H415.3ZM429.105 217.88C428.452 217.88 427.859 217.74 427.325 217.46C426.805 217.18 426.385 216.8 426.065 216.32L427.145 215.48C427.625 216.187 428.232 216.54 428.965 216.54C429.339 216.54 429.652 216.44 429.905 216.24C430.172 216.04 430.305 215.753 430.305 215.38C430.305 214.993 430.119 214.693 429.745 214.48C429.385 214.28 428.859 214.18 428.165 214.18V213.16C428.739 213.16 429.185 213.053 429.505 212.84C429.839 212.627 430.005 212.333 430.005 211.96C430.005 211.653 429.899 211.407 429.685 211.22C429.472 211.033 429.185 210.94 428.825 210.94C428.559 210.94 428.299 211.02 428.045 211.18C427.805 211.34 427.585 211.547 427.385 211.8L426.385 210.92C426.772 210.493 427.179 210.167 427.605 209.94C428.032 209.713 428.532 209.6 429.105 209.6C429.812 209.6 430.419 209.793 430.925 210.18C431.445 210.553 431.705 211.073 431.705 211.74C431.705 212.18 431.592 212.553 431.365 212.86C431.152 213.153 430.852 213.4 430.465 213.6C430.892 213.733 431.252 213.96 431.545 214.28C431.852 214.6 432.005 215.007 432.005 215.5C432.005 215.98 431.872 216.393 431.605 216.74C431.339 217.1 430.985 217.38 430.545 217.58C430.105 217.78 429.625 217.88 429.105 217.88Z" fill="#209766"/>
<circle cx="160" cy="47" r="29.5" fill="url(#paint5_linear_4_5)" fill-opacity="0.2" stroke="#209766"/>
<circle cx="160" cy="127" r="29.5" fill="url(#paint6_linear_4_5)" fill-opacity="0.2" stroke="#209766"/>
<circle cx="160" cy="207" r="29.5" fill="url(#paint7_linear_4_5)" fill-opacity="0.2" stroke="#209766"/>
<circle cx="265" cy="47" r="29.5" fill="url(#paint8_linear_4_5)" fill-opacity="0.2" stroke="#209766"/>
<circle cx="265" cy="127" r="29.5" fill="url(#paint9_linear_4_5)" fill-opacity="0.2" stroke="#209766"/>
<circle cx="265" cy="207" r="29.5" fill="url(#paint10_linear_4_5)" fill-opacity="0.2" stroke="#209766"/>
<circle cx="545" cy="127" r="29.5" fill="url(#paint11_linear_4_5)" fill-opacity="0.2" stroke="#1F69FF"/>
<path d="M453.122 206.673C452.941 206.882 452.964 207.197 453.173 207.378C453.382 207.559 453.697 207.536 453.878 207.327L453.122 206.673ZM514.999 136.464C514.979 136.188 514.739 135.981 514.464 136.001L509.976 136.325C509.7 136.345 509.493 136.585 509.513 136.86C509.533 137.136 509.772 137.343 510.048 137.323L514.037 137.035L514.326 141.024C514.345 141.3 514.585 141.507 514.86 141.487C515.136 141.467 515.343 141.228 515.323 140.952L514.999 136.464ZM453.878 207.327L514.878 136.827L514.122 136.173L453.122 206.673L453.878 207.327Z" fill="url(#paint12_linear_4_5)"/>
<path d="M452.773 48.3272C452.592 48.1183 452.615 47.8026 452.824 47.6219C453.033 47.4412 453.348 47.464 453.529 47.6728L452.773 48.3272ZM514.65 118.536C514.63 118.812 514.39 119.019 514.115 118.999L509.627 118.675C509.351 118.655 509.144 118.415 509.164 118.14C509.184 117.864 509.423 117.657 509.699 117.677L513.688 117.965L513.976 113.976C513.996 113.7 514.236 113.493 514.511 113.513C514.787 113.533 514.994 113.772 514.974 114.048L514.65 118.536ZM453.529 47.6728L514.529 118.173L513.773 118.827L452.773 48.3272L453.529 47.6728Z" fill="url(#paint13_linear_4_5)"/>
<path d="M299 47H389" stroke="#209766" stroke-dasharray="2 4"/>
<path d="M299 127H389" stroke="#209766" stroke-dasharray="2 4"/>
<path d="M299 207H389" stroke="#209766" stroke-dasharray="2 4"/>
<path d="M453 126.5C452.724 126.5 452.5 126.724 452.5 127C452.5 127.276 452.724 127.5 453 127.5V126.5ZM515.854 127.354C516.049 127.158 516.049 126.842 515.854 126.646L512.672 123.464C512.476 123.269 512.16 123.269 511.964 123.464C511.769 123.66 511.769 123.976 511.964 124.172L514.793 127L511.964 129.828C511.769 130.024 511.769 130.34 511.964 130.536C512.16 130.731 512.476 130.731 512.672 130.536L515.854 127.354ZM453 127.5H515.5V126.5H453V127.5Z" fill="url(#paint14_linear_4_5)"/>
<path d="M81.4418 88.7659C81.3125 88.5219 81.0098 88.4289 80.7659 88.5582C80.5219 88.6875 80.4289 88.9902 80.5582 89.2341L81.4418 88.7659ZM133.853 189.478C134.117 189.559 134.397 189.411 134.478 189.147L135.799 184.845C135.88 184.581 135.732 184.302 135.468 184.22C135.204 184.139 134.925 184.288 134.843 184.552L133.669 188.375L129.845 187.201C129.581 187.12 129.302 187.268 129.22 187.532C129.139 187.796 129.288 188.075 129.552 188.157L133.853 189.478ZM80.5582 89.2341L133.558 189.234L134.442 188.766L81.4418 88.7659L80.5582 89.2341Z" fill="url(#paint15_linear_4_5)"/>
<path d="M81.4418 166.234C81.3125 166.478 81.0098 166.571 80.7659 166.442C80.5219 166.312 80.4289 166.01 80.5582 165.766L81.4418 166.234ZM133.853 65.522C134.117 65.441 134.397 65.5892 134.478 65.8532L135.799 70.1548C135.88 70.4188 135.732 70.6985 135.468 70.7796C135.204 70.8607 134.925 70.7124 134.843 70.4484L133.669 66.6248L129.845 67.7994C129.581 67.8805 129.302 67.7322 129.22 67.4682C129.139 67.2043 129.288 66.9245 129.552 66.8435L133.853 65.522ZM80.5582 165.766L133.558 65.7659L134.442 66.2341L81.4418 166.234L80.5582 165.766Z" fill="url(#paint16_linear_4_5)"/>
<path d="M80.702 87.5985C80.4803 87.7631 80.4339 88.0763 80.5985 88.298C80.7631 88.5197 81.0763 88.5661 81.298 88.4015L80.702 87.5985ZM129.995 52.0732C130.035 51.8 129.846 51.5458 129.573 51.5054L125.122 50.8469C124.848 50.8065 124.594 50.9951 124.554 51.2683C124.513 51.5415 124.702 51.7957 124.975 51.8361L128.932 52.4214L128.347 56.3784C128.306 56.6516 128.495 56.9058 128.768 56.9462C129.041 56.9866 129.296 56.7979 129.336 56.5247L129.995 52.0732ZM81.298 88.4015L129.798 52.4015L129.202 51.5985L80.702 87.5985L81.298 88.4015Z" fill="url(#paint17_linear_4_5)"/>
<path d="M80.702 166.901C80.4803 166.737 80.4339 166.424 80.5985 166.202C80.7631 165.98 81.0763 165.934 81.298 166.099L80.702 166.901ZM129.995 202.427C130.035 202.7 129.846 202.954 129.573 202.995L125.122 203.653C124.848 203.694 124.594 203.505 124.554 203.232C124.513 202.959 124.702 202.704 124.975 202.664L128.932 202.079L128.347 198.122C128.306 197.848 128.495 197.594 128.768 197.554C129.041 197.513 129.296 197.702 129.336 197.975L129.995 202.427ZM81.298 166.099L129.798 202.099L129.202 202.901L80.702 166.901L81.298 166.099Z" fill="url(#paint18_linear_4_5)"/>
<path d="M42.28 93L45.4 87.88L42.48 83.18H44.96L46.06 85.04C46.2067 85.3067 46.3533 85.5867 46.5 85.88C46.66 86.16 46.8133 86.4333 46.96 86.7H47.04C47.16 86.4333 47.2867 86.16 47.42 85.88C47.5533 85.5867 47.68 85.3067 47.8 85.04L48.74 83.18H51.12L48.22 88.14L51.34 93H48.86L47.66 91.06C47.5 90.7667 47.3333 90.4733 47.16 90.18C47 89.8867 46.8333 89.6 46.66 89.32H46.58C46.4467 89.6 46.3067 89.8867 46.16 90.18C46.0133 90.46 45.8667 90.7533 45.72 91.06L44.68 93H42.28ZM54.9889 96.64V90.76H53.2689V89.68C53.7622 89.6 54.1556 89.4933 54.4489 89.36C54.7556 89.2267 55.0556 89.0533 55.3489 88.84H56.7289V96.64H54.9889Z" fill="#9B51E0"/>
<circle cx="51" cy="86" r="29.5" fill="url(#paint19_linear_4_5)" fill-opacity="0.2" stroke="#9B51E0"/>
<path d="M42.28 175L45.4 169.88L42.48 165.18H44.96L46.06 167.04C46.2067 167.307 46.3533 167.587 46.5 167.88C46.66 168.16 46.8133 168.433 46.96 168.7H47.04C47.16 168.433 47.2867 168.16 47.42 167.88C47.5533 167.587 47.68 167.307 47.8 167.04L48.74 165.18H51.12L48.22 170.14L51.34 175H48.86L47.66 173.06C47.5 172.767 47.3333 172.473 47.16 172.18C47 171.887 46.8333 171.6 46.66 171.32H46.58C46.4467 171.6 46.3067 171.887 46.16 172.18C46.0133 172.46 45.8667 172.753 45.72 173.06L44.68 175H42.28ZM52.5889 178.64V177.68C53.6956 176.733 54.5622 175.927 55.1889 175.26C55.8289 174.593 56.1489 173.993 56.1489 173.46C56.1489 173.02 56.0289 172.673 55.7889 172.42C55.5622 172.167 55.2422 172.04 54.8289 172.04C54.5356 172.04 54.2622 172.14 54.0089 172.34C53.7556 172.527 53.5156 172.773 53.2889 173.08L52.2889 172.16C52.6356 171.667 53.0489 171.287 53.5289 171.02C54.0089 170.74 54.5289 170.6 55.0889 170.6C55.9156 170.6 56.5756 170.827 57.0689 171.28C57.5756 171.72 57.8289 172.353 57.8289 173.18C57.8289 173.873 57.5889 174.527 57.1089 175.14C56.6289 175.767 56.0422 176.447 55.3489 177.18H58.1689V178.64H52.5889Z" fill="#9B51E0"/>
<circle cx="51" cy="168" r="29.5" fill="url(#paint20_linear_4_5)" fill-opacity="0.2" stroke="#9B51E0"/>
<path d="M190 126.5C189.724 126.5 189.5 126.724 189.5 127C189.5 127.276 189.724 127.5 190 127.5L190 126.5ZM235.354 127.354C235.549 127.158 235.549 126.842 235.354 126.646L232.172 123.464C231.976 123.269 231.66 123.269 231.464 123.464C231.269 123.66 231.269 123.976 231.464 124.172L234.293 127L231.464 129.828C231.269 130.024 231.269 130.34 231.464 130.536C231.66 130.731 231.976 130.731 232.172 130.536L235.354 127.354ZM190 127.5L235 127.5L235 126.5L190 126.5L190 127.5Z" fill="#209766"/>
<path d="M190 206.5C189.724 206.5 189.5 206.724 189.5 207C189.5 207.276 189.724 207.5 190 207.5L190 206.5ZM235.354 207.354C235.549 207.158 235.549 206.842 235.354 206.646L232.172 203.464C231.976 203.269 231.66 203.269 231.464 203.464C231.269 203.66 231.269 203.976 231.464 204.172L234.293 207L231.464 209.828C231.269 210.024 231.269 210.34 231.464 210.536C231.66 210.731 231.976 210.731 232.172 210.536L235.354 207.354ZM190 207.5L235 207.5L235 206.5L190 206.5L190 207.5Z" fill="#209766"/>
<path d="M190.919 46.7275C190.769 46.496 190.459 46.4303 190.228 46.5808C189.996 46.7313 189.93 47.041 190.081 47.2725L190.919 46.7275ZM235.896 117.489C236.166 117.546 236.432 117.374 236.489 117.104L237.423 112.702C237.48 112.432 237.308 112.166 237.038 112.109C236.767 112.052 236.502 112.224 236.445 112.494L235.615 116.407L231.702 115.577C231.432 115.52 231.166 115.692 231.109 115.962C231.052 116.233 231.224 116.498 231.494 116.555L235.896 117.489ZM190.081 47.2725L235.581 117.272L236.419 116.728L190.919 46.7275L190.081 47.2725Z" fill="#209766"/>
<path d="M190.428 126.742C190.286 126.505 189.978 126.429 189.742 126.572C189.505 126.714 189.429 127.022 189.572 127.258L190.428 126.742ZM233.88 200.485C234.148 200.552 234.419 200.388 234.485 200.12L235.568 195.752C235.634 195.484 235.471 195.213 235.203 195.147C234.935 195.08 234.664 195.244 234.597 195.512L233.635 199.394L229.752 198.432C229.484 198.366 229.213 198.529 229.147 198.797C229.08 199.065 229.244 199.336 229.512 199.403L233.88 200.485ZM189.572 127.258L233.572 200.258L234.428 199.742L190.428 126.742L189.572 127.258Z" fill="#209766"/>
<path d="M190.425 127.264C190.279 127.498 189.971 127.57 189.736 127.425C189.502 127.279 189.43 126.971 189.575 126.736L190.425 127.264ZM234.886 54.0132C235.155 53.9502 235.424 54.1172 235.487 54.3861L236.512 58.7677C236.575 59.0365 236.408 59.3055 236.139 59.3684C235.871 59.4314 235.602 59.2644 235.539 58.9955L234.627 55.1008L230.732 56.0123C230.463 56.0753 230.194 55.9083 230.132 55.6394C230.069 55.3705 230.236 55.1016 230.504 55.0386L234.886 54.0132ZM189.575 126.736L234.575 54.2363L235.425 54.7637L190.425 127.264L189.575 126.736Z" fill="#209766"/>
<path d="M190.419 207.272C190.269 207.504 189.959 207.57 189.728 207.419C189.496 207.269 189.43 206.959 189.581 206.728L190.419 207.272ZM235.396 136.511C235.666 136.454 235.932 136.626 235.989 136.896L236.923 141.298C236.98 141.568 236.808 141.834 236.538 141.891C236.267 141.948 236.002 141.776 235.945 141.506L235.115 137.593L231.202 138.423C230.932 138.48 230.666 138.308 230.609 138.038C230.552 137.767 230.724 137.502 230.994 137.445L235.396 136.511ZM189.581 206.728L235.081 136.728L235.919 137.272L190.419 207.272L189.581 206.728Z" fill="#209766"/>
<path d="M191 46.5C190.724 46.5 190.5 46.7239 190.5 47C190.5 47.2761 190.724 47.5 191 47.5V46.5ZM235.354 47.3536C235.549 47.1583 235.549 46.8417 235.354 46.6464L232.172 43.4645C231.976 43.2692 231.66 43.2692 231.464 43.4645C231.269 43.6597 231.269 43.9763 231.464 44.1716L234.293 47L231.464 49.8284C231.269 50.0237 231.269 50.3403 231.464 50.5355C231.66 50.7308 231.976 50.7308 232.172 50.5355L235.354 47.3536ZM191 47.5H235V46.5H191V47.5Z" fill="#209766"/>
<path d="M189.526 206.841C189.438 207.103 189.58 207.387 189.841 207.474C190.103 207.562 190.387 207.42 190.474 207.159L189.526 206.841ZM238.447 63.2769C238.324 63.0297 238.024 62.9293 237.777 63.0526L233.75 65.0608C233.503 65.184 233.402 65.4843 233.526 65.7314C233.649 65.9785 233.949 66.0789 234.196 65.9557L237.776 64.1706L239.561 67.7502C239.684 67.9973 239.984 68.0977 240.231 67.9745C240.479 67.8512 240.579 67.551 240.456 67.3039L238.447 63.2769ZM190.474 207.159L238.474 63.6586L237.526 63.3414L189.526 206.841L190.474 207.159Z" fill="#209766"/>
<path d="M189.526 47.1586C189.438 46.8967 189.58 46.6134 189.841 46.5258C190.103 46.4382 190.387 46.5795 190.474 46.8414L189.526 47.1586ZM238.447 190.723C238.324 190.97 238.024 191.071 237.777 190.947L233.75 188.939C233.503 188.816 233.402 188.516 233.526 188.269C233.649 188.021 233.949 187.921 234.196 188.044L237.776 189.829L239.561 186.25C239.684 186.003 239.984 185.902 240.231 186.026C240.479 186.149 240.579 186.449 240.456 186.696L238.447 190.723ZM190.474 46.8414L238.474 190.341L237.526 190.659L189.526 47.1586L190.474 46.8414Z" fill="#209766"/>
<path d="M137 253V269H460V253" stroke="#7D8FA8" stroke-linecap="round"/>
<rect x="239" y="259" width="120" height="12" fill="white"/>
<path d="M249.232 275V264.568H251.584V268.584H255.184V264.568H257.552V275H255.184V270.648H251.584V275H249.232ZM259.821 275V267.064H262.173V275H259.821ZM260.989 265.896C260.595 265.896 260.275 265.784 260.029 265.56C259.784 265.336 259.661 265.037 259.661 264.664C259.661 264.291 259.784 263.992 260.029 263.768C260.275 263.544 260.595 263.432 260.989 263.432C261.384 263.432 261.704 263.544 261.949 263.768C262.195 263.992 262.317 264.291 262.317 264.664C262.317 265.037 262.195 265.336 261.949 265.56C261.704 265.784 261.384 265.896 260.989 265.896ZM267.075 275.192C266.094 275.192 265.304 274.824 264.707 274.088C264.12 273.341 263.827 272.323 263.827 271.032C263.827 270.168 263.982 269.427 264.291 268.808C264.611 268.179 265.022 267.699 265.523 267.368C266.035 267.037 266.568 266.872 267.123 266.872C267.56 266.872 267.928 266.947 268.227 267.096C268.526 267.245 268.808 267.448 269.075 267.704L268.979 266.488V263.784H271.331V275H269.411L269.251 274.216H269.187C268.91 274.493 268.584 274.728 268.211 274.92C267.838 275.101 267.459 275.192 267.075 275.192ZM267.683 273.272C267.939 273.272 268.168 273.219 268.371 273.112C268.584 273.005 268.787 272.819 268.979 272.552V269.304C268.776 269.112 268.558 268.979 268.323 268.904C268.099 268.829 267.88 268.792 267.667 268.792C267.294 268.792 266.963 268.973 266.675 269.336C266.387 269.688 266.243 270.243 266.243 271C266.243 271.779 266.366 272.355 266.611 272.728C266.867 273.091 267.224 273.272 267.683 273.272ZM276.247 275.192C275.266 275.192 274.476 274.824 273.879 274.088C273.292 273.341 272.999 272.323 272.999 271.032C272.999 270.168 273.154 269.427 273.463 268.808C273.783 268.179 274.194 267.699 274.695 267.368C275.207 267.037 275.74 266.872 276.295 266.872C276.732 266.872 277.1 266.947 277.399 267.096C277.698 267.245 277.98 267.448 278.247 267.704L278.151 266.488V263.784H280.503V275H278.583L278.423 274.216H278.359C278.082 274.493 277.756 274.728 277.383 274.92C277.01 275.101 276.631 275.192 276.247 275.192ZM276.855 273.272C277.111 273.272 277.34 273.219 277.543 273.112C277.756 273.005 277.959 272.819 278.151 272.552V269.304C277.948 269.112 277.73 268.979 277.495 268.904C277.271 268.829 277.052 268.792 276.839 268.792C276.466 268.792 276.135 268.973 275.847 269.336C275.559 269.688 275.415 270.243 275.415 271C275.415 271.779 275.538 272.355 275.783 272.728C276.039 273.091 276.396 273.272 276.855 273.272ZM286.139 275.192C285.382 275.192 284.699 275.027 284.091 274.696C283.483 274.365 283.003 273.891 282.651 273.272C282.299 272.653 282.123 271.907 282.123 271.032C282.123 270.168 282.299 269.427 282.651 268.808C283.014 268.189 283.483 267.715 284.059 267.384C284.635 267.043 285.238 266.872 285.867 266.872C286.624 266.872 287.248 267.043 287.739 267.384C288.24 267.715 288.614 268.168 288.859 268.744C289.115 269.309 289.243 269.955 289.243 270.68C289.243 270.883 289.232 271.085 289.211 271.288C289.19 271.48 289.168 271.624 289.147 271.72H284.395C284.502 272.296 284.742 272.723 285.115 273C285.488 273.267 285.936 273.4 286.459 273.4C287.024 273.4 287.595 273.224 288.171 272.872L288.955 274.296C288.55 274.573 288.096 274.792 287.595 274.952C287.094 275.112 286.608 275.192 286.139 275.192ZM284.379 270.168H287.243C287.243 269.731 287.136 269.373 286.923 269.096C286.72 268.808 286.384 268.664 285.915 268.664C285.552 268.664 285.227 268.792 284.939 269.048C284.651 269.293 284.464 269.667 284.379 270.168ZM290.868 275V267.064H292.788L292.948 268.072H293.012C293.353 267.752 293.727 267.475 294.132 267.24C294.548 266.995 295.023 266.872 295.556 266.872C296.42 266.872 297.044 267.16 297.428 267.736C297.823 268.301 298.02 269.08 298.02 270.072V275H295.668V270.376C295.668 269.8 295.588 269.405 295.428 269.192C295.279 268.979 295.033 268.872 294.692 268.872C294.393 268.872 294.137 268.941 293.924 269.08C293.711 269.208 293.476 269.395 293.22 269.64V275H290.868ZM303.42 275V264.568H305.772V273.016H309.9V275H303.42ZM313.509 275.192C312.783 275.192 312.207 274.963 311.781 274.504C311.354 274.035 311.141 273.464 311.141 272.792C311.141 271.96 311.493 271.309 312.197 270.84C312.901 270.371 314.037 270.056 315.605 269.896C315.583 269.544 315.477 269.267 315.285 269.064C315.103 268.851 314.794 268.744 314.357 268.744C314.026 268.744 313.69 268.808 313.349 268.936C313.007 269.064 312.645 269.24 312.261 269.464L311.413 267.912C311.914 267.603 312.447 267.352 313.013 267.16C313.589 266.968 314.186 266.872 314.805 266.872C315.818 266.872 316.597 267.165 317.141 267.752C317.685 268.339 317.957 269.24 317.957 270.456V275H316.037L315.877 274.184H315.813C315.482 274.483 315.125 274.728 314.741 274.92C314.367 275.101 313.957 275.192 313.509 275.192ZM314.309 273.368C314.575 273.368 314.805 273.309 314.997 273.192C315.199 273.064 315.402 272.899 315.605 272.696V271.304C314.773 271.411 314.197 271.581 313.877 271.816C313.557 272.04 313.397 272.307 313.397 272.616C313.397 272.872 313.477 273.064 313.637 273.192C313.807 273.309 314.031 273.368 314.309 273.368ZM320.826 278.104C320.592 278.104 320.384 278.088 320.202 278.056C320.032 278.024 319.866 277.987 319.706 277.944L320.122 276.152C320.197 276.163 320.282 276.179 320.378 276.2C320.474 276.232 320.565 276.248 320.65 276.248C321.045 276.248 321.349 276.152 321.562 275.96C321.776 275.768 321.936 275.517 322.042 275.208L322.154 274.792L319.098 267.064H321.466L322.602 270.472C322.72 270.835 322.826 271.203 322.922 271.576C323.018 271.949 323.12 272.333 323.226 272.728H323.29C323.376 272.355 323.461 271.981 323.546 271.608C323.642 271.224 323.738 270.845 323.834 270.472L324.794 267.064H327.05L324.298 275.08C324.053 275.741 323.781 276.296 323.482 276.744C323.184 277.203 322.821 277.544 322.394 277.768C321.978 277.992 321.456 278.104 320.826 278.104ZM331.717 275.192C330.96 275.192 330.277 275.027 329.669 274.696C329.061 274.365 328.581 273.891 328.229 273.272C327.877 272.653 327.701 271.907 327.701 271.032C327.701 270.168 327.877 269.427 328.229 268.808C328.592 268.189 329.061 267.715 329.637 267.384C330.213 267.043 330.816 266.872 331.445 266.872C332.202 266.872 332.826 267.043 333.317 267.384C333.818 267.715 334.192 268.168 334.437 268.744C334.693 269.309 334.821 269.955 334.821 270.68C334.821 270.883 334.81 271.085 334.789 271.288C334.768 271.48 334.746 271.624 334.725 271.72H329.973C330.08 272.296 330.32 272.723 330.693 273C331.066 273.267 331.514 273.4 332.037 273.4C332.602 273.4 333.173 273.224 333.749 272.872L334.533 274.296C334.128 274.573 333.674 274.792 333.173 274.952C332.672 275.112 332.186 275.192 331.717 275.192ZM329.957 270.168H332.821C332.821 269.731 332.714 269.373 332.501 269.096C332.298 268.808 331.962 268.664 331.493 268.664C331.13 268.664 330.805 268.792 330.517 269.048C330.229 269.293 330.042 269.667 329.957 270.168ZM336.446 275V267.064H338.366L338.526 268.456H338.59C338.878 267.923 339.225 267.528 339.63 267.272C340.036 267.005 340.441 266.872 340.846 266.872C341.07 266.872 341.257 266.888 341.406 266.92C341.556 266.941 341.684 266.979 341.79 267.032L341.406 269.064C341.268 269.021 341.129 268.989 340.99 268.968C340.862 268.947 340.713 268.936 340.542 268.936C340.244 268.936 339.929 269.048 339.598 269.272C339.278 269.485 339.012 269.859 338.798 270.392V275H336.446ZM345.032 275.192C344.51 275.192 343.971 275.091 343.416 274.888C342.872 274.685 342.398 274.419 341.992 274.088L343.048 272.616C343.411 272.883 343.758 273.091 344.088 273.24C344.43 273.379 344.766 273.448 345.096 273.448C345.448 273.448 345.704 273.389 345.864 273.272C346.024 273.144 346.104 272.979 346.104 272.776C346.104 272.595 346.024 272.445 345.864 272.328C345.715 272.211 345.518 272.104 345.272 272.008C345.027 271.901 344.766 271.795 344.488 271.688C344.168 271.56 343.848 271.4 343.528 271.208C343.219 271.016 342.958 270.771 342.744 270.472C342.531 270.163 342.424 269.789 342.424 269.352C342.424 268.616 342.702 268.019 343.256 267.56C343.822 267.101 344.558 266.872 345.464 266.872C346.072 266.872 346.606 266.979 347.064 267.192C347.534 267.395 347.934 267.624 348.264 267.88L347.208 269.288C346.931 269.075 346.654 268.909 346.376 268.792C346.099 268.675 345.822 268.616 345.544 268.616C344.936 268.616 344.632 268.824 344.632 269.24C344.632 269.496 344.782 269.693 345.08 269.832C345.39 269.96 345.747 270.099 346.152 270.248C346.494 270.365 346.824 270.52 347.144 270.712C347.475 270.893 347.747 271.139 347.96 271.448C348.184 271.747 348.296 272.141 348.296 272.632C348.296 273.347 348.019 273.955 347.464 274.456C346.91 274.947 346.099 275.192 345.032 275.192Z" fill="#232A3D"/>
<defs>
<linearGradient id="paint0_linear_4_5" x1="87.3673" y1="166" x2="122.633" y2="166" gradientUnits="userSpaceOnUse">
<stop stop-color="#9B51E0"/>
<stop offset="1" stop-color="#209766"/>
</linearGradient>
<linearGradient id="paint1_linear_4_5" x1="87.3673" y1="88" x2="122.633" y2="88" gradientUnits="userSpaceOnUse">
<stop stop-color="#9B51E0"/>
<stop offset="1" stop-color="#209766"/>
</linearGradient>
<linearGradient id="paint2_linear_4_5" x1="423" y1="17" x2="423" y2="77" gradientUnits="userSpaceOnUse">
<stop stop-color="#209766"/>
<stop offset="1" stop-color="#209766" stop-opacity="0.01"/>
</linearGradient>
<linearGradient id="paint3_linear_4_5" x1="423" y1="97" x2="423" y2="157" gradientUnits="userSpaceOnUse">
<stop stop-color="#209766"/>
<stop offset="1" stop-color="#209766" stop-opacity="0.01"/>
</linearGradient>
<linearGradient id="paint4_linear_4_5" x1="423" y1="177" x2="423" y2="237" gradientUnits="userSpaceOnUse">
<stop stop-color="#209766"/>
<stop offset="1" stop-color="#209766" stop-opacity="0.01"/>
</linearGradient>
<linearGradient id="paint5_linear_4_5" x1="160" y1="17" x2="160" y2="77" gradientUnits="userSpaceOnUse">
<stop stop-color="#209766"/>
<stop offset="1" stop-color="#209766" stop-opacity="0.01"/>
</linearGradient>
<linearGradient id="paint6_linear_4_5" x1="160" y1="97" x2="160" y2="157" gradientUnits="userSpaceOnUse">
<stop stop-color="#209766"/>
<stop offset="1" stop-color="#209766" stop-opacity="0.01"/>
</linearGradient>
<linearGradient id="paint7_linear_4_5" x1="160" y1="177" x2="160" y2="237" gradientUnits="userSpaceOnUse">
<stop stop-color="#209766"/>
<stop offset="1" stop-color="#209766" stop-opacity="0.01"/>
</linearGradient>
<linearGradient id="paint8_linear_4_5" x1="265" y1="17" x2="265" y2="77" gradientUnits="userSpaceOnUse">
<stop stop-color="#209766"/>
<stop offset="1" stop-color="#209766" stop-opacity="0.01"/>
</linearGradient>
<linearGradient id="paint9_linear_4_5" x1="265" y1="97" x2="265" y2="157" gradientUnits="userSpaceOnUse">
<stop stop-color="#209766"/>
<stop offset="1" stop-color="#209766" stop-opacity="0.01"/>
</linearGradient>
<linearGradient id="paint10_linear_4_5" x1="265" y1="177" x2="265" y2="237" gradientUnits="userSpaceOnUse">
<stop stop-color="#209766"/>
<stop offset="1" stop-color="#209766" stop-opacity="0.01"/>
</linearGradient>
<linearGradient id="paint11_linear_4_5" x1="545" y1="97" x2="545" y2="157" gradientUnits="userSpaceOnUse">
<stop stop-color="#1F69FF"/>
<stop offset="1" stop-color="#1F69FF" stop-opacity="0.02"/>
</linearGradient>
<linearGradient id="paint12_linear_4_5" x1="455.123" y1="194.098" x2="506.47" y2="145.156" gradientUnits="userSpaceOnUse">
<stop stop-color="#209766"/>
<stop offset="1" stop-color="#1F69FF"/>
</linearGradient>
<linearGradient id="paint13_linear_4_5" x1="454.773" y1="60.9025" x2="506.121" y2="109.844" gradientUnits="userSpaceOnUse">
<stop stop-color="#209766"/>
<stop offset="1" stop-color="#1F69FF"/>
</linearGradient>
<linearGradient id="paint14_linear_4_5" x1="459.788" y1="127.078" x2="507.563" y2="127.182" gradientUnits="userSpaceOnUse">
<stop stop-color="#209766"/>
<stop offset="1" stop-color="#1F69FF"/>
</linearGradient>
<linearGradient id="paint15_linear_4_5" x1="88.0306" y1="88.9999" x2="126.969" y2="88.9999" gradientUnits="userSpaceOnUse">
<stop stop-color="#9B51E0"/>
<stop offset="1" stop-color="#209766"/>
</linearGradient>
<linearGradient id="paint16_linear_4_5" x1="88.0306" y1="166" x2="126.969" y2="166" gradientUnits="userSpaceOnUse">
<stop stop-color="#9B51E0"/>
<stop offset="1" stop-color="#209766"/>
</linearGradient>
<linearGradient id="paint17_linear_4_5" x1="87.4337" y1="52" x2="123.066" y2="52" gradientUnits="userSpaceOnUse">
<stop stop-color="#9B51E0"/>
<stop offset="1" stop-color="#209766"/>
</linearGradient>
<linearGradient id="paint18_linear_4_5" x1="87.4337" y1="202.5" x2="123.066" y2="202.5" gradientUnits="userSpaceOnUse">
<stop stop-color="#9B51E0"/>
<stop offset="1" stop-color="#209766"/>
</linearGradient>
<linearGradient id="paint19_linear_4_5" x1="51" y1="56" x2="51" y2="116" gradientUnits="userSpaceOnUse">
<stop stop-color="#9B51E0"/>
<stop offset="1" stop-color="#9B51E0" stop-opacity="0"/>
</linearGradient>
<linearGradient id="paint20_linear_4_5" x1="51" y1="138" x2="51" y2="198" gradientUnits="userSpaceOnUse">
<stop stop-color="#9B51E0"/>
<stop offset="1" stop-color="#9B51E0" stop-opacity="0"/>
</linearGradient>
</defs>
</svg>
