<?xml version="1.0" encoding="UTF-8" standalone="no"?>
<!-- Created with Inkscape (http://www.inkscape.org/) -->

<svg
   width="256"
   height="256"
   viewBox="0 0 67.733332 67.733333"
   version="1.1"
   id="svg31712"
   xmlns="http://www.w3.org/2000/svg"
   xmlns:svg="http://www.w3.org/2000/svg">
  <defs
     id="defs31709" />
  <g
     id="layer1">
    <g
       id="g30066"
       style="fill:#9f58d7;fill-opacity:1;stroke:none"
       transform="matrix(0.36740067,0,0,0.36740067,324.11615,-313.43449)">
      <path
         fill-rule="evenodd"
         fill="#000000"
         fill-opacity="1"
         d="m -766.64771,944.4266 c 7.22333,-7.17372 13.78004,-13.80175 20.97546,-21.0013 5.20072,-5.20382 39.81669,-39.17177 41.32254,-41.94886 -55.29171,-0.73692 -114.26175,-0.0444 -170.07127,-0.0837 1.541,3.18844 52.30999,53.06653 61.9063,62.67111 3.65869,3.66178 6.63112,6.62387 10.28258,10.27224 15.30449,15.2921 13.62501,11.89591 35.58439,-9.90947"
         id="path29563"
         style="fill:#9f58d7;fill-opacity:1;stroke:none;stroke-width:0.264583" />
      <path
         fill="none"
         stroke-width="0.1323"
         stroke-linecap="butt"
         stroke-linejoin="miter"
         stroke="#000000"
         stroke-opacity="1"
         stroke-miterlimit="2.61313"
         d="m -766.64773,944.42661 c 7.22333,-7.17373 13.78003,-13.80174 20.97546,-21.0013 5.20072,-5.20382 39.81669,-39.17177 41.32254,-41.94886 -55.29171,-0.73691 -114.26175,-0.0444 -170.07125,-0.0837 1.54099,3.18844 52.30997,53.06653 61.90629,62.67111 3.65869,3.66179 6.63112,6.62388 10.28257,10.27224 15.30449,15.29209 13.62501,11.89591 35.58439,-9.90947 z m 0,0"
         id="path29565"
         style="fill:#9f58d7;fill-opacity:1;stroke:none" />
      <path
         fill-rule="evenodd"
         fill="#000000"
         fill-opacity="1"
         d="m -699.0353,886.86629 c -2.61276,1.12138 -56.73349,55.24831 -58.77574,58.56076 1.911,3.32901 55.93457,57.41765 58.76747,58.58455 l 0.008,-117.14531"
         id="path29567"
         style="fill:#9f58d7;fill-opacity:1;stroke:none;stroke-width:0.264583" />
      <path
         fill="none"
         stroke-width="0.1323"
         stroke-linecap="butt"
         stroke-linejoin="miter"
         stroke="#000000"
         stroke-opacity="1"
         stroke-miterlimit="2.61313"
         d="m -699.03533,886.8663 c -2.61276,1.12138 -56.73348,55.2483 -58.77573,58.56076 1.91099,3.329 55.93456,57.41764 58.76746,58.58454 z m 0,0"
         id="path29569"
         style="fill:#9f58d7;fill-opacity:1;stroke:none" />
      <path
         fill-rule="evenodd"
         fill="#000000"
         fill-opacity="1"
         d="m -704.38484,1009.45 -58.37164,-59.01963 c -7.47964,4.33152 -15.44918,19.77036 -26.1245,20.03391 -11.63546,0.2863 -19.55333,-15.44193 -26.77666,-19.80549 l -59.05272,58.48941 170.32552,0.3018"
         id="path29571"
         style="fill:#9f58d7;fill-opacity:1;stroke:none;stroke-width:0.264583" />
      <path
         fill="none"
         stroke-width="0.1323"
         stroke-linecap="butt"
         stroke-linejoin="miter"
         stroke="#000000"
         stroke-opacity="1"
         stroke-miterlimit="2.61313"
         d="m -704.38487,1009.45 -58.37163,-59.01963 c -7.47964,4.33152 -15.44918,19.77037 -26.1245,20.03392 -11.63546,0.28629 -19.55332,-15.44195 -26.77665,-19.80551 l -59.05272,58.48942 z m 0,0"
         id="path29573"
         style="fill:#9f58d7;fill-opacity:1;stroke:none" />
      <path
         fill-rule="evenodd"
         fill="#000000"
         fill-opacity="1"
         d="m -880.98078,1005.2404 c 1.54306,-0.6965 57.77011,-55.82288 60.12346,-59.81335 -2.22932,-3.50573 -57.34534,-58.3892 -59.97257,-59.78652 l -0.15089,119.59987"
         id="path29575"
         style="fill:#9f58d7;fill-opacity:1;stroke:none;stroke-width:0.264583" />
      <path
         fill="none"
         stroke-width="0.1323"
         stroke-linecap="butt"
         stroke-linejoin="miter"
         stroke="#000000"
         stroke-opacity="1"
         stroke-miterlimit="2.61313"
         d="m -880.98079,1005.2405 c 1.54306,-0.6966 57.77011,-55.82298 60.12345,-59.81344 -2.22932,-3.50573 -57.34532,-58.38919 -59.97255,-59.78652 z m 0,0"
         id="path29577"
         style="fill:#9f58d7;fill-opacity:1;stroke:none" />
    </g>
  </g>
</svg>
