<?xml version="1.0" encoding="UTF-8" standalone="no"?>
<!-- Created with Inkscape (http://www.inkscape.org/) -->

<svg
   width="256"
   height="256"
   viewBox="0 0 67.733332 67.733333"
   version="1.1"
   id="svg40687"
   xmlns="http://www.w3.org/2000/svg"
   xmlns:svg="http://www.w3.org/2000/svg">
  <defs
     id="defs40684" />
  <g
     id="layer1">
    <g
       id="g40810"
       transform="matrix(0.12888686,0,0,0.12888686,38.77088,-154.21679)">
      <path
         fill-rule="nonzero"
         fill="#4d4d4d"
         fill-opacity="1"
         d="m -38.048453,1321.3435 c 50.055859,0 97.553726,11.3977 140.043133,31.7417 44.08311,21.1088 82.643,51.8346 112.95124,89.4447 3.98219,4.9423 5.97378,10.851 5.97378,16.7617 0,5.9139 -1.99159,11.8184 -5.97378,16.7618 -30.30824,37.6101 -68.86813,68.3369 -112.95124,89.4447 -42.489407,20.345 -89.987274,31.7407 -140.043133,31.7407 -50.05689,0 -97.557857,-11.3957 -140.047267,-31.7407 -44.07894,-21.1078 -82.6399,-51.8346 -112.94813,-89.4447 -3.98426,-4.9434 -5.97691,-10.851 -5.97691,-16.7618 0,-5.9107 1.99265,-11.8194 5.97691,-16.7617 30.30823,-37.6101 68.86919,-68.3359 112.94813,-89.4447 42.48941,-20.344 89.990377,-31.7417 140.047267,-31.7417 z m 0,30.5904 c -29.649869,0 -56.488541,12.0178 -75.916817,31.443 -19.42621,19.4262 -31.44303,46.268 -31.44303,75.9147 0,29.6468 12.01682,56.4886 31.4451,75.9148 19.426206,19.4272 46.264878,31.4441 75.914747,31.4441 29.6457421,0 56.485446,-12.0169 75.91372,-31.4431 19.426211,-19.4272 31.44303,-46.269 31.44303,-75.9158 0,-29.6467 -12.016819,-56.4885 -31.44303,-75.9147 -19.428274,-19.4283 -46.2679779,-31.443 -75.91372,-31.443"
         id="path38674"
         style="fill:#9f58d7;fill-opacity:1;stroke-width:0.264583" />
      <path
         fill-rule="evenodd"
         fill="#4d4d4d"
         fill-opacity="1"
         d="m -23.10259,1391.5924 c -22.564011,-5.0219 -47.133033,1.2971 -64.611038,18.926 -27.063992,27.2996 -26.876932,71.3713 0.420635,98.4384 27.299628,27.064 71.371353,26.8759 98.438439,-0.4237 17.478005,-17.6269 23.585117,-42.2486 18.372005,-64.7702 -14.620292,8.1711 -33.4460313,6.0906 -45.934153,-6.2911 -12.488121,-12.3827 -14.73192,-31.1898 -6.685888,-45.8794"
         id="path38676"
         style="fill:#9f58d7;fill-opacity:1;stroke-width:0.264583" />
    </g>
  </g>
</svg>
