<?xml version="1.0" encoding="UTF-8" standalone="no"?>
<!-- Created with Inkscape (http://www.inkscape.org/) -->

<svg
   width="256"
   height="256"
   viewBox="0 0 67.733332 67.733333"
   version="1.1"
   id="svg31712"
   xmlns="http://www.w3.org/2000/svg"
   xmlns:svg="http://www.w3.org/2000/svg">
  <defs
     id="defs31709" />
  <g
     id="layer1">
    <g
       id="g26124"
       style="fill:#9f58d7;fill-opacity:1"
       transform="matrix(0.17471936,0,0,0.17801656,71.317709,-176.61242)">
      <path
         fill-rule="evenodd"
         fill="#1c3340"
         fill-opacity="1"
         d="M -324.67836,1141.8037 H -104.02 c 16.309072,0 29.65193,13.3449 29.65193,29.654 v 167.7489 c 0,16.3091 -13.342858,29.653 -29.65193,29.653 h -220.65836 c -16.30909,0 -29.65297,-13.3439 -29.65297,-29.653 v -167.7489 c 0,-16.3091 13.34388,-29.654 29.65297,-29.654 z m 128.41387,111.7007 v 37.7062 c 0,9.9456 -8.138,18.0826 -18.08366,18.0826 h -0.002 c -9.94668,0 -18.08262,-8.137 -18.08262,-18.0826 v -37.7042 c -6.77272,-5.3485 -11.12077,-13.6322 -11.12077,-22.9298 0,-16.1262 13.0762,-29.2024 29.20339,-29.2024 16.12822,0 29.20337,13.0762 29.20337,29.2024 0,9.2976 -4.34909,17.5793 -11.11766,22.9278"
         id="path26078"
         style="fill:#9f58d7;fill-opacity:1;stroke-width:0.264583" />
      <path
         fill-rule="evenodd"
         fill="#1c3340"
         fill-opacity="1"
         d="m -214.35021,995.85394 c 58.7282,0 106.77693,48.04566 106.77693,106.77486 v 75.7794 c 0,7.4693 -0.78031,14.7639 -2.25721,21.8126 h -41.08484 c 2.37093,-6.8471 3.6649,-14.1873 3.6649,-21.8126 v -75.7794 c 0,-36.9063 -30.19454,-67.0977 -67.09978,-67.0977 -36.90731,0 -67.09978,30.1914 -67.09978,67.0977 v 75.7794 c 0,7.6253 1.29191,14.9655 3.66386,21.8126 h -41.0838 c -1.47588,-7.0487 -2.25723,-14.3433 -2.25723,-21.8126 v -75.7794 c 0,-58.7292 48.04875,-106.77486 106.77695,-106.77486"
         id="path26080"
         style="fill:#9f58d7;fill-opacity:1;stroke-width:0.264583" />
    </g>
  </g>
</svg>
