<svg id="e0igCBATjIc1" xmlns="http://www.w3.org/2000/svg" xmlns:xlink="http://www.w3.org/1999/xlink" viewBox="0 0 256 256" shape-rendering="geometricPrecision" text-rendering="geometricPrecision">
<style><![CDATA[
#e0igCBATjIc58_to {animation: e0igCBATjIc58_to__to 3000ms linear infinite normal forwards}@keyframes e0igCBATjIc58_to__to { 0% {transform: translate(128.999px,68.62px)} 10% {transform: translate(131.430999px,82.586px)} 30% {transform: translate(128.999px,68.62px)} 100% {transform: translate(128.999px,68.62px)}} #e0igCBATjIc64_ts {animation: e0igCBATjIc64_ts__ts 3000ms linear infinite normal forwards}@keyframes e0igCBATjIc64_ts__ts { 0% {transform: translate(97.6535px,79.148858px) scale(1,1)} 30% {transform: translate(97.6535px,79.148858px) scale(1,1)} 50% {transform: translate(97.6535px,79.148858px) scale(1.390741,1.390741)} 80% {transform: translate(97.6535px,79.148858px) scale(1,1)} 100% {transform: translate(97.6535px,79.148858px) scale(1,1)}} #e0igCBATjIc65_ts {animation: e0igCBATjIc65_ts__ts 3000ms linear infinite normal forwards}@keyframes e0igCBATjIc65_ts__ts { 0% {transform: translate(129.195999px,79.316499px) scale(1,1)} 30% {transform: translate(129.195999px,79.316499px) scale(1,1)} 50% {transform: translate(129.195999px,79.316499px) scale(1.738415,1.738415)} 80% {transform: translate(129.195999px,79.316499px) scale(1,1)} 100% {transform: translate(129.195999px,79.316499px) scale(1,1)}} #e0igCBATjIc68_ts {animation: e0igCBATjIc68_ts__ts 3000ms linear infinite normal forwards}@keyframes e0igCBATjIc68_ts__ts { 0% {transform: translate(158.989502px,79.149358px) scale(1,1)} 30% {transform: translate(158.989502px,79.149358px) scale(1,1)} 50% {transform: translate(158.989502px,79.149358px) scale(1.390755,1.390755)} 80% {transform: translate(158.989502px,79.149358px) scale(1,1)} 100% {transform: translate(158.989502px,79.149358px) scale(1,1)}}
]]></style>
<path d="M16.5,143.245v58.774c0,9.447,7.658,17.105,17.105,17.105h188.789c9.447,0,17.105-7.658,17.105-17.105v-130.289c0-9.447-7.658-17.105-17.105-17.105h-188.789c-9.447,0-17.105,7.658-17.105,17.105v57.441v14.074Z" fill="#87796f"/><path d="M222.395,220.625h-188.79C23.346,220.625,15,212.279,15,202.02v-58.774c0-.829.671-1.5,1.5-1.5s1.5.671,1.5,1.5v58.774c0,8.605,7,15.605,15.605,15.605h188.789c8.605,0,15.605-7.001,15.605-15.605v-130.29c0-8.605-7.001-15.605-15.605-15.605h-188.789C25,56.125,18,63.125,18,71.73v57.441c0,.829-.671,1.5-1.5,1.5s-1.5-.671-1.5-1.5v-57.441c0-10.259,8.346-18.605,18.605-18.605h188.789c10.259,0,18.605,8.346,18.605,18.605v130.29c.001,10.259-8.345,18.605-18.604,18.605Z" fill="#3a312a"/><path d="M247.75,219.12c0,11.19-9.07,20.26-20.25,20.26h-199c-5.59,0-10.65-2.27-14.32-5.93-3.66-3.67-5.93-8.73-5.93-14.33h239.5Z" fill="#87796f"/><path d="M227.5,240.88h-199c-5.8,0-11.261-2.261-15.379-6.368-4.109-4.121-6.371-9.586-6.371-15.392c0-.829.671-1.5,1.5-1.5h239.5c.829,0,1.5.671,1.5,1.5c0,11.999-9.757,21.76-21.75,21.76ZM9.809,220.62c.35,4.442,2.248,8.576,5.434,11.771c3.548,3.539,8.258,5.489,13.258,5.489h199c9.834,0,17.924-7.615,18.69-17.26h-236.382Z" fill="#3a312a"/><path d="M86.201,67.125h-45.17c-6.583,0-11.92,5.337-11.92,11.92v115.66c0,6.583,5.337,11.92,11.92,11.92h173.938c6.583,0,11.92-5.337,11.92-11.92v-115.66c0-6.583-5.337-11.92-11.92-11.92h-115.17-13.598Z" fill="#d7e057"/><path d="M214.969,208.125h-173.938c-7.4,0-13.42-6.02-13.42-13.42v-115.66c0-7.4,6.02-13.42,13.42-13.42h173.938c7.4,0,13.42,6.02,13.42,13.42v115.66c0,7.4-6.02,13.42-13.42,13.42ZM41.031,68.625c-5.746,0-10.42,4.674-10.42,10.42v115.66c0,5.746,4.674,10.42,10.42,10.42h173.938c5.746,0,10.42-4.674,10.42-10.42v-115.66c0-5.746-4.674-10.42-10.42-10.42h-173.938Z" fill="#3a312a"/><path d="M145.5,219.12v6.446c0,2.173-1.761,3.934-3.934,3.934h-25.133c-2.173,0-3.934-1.761-3.934-3.934v-6.446h33.001Z" fill="#87796f"/><path d="M141.566,231h-25.133c-2.996,0-5.434-2.438-5.434-5.434v-6.446c0-.829.671-1.5,1.5-1.5h33c.829,0,1.5.671,1.5,1.5v6.446c.001,2.996-2.437,5.434-5.433,5.434ZM114,220.62v4.946c0,1.342,1.092,2.434,2.434,2.434h25.133c1.342,0,2.434-1.092,2.434-2.434v-4.946h-30.001Z" fill="#3a312a"/><g id="e0igCBATjIc58_to" transform="translate(128.999,68.62)"><g transform="translate(-128,-69.5)"><path d="M153.907,122h30.763c5.727,0,10.369-4.642,10.369-10.369v-84.262c0-5.726-4.642-10.369-10.369-10.369h-113.34c-5.727,0-10.369,4.642-10.369,10.369v84.262c0,5.727,4.642,10.369,10.369,10.369h69.763h12.814Z" transform="translate(0-.88)" fill="#fae6ca"/><path d="M184.669,123.5h-30.762c-.829,0-1.5-.671-1.5-1.5s.671-1.5,1.5-1.5h30.762c4.891,0,8.869-3.979,8.869-8.869v-84.262c0-4.89-3.979-8.869-8.869-8.869h-113.338c-4.891,0-8.869,3.979-8.869,8.869v84.262c0,4.891,3.979,8.869,8.869,8.869h69.762c.829,0,1.5.671,1.5,1.5s-.671,1.5-1.5,1.5h-69.762c-6.544,0-11.869-5.325-11.869-11.869v-84.262c0-6.545,5.325-11.869,11.869-11.869h113.339c6.544,0,11.869,5.324,11.869,11.869v84.262c0,6.544-5.325,11.869-11.87,11.869Z" fill="#3a312a"/><path d="M195.038,40v-12.631c0-5.727-4.642-10.369-10.369-10.369L71.33,17c-5.727,0-10.369,4.642-10.369,10.369v12.631h134.077Z" transform="translate(0-.88)" fill="#ef6d7a"/><path d="M195.039,41.5h-134.078c-.829,0-1.5-.671-1.5-1.5v-12.631c0-6.544,5.325-11.869,11.869-11.869h113.339c6.544,0,11.869,5.325,11.869,11.869v12.631c.001.829-.671,1.5-1.499,1.5Zm-132.578-3h131.077v-11.131c0-4.891-3.979-8.869-8.869-8.869h-113.338c-4.891,0-8.869,3.979-8.869,8.869v11.131h-.001Z" fill="#3a312a"/><path d="M109.546,93.007L85.764,83.141v-6.209l23.782-9.883v7.429L95.093,80.049l14.453,5.572v7.386Z" fill="#87796f"/><g id="e0igCBATjIc64_ts" transform="translate(97.6535,79.148858) scale(1,1)"><path d="M109.545,94.507c-.195,0-.39-.038-.575-.114L85.188,84.527c-.56-.232-.925-.779-.925-1.386v-6.208c0-.606.365-1.152.924-1.385l23.782-9.883c.462-.191.992-.141,1.408.138.417.278.667.746.667,1.247v7.429c0,.62-.382,1.177-.96,1.399L99.262,80.049l10.822,4.173c.579.223.96.779.96,1.399v7.385c0,.501-.25.969-.667,1.248-.249.167-.539.253-.832.253ZM87.264,82.14l20.782,8.621v-4.11L94.553,81.448c-.579-.223-.96-.779-.96-1.399s.382-1.177.96-1.399l13.493-5.2v-4.152L87.264,77.935v4.205Z" transform="translate(-97.6535,-80.028858)" fill="#3a312a"/></g><g id="e0igCBATjIc65_ts" transform="translate(129.195999,79.316499) scale(1,1)"><path d="M130.538,64.5h7.462L127.779,95.893h-7.387L130.538,64.5Z" transform="translate(-129.195999,-80.196499)" fill="#87796f"/></g><path d="M127.779,97.393h-7.387c-.48,0-.931-.229-1.213-.617s-.362-.888-.214-1.344l10.146-31.393c.2-.619.776-1.039,1.427-1.039h7.462c.48,0,.932.23,1.214.619s.361.889.212,1.346L129.205,96.358c-.201.617-.776,1.035-1.426,1.035Zm-5.325-3h4.236L135.934,66h-4.304l-9.176,28.393Z" fill="#3a312a"/><path d="M147.099,85.621l14.453-5.572-14.453-5.571v-7.429l23.782,9.883v6.209l-23.782,9.866v-7.386Z" fill="#87796f"/><g id="e0igCBATjIc68_ts" transform="translate(158.989502,79.149358) scale(1,1)"><path d="M147.099,94.507c-.293,0-.583-.085-.833-.252-.417-.278-.667-.747-.667-1.248v-7.385c0-.62.382-1.176.96-1.399l10.822-4.173-10.822-4.171c-.579-.223-.96-.779-.96-1.399v-7.429c0-.501.25-.969.667-1.247.417-.279.946-.329,1.408-.138l23.782,9.883c.56.233.924.779.924,1.385v6.208c0,.606-.365,1.153-.925,1.386l-23.782,9.866c-.184.075-.379.113-.574.113Zm1.5-7.856v4.11l20.782-8.621v-4.206l-20.782-8.637v4.152l13.493,5.2c.579.223.96.779.96,1.399s-.382,1.176-.96,1.399l-13.493,5.204Z" transform="translate(-158.989502,-80.029358)" fill="#3a312a"/></g><circle r="4.2" transform="translate(75.2 28)" fill="#87796f"/><path d="M75.2,33.7c-3.143,0-5.7-2.557-5.7-5.7s2.557-5.7,5.7-5.7s5.7,2.557,5.7,5.7-2.557,5.7-5.7,5.7Zm0-8.4c-1.489,0-2.7,1.211-2.7,2.7s1.211,2.7,2.7,2.7s2.7-1.211,2.7-2.7-1.211-2.7-2.7-2.7Z" fill="#3a312a"/><circle r="4.2" transform="translate(92 28)" fill="#d7e057"/><path d="M92,33.7c-3.143,0-5.7-2.557-5.7-5.7s2.557-5.7,5.7-5.7s5.7,2.557,5.7,5.7-2.557,5.7-5.7,5.7Zm0-8.4c-1.489,0-2.7,1.211-2.7,2.7s1.211,2.7,2.7,2.7s2.7-1.211,2.7-2.7-1.211-2.7-2.7-2.7Z" fill="#3a312a"/><circle r="4.2" transform="translate(108.8 28)" fill="#8ac6dd"/><path d="M108.8,33.7c-3.143,0-5.7-2.557-5.7-5.7s2.557-5.7,5.7-5.7s5.7,2.557,5.7,5.7-2.557,5.7-5.7,5.7Zm0-8.4c-1.489,0-2.7,1.211-2.7,2.7s1.211,2.7,2.7,2.7s2.7-1.211,2.7-2.7-1.211-2.7-2.7-2.7Z" fill="#3a312a"/></g></g><path d="M204,138.086h-152c-.829,0-1.5-.671-1.5-1.5s.671-1.5,1.5-1.5h152c.829,0,1.5.671,1.5,1.5s-.671,1.5-1.5,1.5Z" fill="#3a312a"/><path d="M204,155.452h-152c-.829,0-1.5-.671-1.5-1.5s.671-1.5,1.5-1.5h152c.829,0,1.5.671,1.5,1.5c0,.828-.671,1.5-1.5,1.5Z" fill="#3a312a"/><path d="M204,172.817h-152c-.829,0-1.5-.671-1.5-1.5s.671-1.5,1.5-1.5h152c.829,0,1.5.671,1.5,1.5s-.671,1.5-1.5,1.5Z" fill="#3a312a"/><path d="M204,190.183h-152c-.829,0-1.5-.671-1.5-1.5s.671-1.5,1.5-1.5h152c.829,0,1.5.671,1.5,1.5s-.671,1.5-1.5,1.5Z" fill="#3a312a"/><path d="M214.97,68.62h-15c5.74,0,10.42,4.68,10.42,10.42v115.67c0,5.74-4.68,10.41-10.42,10.41h15c5.74,0,10.42-4.67,10.42-10.41v-115.67c0-5.74-4.68-10.42-10.42-10.42Z" fill="#b9c239"/></svg>
