<?xml version="1.0" encoding="utf-8"?>
<!-- Generator: Adobe Illustrator 22.0.1, SVG Export Plug-In . SVG Version: 6.00 Build 0)  -->
<svg version="1.1" id="Layer_3" xmlns="http://www.w3.org/2000/svg" xmlns:xlink="http://www.w3.org/1999/xlink" x="0px" y="0px"
	 viewBox="0 0 64 64" style="enable-background:new 0 0 64 64;" xml:space="preserve">
<style type="text/css">
	.st0{fill:#FAF5F5;}
	.st1{fill:#63312D;}
	.st2{fill:#F9A287;}
	.st3{fill:#FCB7A4;}
	.st4{fill:#DB785A;}
	.st5{fill:#E0E0E0;}
	.st6{fill:#84DBFF;}
	.st7{fill:#EFC36A;}
	.st8{fill:#F9DD9D;}
	.st9{fill:#EEC26A;}
	.st10{fill:#A9EBFF;}
	.st11{fill:#52BADB;}
	.st12{fill:#FFFFFF;}
	.st13{fill:#F0EEEE;}
	.st14{fill:#BDBDBD;}
	.st15{fill:#E3DFDF;}
	.st16{fill:#FFE8BB;}
	.st17{fill:#FFF2D2;}
	.st18{fill:#D8C18F;}
	.st19{fill:#EAD194;}
	.st20{fill:#BFA064;}
	.st21{fill:#CCCCCC;}
	.st22{fill:#C5F1FF;}
	.st23{fill:#D3A553;}
	.st24{fill:#67C7E5;}
</style>
<g>
	<path class="st8" d="M46.329,12.876c-5.428,0.251-9.876,4.749-10.072,10.179c-0.114,3.154,1.156,6.01,3.248,8.017
		c1.566,1.502,2.483,3.554,2.483,5.723v0.434h9.689v-0.431c0-2.192,0.955-4.243,2.528-5.769c1.979-1.921,3.21-4.606,3.21-7.582
		C57.414,17.435,52.402,12.595,46.329,12.876z"/>
	<path class="st16" d="M41.223,31.072c-2.092-2.007-3.362-4.863-3.248-8.017c0.192-5.313,4.456-9.722,9.724-10.146
		c-0.45-0.037-0.906-0.055-1.37-0.033c-5.428,0.251-9.876,4.749-10.072,10.179c-0.114,3.154,1.156,6.01,3.248,8.017
		c1.566,1.502,2.483,3.554,2.483,5.723v0.434h1.718v-0.434C43.706,34.626,42.789,32.574,41.223,31.072z"/>
	<path class="st1" d="M51.677,37.729h-9.689c-0.276,0-0.5-0.224-0.5-0.5v-0.434c0-1.988-0.849-3.943-2.328-5.361
		c-2.275-2.184-3.516-5.243-3.402-8.396c0.207-5.714,4.841-10.396,10.549-10.66l0,0c3.078-0.156,5.967,0.941,8.179,3.053
		c2.212,2.112,3.43,4.959,3.43,8.017c0,3.017-1.194,5.837-3.361,7.94c-1.532,1.487-2.376,3.409-2.376,5.411v0.431
		C52.177,37.505,51.953,37.729,51.677,37.729z M42.487,36.729h8.689c0.02-2.249,0.969-4.398,2.679-6.059
		c1.973-1.914,3.059-4.479,3.059-7.224c0-2.782-1.108-5.372-3.121-7.293c-2.011-1.92-4.653-2.897-7.44-2.778l0,0
		c-5.193,0.24-9.408,4.5-9.596,9.697c-0.104,2.869,1.024,5.653,3.094,7.64C41.51,32.302,42.469,34.493,42.487,36.729z"/>
	<path class="st6" d="M41.139,37.23v4.303c0,1.271,1.03,2.301,2.301,2.301h6.784c1.271,0,2.301-1.03,2.301-2.301V37.23H41.139z"/>
	<path class="st10" d="M42.764,43.167v-4.303h9.76V37.23H41.139v4.303c0,1.064,0.727,1.951,1.708,2.214
		C42.799,43.561,42.764,43.368,42.764,43.167z"/>
	<path class="st1" d="M50.224,44.334H43.44c-1.544,0-2.801-1.257-2.801-2.801V37.23c0-0.276,0.224-0.5,0.5-0.5h11.385
		c0.276,0,0.5,0.224,0.5,0.5v4.304C53.024,43.078,51.768,44.334,50.224,44.334z M41.64,37.73v3.804c0,0.993,0.808,1.801,1.801,1.801
		h6.783c0.993,0,1.801-0.808,1.801-1.801V37.73H41.64z"/>
	<rect x="44.861" y="43.834" class="st8" width="4.518" height="2.902"/>
	<rect x="44.861" y="43.834" class="st7" width="4.518" height="0.989"/>
	<path class="st1" d="M49.379,47.237h-4.518c-0.276,0-0.5-0.224-0.5-0.5v-2.902c0-0.276,0.224-0.5,0.5-0.5h4.518
		c0.276,0,0.5,0.224,0.5,0.5v2.902C49.879,47.013,49.655,47.237,49.379,47.237z M45.361,46.237h3.518v-1.902h-3.518V46.237z"/>
	<rect x="49.379" y="43.834" class="st7" width="2.259" height="2.902"/>
	<rect x="49.379" y="43.834" class="st23" width="2.259" height="0.989"/>
	<path class="st1" d="M51.638,47.237h-2.259c-0.276,0-0.5-0.224-0.5-0.5v-2.902c0-0.276,0.224-0.5,0.5-0.5h2.259
		c0.276,0,0.5,0.224,0.5,0.5v2.902C52.138,47.013,51.914,47.237,51.638,47.237z M49.879,46.237h1.259v-1.902h-1.259V46.237z"/>
	<path class="st7" d="M49.831,12.876h-3.005l0,0.003c5.846-0.002,10.589,4.722,10.589,10.568c0,2.976-1.231,5.662-3.21,7.582
		c-1.573,1.527-2.528,3.578-2.528,5.769v0.431h3.502v-0.431c0-2.192,0.955-4.243,2.528-5.769c1.979-1.921,3.21-4.606,3.21-7.582
		C60.917,17.435,55.904,12.595,49.831,12.876z"/>
	<path class="st1" d="M55.179,37.729h-3.502c-0.276,0-0.5-0.224-0.5-0.5v-0.431c0-2.274,0.951-4.451,2.679-6.128
		c1.973-1.914,3.059-4.479,3.059-7.224c0-2.692-1.05-5.222-2.955-7.123c-1.904-1.899-4.438-2.945-7.132-2.945
		c-0.138,0.033-0.335-0.089-0.428-0.237c-0.091-0.147-0.099-0.331-0.021-0.486c0.085-0.169,0.259-0.278,0.448-0.278h2.993
		c3.074-0.139,5.959,0.945,8.168,3.054c2.212,2.112,3.43,4.959,3.43,8.017c0,3.016-1.194,5.836-3.361,7.94
		c-1.533,1.487-2.377,3.409-2.377,5.411v0.431C55.679,37.505,55.455,37.729,55.179,37.729z M52.177,36.729h2.502
		c0.02-2.25,0.97-4.399,2.68-6.059c1.973-1.915,3.059-4.48,3.059-7.224c0-2.781-1.108-5.371-3.121-7.293
		c-1.59-1.519-3.576-2.453-5.715-2.714c1.131,0.536,2.173,1.267,3.084,2.176c2.096,2.09,3.249,4.871,3.249,7.831
		c0,3.017-1.194,5.837-3.361,7.94C53.038,32.858,52.196,34.752,52.177,36.729z"/>
	<path class="st11" d="M52.525,37.23v4.303c0,1.271-1.03,2.301-2.301,2.301h3.329c1.346,0,2.436-1.091,2.436-2.436V37.23H52.525z"/>
	<path class="st1" d="M53.553,44.334h-3.329c-0.276,0-0.5-0.224-0.5-0.5s0.224-0.5,0.5-0.5c0.993,0,1.801-0.808,1.801-1.801V37.23
		c0-0.276,0.224-0.5,0.5-0.5h3.465c0.276,0,0.5,0.224,0.5,0.5v4.168C56.489,43.017,55.172,44.334,53.553,44.334z M52.367,43.334
		h1.186c1.067,0,1.937-0.869,1.937-1.937V37.73h-2.465v3.804C53.024,42.219,52.777,42.847,52.367,43.334z"/>
	<circle class="st6" cx="6.801" cy="20.061" r="3.717"/>
	<circle class="st6" cx="6.801" cy="31.399" r="3.717"/>
	<circle class="st6" cx="6.801" cy="42.737" r="3.717"/>
	<path class="st1" d="M6.801,24.278c-2.326,0-4.218-1.892-4.218-4.217c0-2.326,1.892-4.218,4.218-4.218
		c2.325,0,4.217,1.892,4.217,4.218C11.018,22.386,9.126,24.278,6.801,24.278z M6.801,16.843c-1.774,0-3.218,1.443-3.218,3.218
		c0,1.773,1.443,3.217,3.218,3.217c1.773,0,3.217-1.443,3.217-3.217C10.018,18.287,8.574,16.843,6.801,16.843z"/>
	<path class="st1" d="M6.801,35.616c-2.326,0-4.218-1.892-4.218-4.217c0-2.326,1.892-4.218,4.218-4.218
		c2.325,0,4.217,1.892,4.217,4.218C11.018,33.724,9.126,35.616,6.801,35.616z M6.801,28.181c-1.774,0-3.218,1.443-3.218,3.218
		c0,1.773,1.443,3.217,3.218,3.217c1.773,0,3.217-1.443,3.217-3.217C10.018,29.625,8.574,28.181,6.801,28.181z"/>
	<path class="st1" d="M6.801,46.955c-2.326,0-4.218-1.892-4.218-4.218c0-2.325,1.892-4.217,4.218-4.217
		c2.325,0,4.217,1.892,4.217,4.217C11.018,45.063,9.126,46.955,6.801,46.955z M6.801,39.52c-1.774,0-3.218,1.443-3.218,3.217
		c0,1.774,1.443,3.218,3.218,3.218c1.773,0,3.217-1.443,3.217-3.218C10.018,40.963,8.574,39.52,6.801,39.52z"/>
	<circle class="st2" cx="18.519" cy="20.061" r="3.717"/>
	<circle class="st2" cx="18.519" cy="31.399" r="3.717"/>
	<circle class="st2" cx="18.519" cy="42.737" r="3.717"/>
	<path class="st1" d="M18.519,24.278c-2.325,0-4.217-1.892-4.217-4.217c0-2.326,1.892-4.218,4.217-4.218
		c2.326,0,4.218,1.892,4.218,4.218C22.736,22.386,20.845,24.278,18.519,24.278z M18.519,16.843c-1.773,0-3.217,1.443-3.217,3.218
		c0,1.773,1.443,3.217,3.217,3.217c1.774,0,3.218-1.443,3.218-3.217C21.736,18.287,20.293,16.843,18.519,16.843z"/>
	<path class="st1" d="M18.519,35.616c-2.325,0-4.217-1.892-4.217-4.217c0-2.326,1.892-4.218,4.217-4.218
		c2.326,0,4.218,1.892,4.218,4.218C22.736,33.724,20.845,35.616,18.519,35.616z M18.519,28.181c-1.773,0-3.217,1.443-3.217,3.218
		c0,1.773,1.443,3.217,3.217,3.217c1.774,0,3.218-1.443,3.218-3.217C21.736,29.625,20.293,28.181,18.519,28.181z"/>
	<path class="st1" d="M18.519,46.955c-2.325,0-4.217-1.892-4.217-4.218c0-2.325,1.892-4.217,4.217-4.217
		c2.326,0,4.218,1.892,4.218,4.217C22.736,45.063,20.845,46.955,18.519,46.955z M18.519,39.52c-1.773,0-3.217,1.443-3.217,3.217
		c0,1.774,1.443,3.218,3.217,3.218c1.774,0,3.218-1.443,3.218-3.218C21.736,40.963,20.293,39.52,18.519,39.52z"/>
	<rect x="10.518" y="19.561" class="st1" width="4.284" height="1"/>
	<rect x="10.518" y="30.899" class="st1" width="4.284" height="1"/>
	<rect x="10.518" y="42.237" class="st1" width="4.284" height="1"/>
	
		<rect x="12.16" y="21.291" transform="matrix(0.6992 -0.7149 0.7149 0.6992 -14.5859 16.7904)" class="st1" width="1" height="8.876"/>
	
		<rect x="8.222" y="25.229" transform="matrix(0.7149 -0.6993 0.6993 0.7149 -14.381 16.1884)" class="st1" width="8.876" height="1"/>
	<rect x="12.16" y="32.63" transform="matrix(0.6991 -0.715 0.715 0.6991 -22.694 20.2041)" class="st1" width="1" height="8.875"/>
	
		<rect x="8.223" y="36.568" transform="matrix(0.7149 -0.6993 0.6993 0.7149 -22.31 19.4215)" class="st1" width="8.875" height="1"/>
	<path class="st1" d="M45.125,51.637H32c-1.93,0-3.5-1.57-3.5-3.5V23.061c0-1.379-1.121-2.5-2.5-2.5h-3.764v-1H26
		c1.93,0,3.5,1.57,3.5,3.5v25.076c0,1.379,1.121,2.5,2.5,2.5h13.125c1.379,0,2.5-1.121,2.5-2.5v-1.4h1v1.4
		C48.625,50.067,47.055,51.637,45.125,51.637z"/>
	<rect x="22.236" y="30.899" class="st1" width="6.764" height="1"/>
	<rect x="22.236" y="42.237" class="st1" width="6.764" height="1"/>
	<path class="st1" d="M48.405,37.23h-1v-8.118c0-0.142,0.06-0.275,0.164-0.371l2.209-2l0.672,0.742l-2.045,1.851V37.23z"/>
	<path class="st1" d="M46.246,37.23h-1v-7.896l-2.045-1.851l0.672-0.742l2.209,2c0.104,0.096,0.164,0.229,0.164,0.371V37.23z"/>
	<rect x="30.708" y="27.112" class="st1" width="1" height="5.583"/>
	<rect x="30.708" y="33.924" class="st1" width="1" height="1.96"/>
</g>
</svg>
