<?xml version="1.0" encoding="utf-8"?>
<!-- Generator: Adobe Illustrator 22.0.0, SVG Export Plug-In . SVG Version: 6.00 Build 0)  -->
<svg version="1.1" xmlns="http://www.w3.org/2000/svg" xmlns:xlink="http://www.w3.org/1999/xlink" x="0px" y="0px"
	 viewBox="0 0 256 256" style="enable-background:new 0 0 256 256;" xml:space="preserve">
<style type="text/css">
	.st0{display:none;}
	.st1{display:inline;}
	.st2{fill:none;stroke:#6B1D1D;stroke-width:0.5;stroke-miterlimit:10;}
	.st3{fill:#3A312A;}
	.st4{fill:#87796F;}
	.st5{fill:#D5DE58;}
	.st6{fill:#695B51;}
	.st7{fill:#FCE8CB;}
	.st8{fill:#F16C7A;}
	.st9{fill:#8AC6DD;}
	.st10{fill:#DECAAD;}
	.st11{fill:#D6DF58;}
	.st12{fill-rule:evenodd;clip-rule:evenodd;fill:#FCE8CB;}
	.st13{fill:#F5978A;}
	.st14{fill:#D7E057;}
	.st15{fill-rule:evenodd;clip-rule:evenodd;fill:#87796F;}
	.st16{fill:#6CA8BF;}
	.st17{fill:#B9C239;}
	.st18{fill:#D34E5C;}
	.st19{fill:#FAE6CA;}
	.st20{fill:#F8E4C8;}
	.st21{fill:#8AC5DC;}
	.st22{fill:#EF6D7A;}
	.st23{fill:#EB6E7A;}
	.st24{fill:#89C4DB;}
	.st25{fill-rule:evenodd;clip-rule:evenodd;fill:#F16C7A;}
	.st26{fill:#F7E3C7;}
	.st27{fill:#F6E2C6;}
	.st28{fill:#ED6E7A;}
	.st29{fill:#8AC3DA;}
	.st30{fill:#D5DC57;}
	.st31{fill-rule:evenodd;clip-rule:evenodd;fill:#D7E057;}
	.st32{fill-rule:evenodd;clip-rule:evenodd;fill:#F8E4C8;}
	.st33{fill:#D4DB56;}
	.st34{fill:#F59689;}
	.st35{fill:#DDC9AC;}
	.st36{fill:#D24E5C;}
	.st37{fill:#6A5C52;}
	.st38{fill:#6CA6BE;}
	.st39{fill:#B8C136;}
	.st40{fill-rule:evenodd;clip-rule:evenodd;fill:#FAE6CA;}
</style>
<g id="Layer_2" class="st0">
	<g class="st1">
		<g>
			<line class="st2" x1="0" y1="4.829" x2="256" y2="4.829"/>
			<line class="st2" x1="0" y1="16.56" x2="256" y2="16.56"/>
			<line class="st2" x1="0" y1="28.29" x2="256" y2="28.29"/>
			<line class="st2" x1="0" y1="40.021" x2="256" y2="40.021"/>
			<line class="st2" x1="0" y1="51.751" x2="256" y2="51.751"/>
			<line class="st2" x1="0" y1="63.482" x2="256" y2="63.482"/>
			<line class="st2" x1="0" y1="75.213" x2="256" y2="75.213"/>
			<line class="st2" x1="0" y1="86.943" x2="256" y2="86.943"/>
			<line class="st2" x1="0" y1="98.674" x2="256" y2="98.674"/>
			<line class="st2" x1="0" y1="110.404" x2="256" y2="110.404"/>
			<line class="st2" x1="0" y1="122.135" x2="256" y2="122.135"/>
			<line class="st2" x1="0" y1="133.865" x2="256" y2="133.865"/>
			<line class="st2" x1="0" y1="145.596" x2="256" y2="145.596"/>
			<line class="st2" x1="0" y1="157.326" x2="256" y2="157.326"/>
			<line class="st2" x1="0" y1="169.057" x2="256" y2="169.057"/>
			<line class="st2" x1="0" y1="180.788" x2="256" y2="180.788"/>
			<line class="st2" x1="0" y1="192.518" x2="256" y2="192.518"/>
			<line class="st2" x1="0" y1="204.249" x2="256" y2="204.249"/>
			<line class="st2" x1="0" y1="215.979" x2="256" y2="215.979"/>
			<line class="st2" x1="0" y1="227.71" x2="256" y2="227.71"/>
			<line class="st2" x1="0" y1="239.44" x2="256" y2="239.44"/>
			<line class="st2" x1="0" y1="251.171" x2="256" y2="251.171"/>
		</g>
		<g>
			<line class="st2" x1="251.171" y1="0" x2="251.171" y2="256"/>
			<line class="st2" x1="239.44" y1="0" x2="239.44" y2="256"/>
			<line class="st2" x1="227.71" y1="0" x2="227.71" y2="256"/>
			<line class="st2" x1="215.979" y1="0" x2="215.979" y2="256"/>
			<line class="st2" x1="204.249" y1="0" x2="204.249" y2="256"/>
			<line class="st2" x1="192.518" y1="0" x2="192.518" y2="256"/>
			<line class="st2" x1="180.787" y1="0" x2="180.787" y2="256"/>
			<line class="st2" x1="169.057" y1="0" x2="169.057" y2="256"/>
			<line class="st2" x1="157.326" y1="0" x2="157.326" y2="256"/>
			<line class="st2" x1="145.596" y1="0" x2="145.596" y2="256"/>
			<line class="st2" x1="133.865" y1="0" x2="133.865" y2="256"/>
			<line class="st2" x1="122.135" y1="0" x2="122.135" y2="256"/>
			<line class="st2" x1="110.404" y1="0" x2="110.404" y2="256"/>
			<line class="st2" x1="98.674" y1="0" x2="98.674" y2="256"/>
			<line class="st2" x1="86.943" y1="0" x2="86.943" y2="256"/>
			<line class="st2" x1="75.212" y1="0" x2="75.212" y2="256"/>
			<line class="st2" x1="63.482" y1="0" x2="63.482" y2="256"/>
			<line class="st2" x1="51.751" y1="0" x2="51.751" y2="256"/>
			<line class="st2" x1="40.021" y1="0" x2="40.021" y2="256"/>
			<line class="st2" x1="28.29" y1="0" x2="28.29" y2="256"/>
			<line class="st2" x1="16.56" y1="0" x2="16.56" y2="256"/>
			<line class="st2" x1="4.829" y1="0" x2="4.829" y2="256"/>
		</g>
	</g>
</g>
<g id="Layer_1">
	<g>
		<path class="st4" d="M222.394,180.635H33.605c-9.447,0-17.105-7.658-17.105-17.105V33.241c0-9.447,7.658-17.106,17.105-17.106
			h188.789c9.447,0,17.106,7.659,17.106,17.106V163.53C239.5,172.977,231.842,180.635,222.394,180.635z"/>
		<path class="st3" d="M222.394,182.136H33.605C23.346,182.136,15,173.789,15,163.53V33.241c0-10.259,8.346-18.605,18.605-18.605
			h188.789c10.259,0,18.606,8.346,18.606,18.605v130.29C241,173.789,232.653,182.136,222.394,182.136z M33.605,17.635
			C25,17.635,18,24.636,18,33.241v130.29c0,8.604,7,15.605,15.605,15.605h188.789c8.605,0,15.606-7.001,15.606-15.605V33.241
			c0-8.605-7.001-15.605-15.606-15.605H33.605z"/>
		<path class="st14" d="M86.201,28.635h-45.17c-6.583,0-11.92,5.337-11.92,11.92v115.66c0,6.583,5.337,11.92,11.92,11.92h173.938
			c6.583,0,11.92-5.337,11.92-11.92V40.555c0-6.583-5.337-11.92-11.92-11.92H99.799H86.201z"/>
		<path class="st3" d="M214.969,169.636H41.031c-7.4,0-13.42-6.02-13.42-13.42V40.555c0-7.4,6.02-13.42,13.42-13.42h45.17
			c0.829,0,1.5,0.671,1.5,1.5c0,0.829-0.671,1.5-1.5,1.5h-45.17c-5.746,0-10.42,4.674-10.42,10.42v115.661
			c0,5.745,4.674,10.42,10.42,10.42h173.938c5.745,0,10.42-4.675,10.42-10.42V40.555c0-5.746-4.675-10.42-10.42-10.42H99.798
			c-0.829,0-1.5-0.671-1.5-1.5c0-0.829,0.671-1.5,1.5-1.5h115.17c7.399,0,13.42,6.02,13.42,13.42v115.661
			C228.389,163.615,222.368,169.636,214.969,169.636z"/>
		<rect x="113.687" y="180.635" class="st4" width="28.625" height="35.593"/>
		<path class="st3" d="M142.312,217.729h-28.625c-0.829,0-1.5-0.672-1.5-1.5v-35.593c0-0.828,0.671-1.5,1.5-1.5h28.625
			c0.828,0,1.5,0.672,1.5,1.5v35.593C143.812,217.057,143.141,217.729,142.312,217.729z M115.187,214.729h25.625v-32.593h-25.625
			V214.729z"/>
		<path class="st4" d="M135.451,239.635h36.252c0-12.927-10.479-23.407-23.407-23.407h-40.593c-12.927,0-23.407,10.48-23.407,23.407
			h37.584H135.451z"/>
		<path class="st3" d="M171.703,241.136h-36.252c-0.828,0-1.5-0.672-1.5-1.5c0-0.828,0.672-1.5,1.5-1.5h34.701
			c-0.773-11.383-10.281-20.407-21.856-20.407h-40.592c-11.575,0-21.082,9.024-21.856,20.407h36.034c0.829,0,1.5,0.672,1.5,1.5
			c0,0.828-0.671,1.5-1.5,1.5H84.297c-0.829,0-1.5-0.672-1.5-1.5c0-13.734,11.173-24.907,24.907-24.907h40.592
			c13.734,0,24.907,11.173,24.907,24.907C173.203,240.464,172.531,241.136,171.703,241.136z"/>
		<path class="st14" d="M47.671,203.469c0,0,3.408,12.659,13.222,13.247c0,0-13.1,4.525-13.321,14.202
			c0,0-2.579-13.572-12.925-14.059C34.647,216.859,46.697,215.033,47.671,203.469z"/>
		<path class="st3" d="M47.57,232.417c-0.712,0-1.335-0.506-1.472-1.217c-0.024-0.125-2.495-12.418-11.523-12.844
			c-0.77-0.036-1.387-0.65-1.427-1.421c-0.039-0.77,0.511-1.444,1.274-1.561c0.441-0.068,10.894-1.816,11.755-12.031
			c0.061-0.726,0.634-1.301,1.359-1.367c0.719-0.062,1.393,0.398,1.583,1.102c0.032,0.116,3.259,11.626,11.863,12.141
			c0.714,0.042,1.298,0.583,1.396,1.292c0.098,0.708-0.319,1.388-0.994,1.622c-0.121,0.042-12.118,4.311-12.313,12.819
			c-0.018,0.767-0.61,1.396-1.375,1.46C47.655,232.415,47.612,232.417,47.57,232.417z M39.83,216.688
			c3.878,1.969,6.23,5.746,7.587,8.877c2.026-4.021,5.942-6.787,8.949-8.427c-4.135-1.843-6.783-5.651-8.334-8.723
			C46.239,212.774,42.76,215.283,39.83,216.688z"/>
		<path class="st14" d="M25.972,220.45c0,0,2.411,8.954,9.352,9.369c0,0-9.266,3.201-9.422,10.046c0,0-1.824-9.6-9.142-9.944
			C16.76,229.921,25.284,228.629,25.972,220.45z"/>
		<path class="st3" d="M25.9,241.364c-0.713,0-1.337-0.508-1.472-1.22c-0.016-0.082-1.704-8.441-7.739-8.726
			c-0.771-0.036-1.388-0.65-1.428-1.421c-0.04-0.77,0.511-1.444,1.273-1.561c0.296-0.047,7.364-1.243,7.942-8.113
			c0.061-0.726,0.635-1.303,1.36-1.368c0.726-0.064,1.392,0.399,1.582,1.102l0,0c0.021,0.079,2.228,7.92,7.994,8.265
			c0.714,0.042,1.299,0.584,1.396,1.293c0.098,0.709-0.319,1.388-0.996,1.622c-0.081,0.028-8.282,2.953-8.413,8.661
			c-0.018,0.768-0.611,1.397-1.376,1.461C25.983,241.362,25.942,241.364,25.9,241.364z M21.382,229.837
			c2.107,1.333,3.523,3.395,4.447,5.28c1.376-2.232,3.515-3.872,5.365-4.973c-2.287-1.268-3.884-3.35-4.941-5.224
			C25.079,227.208,23.238,228.796,21.382,229.837z"/>
		<path class="st14" d="M25.972,193.792c0,0,2.411,8.954,9.352,9.37c0,0-9.266,3.201-9.422,10.046c0,0-1.824-9.6-9.142-9.944
			C16.76,203.263,25.284,201.972,25.972,193.792z"/>
		<path class="st3" d="M25.9,214.707c-0.713,0-1.337-0.508-1.472-1.22c-0.016-0.082-1.704-8.442-7.739-8.727
			c-0.77-0.036-1.387-0.65-1.427-1.421c-0.039-0.77,0.511-1.444,1.273-1.561c0.296-0.047,7.364-1.242,7.942-8.113
			c0.061-0.726,0.635-1.303,1.36-1.368c0.726-0.064,1.392,0.399,1.582,1.102l0,0c0.021,0.079,2.228,7.921,7.994,8.266
			c0.715,0.042,1.299,0.584,1.396,1.293c0.098,0.709-0.32,1.389-0.996,1.622c-0.081,0.028-8.282,2.952-8.413,8.661
			c-0.018,0.768-0.611,1.398-1.376,1.461C25.983,214.705,25.942,214.707,25.9,214.707z M21.382,203.18
			c2.106,1.332,3.523,3.395,4.447,5.279c1.376-2.232,3.515-3.871,5.365-4.972c-2.287-1.27-3.884-3.351-4.941-5.224
			C25.079,200.55,23.238,202.139,21.382,203.18z"/>
		<path class="st12" d="M65.311,106.705c0,4.325-3.506,7.832-7.832,7.832c-4.326,0-7.832-3.506-7.832-7.832
			c0-4.326,3.506-7.832,7.832-7.832C61.805,98.872,65.311,102.379,65.311,106.705z"/>
		<path class="st3" d="M57.479,116.037c-5.146,0-9.332-4.187-9.332-9.332s4.186-9.332,9.332-9.332c5.145,0,9.332,4.187,9.332,9.332
			S62.624,116.037,57.479,116.037z M57.479,100.373c-3.492,0-6.332,2.84-6.332,6.332s2.84,6.332,6.332,6.332
			c3.492,0,6.332-2.84,6.332-6.332S60.971,100.373,57.479,100.373z"/>
		<path class="st7" d="M126.378,102.903c0,19.175-18.467,48.608-34.72,48.608c-15.514,0-34.72-29.433-34.72-48.608
			s15.545-34.72,34.72-34.72C110.834,68.183,126.378,83.728,126.378,102.903z"/>
		<path class="st3" d="M91.659,153.011c-7.714,0-16.612-6.474-24.412-17.761c-7.284-10.54-11.808-22.935-11.808-32.347
			c0-19.972,16.248-36.22,36.22-36.22s36.22,16.249,36.22,36.22C127.878,123.143,108.799,153.011,91.659,153.011z M91.659,69.683
			c-18.317,0-33.22,14.902-33.22,33.22c0,17.9,18.559,47.108,33.22,47.108c6.887,0,15.191-6.152,22.215-16.458
			c6.788-9.96,11.005-21.704,11.005-30.65C124.878,84.585,109.976,69.683,91.659,69.683z"/>
		<path class="st3" d="M82.789,102.511c0,1.872-1.517,3.389-3.389,3.389c-1.872,0-3.389-1.517-3.389-3.389
			c0-1.871,1.517-3.389,3.389-3.389C81.272,99.122,82.789,100.639,82.789,102.511z"/>
		<path class="st3" d="M107.306,102.511c0,1.872-1.517,3.389-3.389,3.389c-1.872,0-3.389-1.517-3.389-3.389
			c0-1.871,1.517-3.389,3.389-3.389C105.788,99.122,107.306,100.639,107.306,102.511z"/>
		<path class="st13" d="M78.465,112.586c0,2.41-2.614,4.364-5.838,4.364s-5.838-1.954-5.838-4.364s2.614-4.364,5.838-4.364
			S78.465,110.175,78.465,112.586z"/>
		<path class="st13" d="M116.527,112.586c0,2.41-2.614,4.364-5.838,4.364s-5.838-1.954-5.838-4.364s2.614-4.364,5.838-4.364
			S116.527,110.175,116.527,112.586z"/>
		<path class="st4" d="M92.059,60.52c-19.847,0-35.936,15.382-35.936,34.358c0,2.008,0.363,3.504,1.038,5.374
			c0.318,0.882,5.464-1.933,5.902-2.242c2.191-1.543,3.982-3.633,5.32-5.945c0.553-0.961,1.015-1.939,1.386-2.918
			c1.184-3.121,4.403-11.806,7.671-11.124c4.382,0.913,9.349,1.43,14.618,1.43c5.269,0,10.236-0.516,14.619-1.43
			c3.268-0.681,6.486,8.003,7.671,11.124c0.371,0.978,0.833,1.956,1.386,2.918c2.21,3.824,5.945,7.464,10.487,8.127
			c0.011-0.22,0.288-0.294,0.495-0.369c1.487-0.54,1.278-3.753,1.278-4.945C127.996,75.902,111.906,60.52,92.059,60.52z"/>
		<path class="st3" d="M57.437,101.902c-0.207,0-0.396-0.023-0.56-0.075c-0.532-0.167-0.942-0.556-1.126-1.065
			c-0.677-1.875-1.128-3.592-1.128-5.884c0-19.772,16.794-35.858,37.436-35.858c20.643,0,37.436,16.085,37.436,35.857l0.005,0.38
			c0.025,1.761,0.073,5.013-2.157,5.931c-0.052,0.058-0.108,0.113-0.169,0.163c-0.326,0.268-0.749,0.384-1.168,0.325
			c-4.408-0.643-8.733-3.955-11.569-8.86c-0.585-1.016-1.085-2.07-1.49-3.137l-0.075-0.197c-3.753-9.902-5.562-10.057-5.887-9.99
			c-4.654,0.97-9.676,1.461-14.925,1.461c-5.249,0-10.271-0.492-14.924-1.461c-0.33-0.065-2.14,0.099-5.889,9.994l-0.074,0.194
			c-0.406,1.068-0.906,2.122-1.489,3.134c-1.516,2.619-3.506,4.838-5.756,6.423C63.885,99.267,59.623,101.902,57.437,101.902z
			 M127.08,101.286L127.08,101.286L127.08,101.286z M92.059,62.02c-18.988,0-34.436,14.74-34.436,32.858
			c0,1.476,0.217,2.615,0.604,3.848c1.257-0.463,3.462-1.604,3.986-1.95c1.885-1.328,3.574-3.22,4.872-5.462
			c0.502-0.871,0.933-1.779,1.282-2.699l0.073-0.192c2.518-6.647,5.393-12.689,9.306-11.867c4.453,0.928,9.268,1.398,14.312,1.398
			c5.044,0,9.86-0.47,14.313-1.398c3.918-0.821,6.786,5.219,9.305,11.864l0.074,0.196c0.348,0.918,0.78,1.827,1.284,2.702
			c2.232,3.86,5.463,6.531,8.751,7.27c0.108-0.055,0.227-0.106,0.358-0.152c0.186-0.237,0.388-0.981,0.356-3.132l-0.004-0.425
			C126.496,76.76,111.047,62.02,92.059,62.02z"/>
		<path class="st4" d="M62.288,67.262c5.894,7.421,12.944,15.333,21.458,17.754c13.715,3.899,37.989-0.965,37.989-20.705
			c0-12.623-10.58-27.879-30.325-16.263C66.935,62.448,52.73,34.77,52.73,47.392c0,3.99,1.607,7.969,3.717,11.59L62.288,67.262z"/>
		<path class="st3" d="M93.342,87.752c-3.624,0-7.072-0.458-10.006-1.292c-8.762-2.491-15.859-10.251-22.223-18.265
			c-0.018-0.022-0.035-0.045-0.051-0.068l-5.841-8.28c-0.025-0.036-0.048-0.072-0.07-0.109c-2.639-4.528-3.921-8.566-3.921-12.345
			c0-1.665,0.194-3.687,1.71-4.545c1.794-1.015,3.879,0.235,7.038,2.13c6.241,3.743,16.685,10.007,30.672,1.78
			c10.618-6.246,17.99-4.615,22.304-2.148c7.103,4.062,10.282,12.823,10.282,19.704c0,6.978-2.917,12.869-8.436,17.038
			C108.845,85.848,100.73,87.752,93.342,87.752z M63.489,66.363c6.045,7.609,12.733,14.955,20.667,17.211
			c8.204,2.334,20.742,1.495,28.835-4.618c4.807-3.63,7.244-8.557,7.244-14.644c0-6.015-2.713-13.634-8.771-17.1
			c-5.199-2.973-11.871-2.237-19.293,2.13c-15.523,9.132-27.372,2.025-33.737-1.793c-1.471-0.882-3.279-1.967-3.986-2.052
			c-0.08,0.198-0.219,0.713-0.219,1.895c0,3.219,1.139,6.745,3.481,10.779L63.489,66.363z"/>
		<path class="st3" d="M91.658,132.565c-5.108,0-8.792-2.297-10.948-6.827c-0.356-0.748-0.038-1.643,0.709-1.999
			c0.75-0.356,1.643-0.038,2,0.709c1.662,3.491,4.28,5.117,8.239,5.117c4.997,0,7.541-3.269,8.189-4.998
			c0.29-0.776,1.154-1.168,1.931-0.878c0.775,0.29,1.169,1.155,0.878,1.931C101.403,128.965,97.427,132.565,91.658,132.565z"/>
		<path class="st3" d="M90.298,151.457c-20.814,0-37.749-16.934-37.749-37.748c0-0.829,0.671-1.5,1.5-1.5c0.829,0,1.5,0.671,1.5,1.5
			c0,19.161,15.588,34.748,34.749,34.748c0.829,0,1.5,0.672,1.5,1.5C91.798,150.785,91.126,151.457,90.298,151.457z"/>
		<path class="st22" d="M95.845,154h-7.503c-2.05,0-3.711-1.662-3.711-3.712v-2.123c0-2.05,1.662-3.711,3.711-3.711h7.503
			c2.05,0,3.711,1.662,3.711,3.711v2.123C99.556,152.338,97.894,154,95.845,154z"/>
		<path class="st3" d="M95.845,155.5h-7.503c-2.873,0-5.211-2.338-5.211-5.212v-2.122c0-2.874,2.338-5.212,5.211-5.212h7.503
			c2.874,0,5.212,2.338,5.212,5.212v2.123C101.056,153.162,98.718,155.5,95.845,155.5z M88.342,145.954
			c-1.219,0-2.211,0.992-2.211,2.212v2.122c0,1.22,0.992,2.212,2.211,2.212h7.503c1.219,0,2.212-0.992,2.212-2.211v-2.123
			c0-1.22-0.992-2.212-2.212-2.212H88.342z"/>
		<path class="st22" d="M44.005,110.122v1.623c0,4.184,3.392,7.575,7.575,7.575h4.124c1.162,0,2.104-0.942,2.104-2.104V95.5
			c0-1.162-0.942-2.104-2.104-2.104H51.58c-4.184,0-7.575,3.392-7.575,7.575v1.595V110.122z"/>
		<path class="st3" d="M55.705,120.819H51.58c-5.004,0-9.075-4.071-9.075-9.075v-10.774c0-5.004,4.071-9.075,9.075-9.075h4.125
			c1.987,0,3.604,1.617,3.604,3.604v21.715C59.309,119.203,57.692,120.819,55.705,120.819z M51.58,94.896
			c-3.35,0-6.075,2.725-6.075,6.075v10.774c0,3.35,2.725,6.075,6.075,6.075h4.125c0.333,0,0.604-0.271,0.604-0.604V95.5
			c0-0.334-0.271-0.604-0.604-0.604H51.58z"/>
		<path class="st22" d="M128.065,119.32h2.675c4.81,0,8.71-3.899,8.71-8.71v-8.505c0-4.81-3.899-8.71-8.71-8.71h-2.675
			c-1.336,0-2.419,1.083-2.419,2.419V116.9C125.646,118.236,126.729,119.32,128.065,119.32z"/>
		<path class="st3" d="M130.74,120.819h-2.675c-2.161,0-3.919-1.758-3.919-3.919V95.815c0-2.161,1.758-3.919,3.919-3.919h2.674
			c5.63,0,10.21,4.58,10.21,10.21v8.504C140.949,116.239,136.369,120.819,130.74,120.819z M128.065,94.896
			c-0.507,0-0.919,0.413-0.919,0.919V116.9c0,0.507,0.412,0.919,0.919,0.919h2.675c3.975,0,7.209-3.234,7.209-7.209v-8.504
			c0-3.976-3.234-7.21-7.21-7.21H128.065z"/>
		<path class="st9" d="M206.193,56.33c3.655,4.643,5.802,10.274,5.802,16.348c0,15.886-14.646,28.764-32.713,28.764
			c-2.994,0-5.89-0.361-8.645-1.023l-19.169,6.31c-1.276,0.42-2.463-0.84-1.968-2.089l5.169-13.025
			c-5.04-5.06-8.101-11.682-8.101-18.937c0-15.886,14.646-28.764,32.713-28.764c7.85,0,15.052,2.433,20.69,6.486L206.193,56.33z"/>
		<path class="st3" d="M150.96,108.312c-0.832,0-1.636-0.339-2.233-0.973c-0.83-0.881-1.067-2.127-0.621-3.252l4.812-12.126
			c-5.069-5.419-7.85-12.23-7.85-19.283c0-16.688,15.348-30.264,34.213-30.264c7.835,0,15.494,2.404,21.566,6.769
			c0.672,0.483,0.825,1.421,0.342,2.093c-0.483,0.674-1.421,0.827-2.094,0.342c-5.565-4-12.603-6.204-19.814-6.204
			c-17.211,0-31.213,12.23-31.213,27.264c0,6.567,2.722,12.916,7.663,17.878c0.422,0.423,0.552,1.057,0.332,1.612l-5.168,13.025
			l0.573,1.535L151,105.305l19.168-6.31c0.264-0.086,0.548-0.099,0.819-0.034c2.708,0.651,5.499,0.981,8.294,0.981
			c17.211,0,31.214-12.23,31.214-27.264c0-5.533-1.896-10.866-5.481-15.421c-0.513-0.651-0.4-1.594,0.251-2.106
			c0.649-0.512,1.594-0.4,2.106,0.251c4.006,5.089,6.124,11.063,6.124,17.276c0,16.688-15.349,30.264-34.214,30.264
			c-2.887,0-5.771-0.325-8.576-0.966l-18.768,6.178C151.614,108.261,151.285,108.312,150.96,108.312z"/>
		<circle class="st4" cx="160.5" cy="72.78" r="5.25"/>
		<path class="st3" d="M160.5,79.53c-3.722,0-6.75-3.028-6.75-6.75c0-3.722,3.028-6.75,6.75-6.75c3.722,0,6.75,3.028,6.75,6.75
			C167.25,76.502,164.222,79.53,160.5,79.53z M160.5,69.03c-2.067,0-3.75,1.682-3.75,3.75c0,2.068,1.683,3.75,3.75,3.75
			c2.067,0,3.75-1.682,3.75-3.75C164.25,70.712,162.567,69.03,160.5,69.03z"/>
		<circle class="st4" cx="178.79" cy="72.78" r="5.25"/>
		<path class="st3" d="M178.79,79.53c-3.722,0-6.75-3.028-6.75-6.75c0-3.722,3.028-6.75,6.75-6.75c3.722,0,6.75,3.028,6.75,6.75
			C185.54,76.502,182.512,79.53,178.79,79.53z M178.79,69.03c-2.067,0-3.75,1.682-3.75,3.75c0,2.068,1.683,3.75,3.75,3.75
			c2.067,0,3.75-1.682,3.75-3.75C182.54,70.712,180.857,69.03,178.79,69.03z"/>
		<circle class="st4" cx="197.081" cy="72.78" r="5.25"/>
		<path class="st3" d="M197.081,79.53c-3.722,0-6.75-3.028-6.75-6.75c0-3.722,3.028-6.75,6.75-6.75c3.722,0,6.75,3.028,6.75,6.75
			C203.831,76.502,200.803,79.53,197.081,79.53z M197.081,69.03c-2.067,0-3.75,1.682-3.75,3.75c0,2.068,1.683,3.75,3.75,3.75
			c2.067,0,3.75-1.682,3.75-3.75C200.831,70.712,199.148,69.03,197.081,69.03z"/>
		<path class="st19" d="M239.5,140.001c-18.211-7.544-38.674-7.544-56.885,0c0,25.409,0,50.818,0,76.227
			c18.212-7.543,38.674-7.543,56.885,0C239.5,190.82,239.5,165.411,239.5,140.001z"/>
		<path class="st3" d="M239.5,217.729c-0.194,0-0.39-0.038-0.574-0.114c-17.971-7.443-37.766-7.443-55.736,0
			c-0.462,0.191-0.99,0.14-1.407-0.139c-0.417-0.278-0.667-0.746-0.667-1.247v-76.227c0-0.607,0.365-1.153,0.926-1.386
			c18.713-7.75,39.32-7.75,58.033,0c0.561,0.232,0.926,0.779,0.926,1.386v76.227c0,0.501-0.25,0.969-0.667,1.247
			C240.083,217.643,239.792,217.729,239.5,217.729z M211.058,209.03c9.106,0,18.213,1.662,26.942,4.988v-73.008
			c-17.414-6.941-36.471-6.941-53.885,0v73.008C192.845,210.692,201.951,209.03,211.058,209.03z"/>
		<path class="st19" d="M182.613,140.001c-18.211-7.544-38.674-7.544-56.885,0c0,25.409,0,50.818,0,76.227
			c18.212-7.543,38.674-7.543,56.885,0C182.613,190.82,182.613,165.411,182.613,140.001z"/>
		<path class="st3" d="M182.613,217.729c-0.194,0-0.39-0.038-0.574-0.114c-17.972-7.444-37.768-7.442-55.737,0
			c-0.464,0.19-0.992,0.139-1.408-0.139c-0.417-0.278-0.667-0.746-0.667-1.247v-76.227c0-0.607,0.366-1.153,0.926-1.386
			c18.713-7.749,39.32-7.749,58.034,0c0.561,0.232,0.926,0.779,0.926,1.386v76.227c0,0.501-0.25,0.969-0.667,1.247
			C183.196,217.643,182.905,217.729,182.613,217.729z M127.227,141.011v73.008c17.458-6.651,36.426-6.652,53.886,0v-73.008
			C163.698,134.069,144.641,134.07,127.227,141.011z"/>
		<path class="st3" d="M132.284,203.372c-0.642,0-1.234-0.413-1.434-1.058c-0.244-0.792,0.199-1.632,0.991-1.876
			c14.605-4.506,30.048-4.505,44.657,0c0.791,0.244,1.235,1.084,0.991,1.876c-0.245,0.791-1.079,1.233-1.876,0.991
			c-14.03-4.33-28.861-4.33-42.888,0C132.579,203.351,132.431,203.372,132.284,203.372z"/>
		<path class="st3" d="M189.471,203.273c-0.643,0-1.237-0.417-1.435-1.065c-0.24-0.792,0.207-1.63,1-1.871
			c14.363-4.364,29.559-4.374,43.936-0.028c0.793,0.239,1.242,1.076,1.002,1.869c-0.239,0.794-1.081,1.242-1.869,1.002
			c-13.81-4.172-28.401-4.164-42.197,0.028C189.763,203.252,189.615,203.273,189.471,203.273z"/>
		<path class="st3" d="M176.058,192.781c-0.146,0-0.296-0.021-0.443-0.066c-14.03-4.328-28.861-4.328-42.888,0
			c-0.798,0.241-1.632-0.2-1.876-0.991c-0.244-0.792,0.199-1.632,0.991-1.876c14.605-4.506,30.048-4.505,44.657,0
			c0.791,0.244,1.235,1.084,0.991,1.876C177.291,192.368,176.698,192.781,176.058,192.781z"/>
		<path class="st3" d="M189.471,192.683c-0.643,0-1.237-0.417-1.435-1.064c-0.24-0.793,0.207-1.631,0.999-1.872
			c14.365-4.363,29.558-4.374,43.936-0.028c0.793,0.239,1.242,1.076,1.002,1.869c-0.239,0.794-1.081,1.243-1.869,1.002
			c-13.811-4.172-28.402-4.164-42.196,0.028C189.763,192.662,189.615,192.683,189.471,192.683z"/>
		<path class="st3" d="M176.058,182.191c-0.146,0-0.296-0.021-0.443-0.066c-14.03-4.327-28.861-4.329-42.888,0
			c-0.798,0.242-1.632-0.2-1.876-0.991c-0.244-0.792,0.199-1.632,0.991-1.876c14.605-4.505,30.048-4.505,44.657,0
			c0.791,0.244,1.235,1.084,0.991,1.876C177.291,181.778,176.698,182.191,176.058,182.191z"/>
		<path class="st3" d="M189.471,182.092c-0.643,0-1.237-0.417-1.435-1.064c-0.24-0.792,0.207-1.63,1-1.871
			c14.365-4.363,29.559-4.373,43.936-0.027c0.793,0.239,1.242,1.076,1.002,1.869c-0.239,0.794-1.081,1.241-1.869,1.002
			c-13.809-4.172-28.398-4.164-42.197,0.027C189.763,182.071,189.615,182.092,189.471,182.092z"/>
		<path class="st3" d="M176.058,171.601c-0.146,0-0.296-0.021-0.443-0.066c-14.03-4.328-28.861-4.328-42.888,0
			c-0.798,0.241-1.632-0.201-1.876-0.991c-0.244-0.792,0.199-1.632,0.991-1.876c14.605-4.506,30.048-4.505,44.657,0
			c0.791,0.244,1.235,1.084,0.991,1.876C177.291,171.188,176.698,171.601,176.058,171.601z"/>
		<path class="st3" d="M189.471,171.502c-0.643,0-1.237-0.417-1.435-1.063c-0.24-0.793,0.207-1.631,0.999-1.872
			c14.365-4.364,29.558-4.373,43.936-0.028c0.793,0.239,1.242,1.076,1.002,1.869c-0.239,0.794-1.081,1.244-1.869,1.002
			c-13.811-4.173-28.402-4.164-42.196,0.028C189.763,171.481,189.615,171.502,189.471,171.502z"/>
		<path class="st3" d="M176.058,161.011c-0.146,0-0.296-0.021-0.443-0.066c-14.03-4.328-28.861-4.328-42.888,0
			c-0.798,0.242-1.632-0.2-1.876-0.991c-0.244-0.792,0.199-1.632,0.991-1.876c14.605-4.506,30.048-4.506,44.657,0
			c0.791,0.244,1.235,1.084,0.991,1.876C177.291,160.598,176.698,161.011,176.058,161.011z"/>
		<path class="st3" d="M189.471,160.912c-0.643,0-1.237-0.417-1.435-1.063c-0.24-0.793,0.207-1.631,0.999-1.872
			c14.365-4.363,29.558-4.374,43.936-0.028c0.793,0.239,1.242,1.076,1.002,1.869c-0.239,0.795-1.081,1.242-1.869,1.002
			c-13.811-4.172-28.402-4.163-42.196,0.028C189.763,160.892,189.615,160.912,189.471,160.912z"/>
		<path class="st3" d="M176.058,150.42c-0.146,0-0.296-0.021-0.443-0.066c-14.03-4.328-28.861-4.328-42.888,0
			c-0.798,0.241-1.632-0.2-1.876-0.991c-0.244-0.792,0.199-1.632,0.991-1.876c14.605-4.506,30.048-4.505,44.657,0
			c0.791,0.244,1.235,1.084,0.991,1.876C177.291,150.007,176.698,150.42,176.058,150.42z"/>
		<path class="st3" d="M189.471,150.321c-0.643,0-1.237-0.417-1.435-1.064c-0.24-0.793,0.207-1.631,0.999-1.872
			c14.365-4.363,29.558-4.374,43.936-0.028c0.793,0.239,1.242,1.076,1.002,1.869c-0.239,0.794-1.081,1.242-1.869,1.002
			c-13.811-4.172-28.402-4.164-42.196,0.028C189.763,150.301,189.615,150.321,189.471,150.321z"/>
		<path class="st17" d="M214.97,30.14h-15c5.74,0,10.42,4.67,10.42,10.42v19.51c2.05,3.93,3.11,8.21,3.11,12.61
			c0,4.49-1.11,8.75-3.11,12.59v47.55c5.02-0.05,10.04,0.41,15,1.37V40.56C225.39,34.81,220.71,30.14,214.97,30.14z"/>
	</g>
</g>
</svg>
