<?xml version="1.0" encoding="utf-8"?>
<!-- Generator: Adobe Illustrator 22.0.0, SVG Export Plug-In . SVG Version: 6.00 Build 0)  -->
<svg version="1.1" xmlns="http://www.w3.org/2000/svg" xmlns:xlink="http://www.w3.org/1999/xlink" x="0px" y="0px"
	 viewBox="0 0 256 256" style="enable-background:new 0 0 256 256;" xml:space="preserve">
<style type="text/css">
	.st0{display:none;}
	.st1{display:inline;}
	.st2{fill:none;stroke:#6B1D1D;stroke-width:0.5;stroke-miterlimit:10;}
	.st3{fill:#3A312A;}
	.st4{fill:#87796F;}
	.st5{fill:#D5DE58;}
	.st6{fill:#695B51;}
	.st7{fill:#FCE8CB;}
	.st8{fill:#F16C7A;}
	.st9{fill:#8AC6DD;}
	.st10{fill:#DECAAD;}
	.st11{fill:#D6DF58;}
	.st12{fill-rule:evenodd;clip-rule:evenodd;fill:#FCE8CB;}
	.st13{fill:#F5978A;}
	.st14{fill:#D7E057;}
	.st15{fill-rule:evenodd;clip-rule:evenodd;fill:#87796F;}
	.st16{fill:#6CA8BF;}
	.st17{fill:#B9C239;}
	.st18{fill:#D34E5C;}
	.st19{fill:#FAE6CA;}
	.st20{fill:#F8E4C8;}
	.st21{fill:#8AC5DC;}
	.st22{fill:#EF6D7A;}
	.st23{fill:#EB6E7A;}
	.st24{fill:#89C4DB;}
	.st25{fill-rule:evenodd;clip-rule:evenodd;fill:#F16C7A;}
	.st26{fill:#F7E3C7;}
	.st27{fill:#F6E2C6;}
	.st28{fill:#ED6E7A;}
	.st29{fill:#8AC3DA;}
	.st30{fill:#D5DC57;}
	.st31{fill-rule:evenodd;clip-rule:evenodd;fill:#D7E057;}
	.st32{fill-rule:evenodd;clip-rule:evenodd;fill:#F8E4C8;}
	.st33{fill:#D4DB56;}
	.st34{fill:#F59689;}
	.st35{fill:#DDC9AC;}
	.st36{fill:#D24E5C;}
	.st37{fill:#6A5C52;}
	.st38{fill:#6CA6BE;}
	.st39{fill:#B8C136;}
	.st40{fill-rule:evenodd;clip-rule:evenodd;fill:#FAE6CA;}
</style>
<g id="Layer_2" class="st0">
	<g class="st1">
		<g>
			<line class="st2" x1="0" y1="4.829" x2="256" y2="4.829"/>
			<line class="st2" x1="0" y1="16.56" x2="256" y2="16.56"/>
			<line class="st2" x1="0" y1="28.29" x2="256" y2="28.29"/>
			<line class="st2" x1="0" y1="40.021" x2="256" y2="40.021"/>
			<line class="st2" x1="0" y1="51.751" x2="256" y2="51.751"/>
			<line class="st2" x1="0" y1="63.482" x2="256" y2="63.482"/>
			<line class="st2" x1="0" y1="75.213" x2="256" y2="75.213"/>
			<line class="st2" x1="0" y1="86.943" x2="256" y2="86.943"/>
			<line class="st2" x1="0" y1="98.674" x2="256" y2="98.674"/>
			<line class="st2" x1="0" y1="110.404" x2="256" y2="110.404"/>
			<line class="st2" x1="0" y1="122.135" x2="256" y2="122.135"/>
			<line class="st2" x1="0" y1="133.865" x2="256" y2="133.865"/>
			<line class="st2" x1="0" y1="145.596" x2="256" y2="145.596"/>
			<line class="st2" x1="0" y1="157.326" x2="256" y2="157.326"/>
			<line class="st2" x1="0" y1="169.057" x2="256" y2="169.057"/>
			<line class="st2" x1="0" y1="180.788" x2="256" y2="180.788"/>
			<line class="st2" x1="0" y1="192.518" x2="256" y2="192.518"/>
			<line class="st2" x1="0" y1="204.249" x2="256" y2="204.249"/>
			<line class="st2" x1="0" y1="215.979" x2="256" y2="215.979"/>
			<line class="st2" x1="0" y1="227.71" x2="256" y2="227.71"/>
			<line class="st2" x1="0" y1="239.44" x2="256" y2="239.44"/>
			<line class="st2" x1="0" y1="251.171" x2="256" y2="251.171"/>
		</g>
		<g>
			<line class="st2" x1="251.171" y1="0" x2="251.171" y2="256"/>
			<line class="st2" x1="239.44" y1="0" x2="239.44" y2="256"/>
			<line class="st2" x1="227.71" y1="0" x2="227.71" y2="256"/>
			<line class="st2" x1="215.979" y1="0" x2="215.979" y2="256"/>
			<line class="st2" x1="204.249" y1="0" x2="204.249" y2="256"/>
			<line class="st2" x1="192.518" y1="0" x2="192.518" y2="256"/>
			<line class="st2" x1="180.787" y1="0" x2="180.787" y2="256"/>
			<line class="st2" x1="169.057" y1="0" x2="169.057" y2="256"/>
			<line class="st2" x1="157.326" y1="0" x2="157.326" y2="256"/>
			<line class="st2" x1="145.596" y1="0" x2="145.596" y2="256"/>
			<line class="st2" x1="133.865" y1="0" x2="133.865" y2="256"/>
			<line class="st2" x1="122.135" y1="0" x2="122.135" y2="256"/>
			<line class="st2" x1="110.404" y1="0" x2="110.404" y2="256"/>
			<line class="st2" x1="98.674" y1="0" x2="98.674" y2="256"/>
			<line class="st2" x1="86.943" y1="0" x2="86.943" y2="256"/>
			<line class="st2" x1="75.212" y1="0" x2="75.212" y2="256"/>
			<line class="st2" x1="63.482" y1="0" x2="63.482" y2="256"/>
			<line class="st2" x1="51.751" y1="0" x2="51.751" y2="256"/>
			<line class="st2" x1="40.021" y1="0" x2="40.021" y2="256"/>
			<line class="st2" x1="28.29" y1="0" x2="28.29" y2="256"/>
			<line class="st2" x1="16.56" y1="0" x2="16.56" y2="256"/>
			<line class="st2" x1="4.829" y1="0" x2="4.829" y2="256"/>
		</g>
	</g>
</g>
<g id="Layer_1">
	<g>
		<path class="st4" d="M222.394,180.635H33.605c-9.447,0-17.105-7.658-17.105-17.105V33.241c0-9.447,7.658-17.106,17.105-17.106
			h188.789c9.447,0,17.106,7.658,17.106,17.106V163.53C239.5,172.977,231.842,180.635,222.394,180.635z"/>
		<path class="st3" d="M222.394,182.135H33.605C23.346,182.135,15,173.789,15,163.53V33.241c0-10.259,8.346-18.605,18.605-18.605
			h188.789c10.259,0,18.606,8.346,18.606,18.605V163.53C241,173.789,232.653,182.135,222.394,182.135z M33.605,17.635
			C25,17.635,18,24.636,18,33.241V163.53c0,8.605,7,15.605,15.605,15.605h188.789c8.605,0,15.606-7.001,15.606-15.605V33.241
			c0-8.605-7.001-15.605-15.606-15.605H33.605z"/>
		<path class="st14" d="M29.111,115.944v40.271c0,6.583,5.337,11.92,11.92,11.92h173.938c6.583,0,11.92-5.337,11.92-11.92V40.555
			c0-6.583-5.337-11.92-11.92-11.92H41.031c-6.583,0-11.92,5.337-11.92,11.92v62.167V115.944z"/>
		<path class="st3" d="M214.969,169.635H41.031c-7.4,0-13.42-6.02-13.42-13.42v-40.271c0-0.829,0.671-1.5,1.5-1.5s1.5,0.671,1.5,1.5
			v40.271c0,5.746,4.674,10.42,10.42,10.42h173.938c5.745,0,10.42-4.674,10.42-10.42V40.555c0-5.746-4.675-10.42-10.42-10.42H41.031
			c-5.746,0-10.42,4.674-10.42,10.42v62.167c0,0.829-0.671,1.5-1.5,1.5s-1.5-0.671-1.5-1.5V40.555c0-7.4,6.02-13.42,13.42-13.42
			h173.938c7.399,0,13.42,6.02,13.42,13.42v115.66C228.389,163.615,222.368,169.635,214.969,169.635z"/>
		<rect x="113.687" y="180.635" class="st4" width="28.625" height="35.593"/>
		<path class="st3" d="M142.312,217.729h-28.625c-0.829,0-1.5-0.671-1.5-1.5v-35.593c0-0.829,0.671-1.5,1.5-1.5h28.625
			c0.828,0,1.5,0.671,1.5,1.5v35.593C143.812,217.057,143.141,217.729,142.312,217.729z M115.187,214.729h25.625v-32.593h-25.625
			V214.729z"/>
		<path class="st4" d="M135.451,239.635h36.252c0-12.927-10.479-23.407-23.407-23.407h-40.593
			c-12.927,0-23.407,10.479-23.407,23.407h37.584H135.451z"/>
		<path class="st3" d="M171.703,241.135h-36.252c-0.828,0-1.5-0.671-1.5-1.5c0-0.829,0.672-1.5,1.5-1.5h34.701
			c-0.773-11.382-10.281-20.407-21.856-20.407h-40.592c-11.575,0-21.082,9.024-21.856,20.407h36.034c0.829,0,1.5,0.671,1.5,1.5
			c0,0.829-0.671,1.5-1.5,1.5H84.297c-0.829,0-1.5-0.671-1.5-1.5c0-13.733,11.173-24.907,24.907-24.907h40.592
			c13.734,0,24.907,11.173,24.907,24.907C173.203,240.464,172.531,241.135,171.703,241.135z"/>
		<path class="st14" d="M47.671,203.469c0,0,3.408,12.659,13.222,13.247c0,0-13.1,4.525-13.321,14.202
			c0,0-2.579-13.572-12.925-14.059C34.647,216.859,46.697,215.033,47.671,203.469z"/>
		<path class="st3" d="M47.57,232.417c-0.712,0-1.335-0.506-1.472-1.217c-0.024-0.124-2.495-12.417-11.523-12.842
			c-0.77-0.037-1.387-0.651-1.427-1.421c-0.039-0.771,0.511-1.445,1.274-1.561c0.441-0.069,10.894-1.817,11.755-12.033
			c0.061-0.725,0.634-1.301,1.359-1.367c0.735-0.059,1.393,0.399,1.583,1.101c0.032,0.116,3.259,11.627,11.863,12.141
			c0.714,0.043,1.298,0.584,1.396,1.292c0.098,0.708-0.319,1.388-0.994,1.623c-0.121,0.042-12.118,4.311-12.313,12.819
			c-0.018,0.767-0.61,1.396-1.375,1.459C47.655,232.416,47.612,232.417,47.57,232.417z M39.83,216.688
			c3.878,1.969,6.23,5.746,7.587,8.877c2.026-4.021,5.942-6.787,8.949-8.427c-4.135-1.842-6.783-5.651-8.334-8.723
			C46.239,212.774,42.76,215.283,39.83,216.688z"/>
		<path class="st14" d="M25.972,220.45c0,0,2.411,8.954,9.352,9.369c0,0-9.266,3.201-9.422,10.046c0,0-1.824-9.6-9.142-9.944
			C16.76,229.921,25.284,228.629,25.972,220.45z"/>
		<path class="st3" d="M25.9,241.365c-0.713,0-1.337-0.507-1.472-1.22c-0.016-0.082-1.704-8.441-7.739-8.726
			c-0.77-0.037-1.387-0.651-1.427-1.421c-0.039-0.77,0.511-1.445,1.273-1.56c0.296-0.047,7.364-1.243,7.942-8.114
			c0.061-0.726,0.635-1.303,1.36-1.368c0.726-0.062,1.392,0.399,1.582,1.102l0,0c0.021,0.079,2.228,7.92,7.994,8.265
			c0.714,0.043,1.299,0.584,1.396,1.293c0.098,0.709-0.32,1.388-0.996,1.622c-0.081,0.028-8.282,2.952-8.413,8.662
			c-0.018,0.768-0.611,1.398-1.376,1.461C25.983,241.363,25.942,241.365,25.9,241.365z M21.382,229.837
			c2.107,1.332,3.523,3.394,4.447,5.28c1.376-2.232,3.515-3.872,5.365-4.973c-2.287-1.27-3.884-3.35-4.941-5.224
			C25.079,227.208,23.238,228.796,21.382,229.837z"/>
		<path class="st14" d="M25.972,193.792c0,0,2.411,8.954,9.352,9.37c0,0-9.266,3.201-9.422,10.045c0,0-1.824-9.6-9.142-9.944
			C16.76,203.263,25.284,201.972,25.972,193.792z"/>
		<path class="st3" d="M25.901,214.708c-0.714,0-1.337-0.507-1.473-1.22c-0.016-0.082-1.704-8.442-7.739-8.726
			c-0.77-0.037-1.387-0.651-1.427-1.421c-0.039-0.771,0.511-1.445,1.273-1.561c0.296-0.047,7.364-1.243,7.942-8.113
			c0.061-0.726,0.635-1.303,1.36-1.368c0.726-0.063,1.392,0.4,1.582,1.102l0,0c0.021,0.079,2.228,7.919,7.994,8.264
			c0.714,0.043,1.299,0.584,1.396,1.293c0.098,0.709-0.319,1.388-0.996,1.622c-0.081,0.028-8.282,2.953-8.413,8.662
			c-0.018,0.768-0.611,1.397-1.376,1.461C25.983,214.706,25.942,214.708,25.901,214.708z M21.382,203.18
			c2.106,1.332,3.523,3.395,4.447,5.28c1.376-2.232,3.515-3.872,5.365-4.973c-2.287-1.269-3.884-3.35-4.941-5.223
			C25.079,200.55,23.238,202.139,21.382,203.18z"/>
		<path class="st19" d="M208.573,25.087c-25.794-10.685-54.777-10.685-80.572,0c0,35.989,0,71.979,0,107.968
			c25.795-10.685,54.777-10.685,80.572,0C208.573,97.066,208.573,61.077,208.573,25.087z"/>
		<path class="st3" d="M208.573,134.555c-0.194,0-0.39-0.038-0.574-0.114c-25.607-10.607-53.816-10.607-79.424,0
			c-0.464,0.192-0.991,0.14-1.408-0.139c-0.416-0.278-0.666-0.746-0.666-1.247V25.087c0-0.606,0.365-1.154,0.926-1.386
			c26.35-10.914,55.371-10.914,81.721,0c0.561,0.232,0.926,0.779,0.926,1.386v107.968c0,0.501-0.25,0.969-0.667,1.247
			C209.156,134.47,208.865,134.555,208.573,134.555z M168.287,123.484c13.118,0,26.237,2.451,38.786,7.351V26.095
			c-25.053-10.104-52.52-10.104-77.572,0v104.74C142.05,125.935,155.169,123.484,168.287,123.484z"/>
		<path class="st19" d="M127.999,25.087c-25.794-10.685-54.777-10.685-80.572,0c0,35.989,0,71.979,0,107.968
			c25.795-10.685,54.778-10.685,80.572,0C127.999,97.066,127.999,61.077,127.999,25.087z"/>
		<path class="st3" d="M47.427,134.555c-0.292,0-0.583-0.086-0.833-0.253c-0.417-0.278-0.667-0.746-0.667-1.247V25.087
			c0-0.606,0.365-1.154,0.926-1.386c26.35-10.914,55.371-10.914,81.721,0c0.561,0.232,0.926,0.779,0.926,1.386v107.968
			c0,0.501-0.25,0.969-0.667,1.247c-0.417,0.278-0.945,0.331-1.408,0.139c-25.607-10.607-53.814-10.607-79.424,0
			C47.816,134.518,47.621,134.555,47.427,134.555z M48.927,26.095v104.74c25.099-9.801,52.474-9.801,77.572,0V26.095
			C101.446,15.991,73.98,15.991,48.927,26.095z"/>
		<path class="st3" d="M118.713,114.221c-0.147,0-0.295-0.021-0.442-0.067c-19.997-6.168-41.13-6.168-61.116-0.001
			c-0.792,0.245-1.631-0.199-1.875-0.991c-0.245-0.791,0.199-1.631,0.991-1.875c20.565-6.346,42.31-6.345,62.884-0.001
			c0.792,0.244,1.236,1.084,0.992,1.876C119.948,113.807,119.354,114.221,118.713,114.221z"/>
		<path class="st3" d="M137.712,114.081c-0.643,0-1.237-0.417-1.435-1.064c-0.24-0.792,0.207-1.63,0.999-1.871
			c20.227-6.145,41.623-6.16,61.87-0.041c0.793,0.24,1.242,1.077,1.002,1.87c-0.239,0.794-1.079,1.24-1.869,1.002
			c-19.68-5.947-40.472-5.934-60.13,0.039C138.004,114.06,137.856,114.081,137.712,114.081z"/>
		<path class="st3" d="M118.713,99.221c-0.147,0-0.295-0.021-0.442-0.067c-19.997-6.168-41.13-6.168-61.116-0.001
			c-0.792,0.245-1.631-0.199-1.875-0.991c-0.245-0.791,0.199-1.631,0.991-1.875c20.565-6.346,42.31-6.345,62.884-0.001
			c0.792,0.244,1.236,1.084,0.992,1.876C119.948,98.807,119.354,99.221,118.713,99.221z"/>
		<path class="st3" d="M137.712,99.081c-0.643,0-1.237-0.417-1.435-1.065c-0.24-0.792,0.207-1.63,0.999-1.871
			c20.227-6.146,41.623-6.16,61.87-0.041c0.793,0.24,1.242,1.077,1.002,1.87c-0.239,0.794-1.079,1.239-1.869,1.002
			c-19.68-5.947-40.472-5.934-60.13,0.039C138.004,99.06,137.856,99.081,137.712,99.081z"/>
		<path class="st3" d="M118.713,84.221c-0.147,0-0.295-0.021-0.442-0.067c-19.997-6.168-41.13-6.168-61.116,0
			c-0.792,0.244-1.631-0.199-1.875-0.991c-0.245-0.791,0.199-1.631,0.991-1.875c20.565-6.346,42.31-6.345,62.884-0.001
			c0.792,0.244,1.236,1.084,0.992,1.876C119.948,83.807,119.354,84.221,118.713,84.221z"/>
		<path class="st3" d="M137.712,84.081c-0.643,0-1.237-0.417-1.435-1.065c-0.24-0.792,0.207-1.63,0.999-1.871
			c20.227-6.145,41.623-6.16,61.87-0.041c0.793,0.24,1.242,1.077,1.002,1.87c-0.239,0.794-1.079,1.239-1.869,1.002
			c-19.68-5.947-40.472-5.934-60.13,0.039C138.004,84.06,137.856,84.081,137.712,84.081z"/>
		<path class="st3" d="M118.713,69.221c-0.147,0-0.295-0.021-0.442-0.067c-19.997-6.168-41.13-6.167-61.116,0
			c-0.792,0.244-1.631-0.199-1.875-0.991c-0.245-0.792,0.199-1.631,0.991-1.876c20.565-6.346,42.31-6.345,62.884-0.001
			c0.792,0.244,1.236,1.084,0.992,1.876C119.948,68.807,119.354,69.221,118.713,69.221z"/>
		<path class="st3" d="M137.712,69.081c-0.643,0-1.237-0.417-1.435-1.065c-0.24-0.792,0.207-1.63,0.999-1.871
			c20.227-6.145,41.623-6.16,61.87-0.041c0.793,0.24,1.242,1.077,1.002,1.87c-0.239,0.794-1.079,1.24-1.869,1.002
			c-19.68-5.947-40.472-5.934-60.13,0.039C138.004,69.06,137.856,69.081,137.712,69.081z"/>
		<path class="st3" d="M118.713,54.221c-0.147,0-0.295-0.021-0.442-0.067c-19.997-6.168-41.13-6.167-61.116,0
			c-0.792,0.245-1.631-0.2-1.875-0.991c-0.245-0.792,0.199-1.631,0.991-1.875c20.565-6.346,42.31-6.345,62.884,0
			c0.792,0.244,1.236,1.084,0.992,1.875C119.948,53.807,119.354,54.221,118.713,54.221z"/>
		<path class="st3" d="M137.712,54.081c-0.643,0-1.237-0.417-1.435-1.064c-0.24-0.792,0.207-1.63,0.999-1.871
			c20.227-6.145,41.623-6.16,61.87-0.041c0.793,0.24,1.242,1.077,1.002,1.87c-0.239,0.794-1.079,1.24-1.869,1.002
			c-19.68-5.948-40.472-5.933-60.13,0.039C138.004,54.06,137.856,54.081,137.712,54.081z"/>
		<path class="st3" d="M118.713,39.221c-0.147,0-0.295-0.021-0.442-0.067c-19.997-6.168-41.13-6.167-61.116,0
			c-0.792,0.245-1.631-0.199-1.875-0.991c-0.245-0.792,0.199-1.631,0.991-1.875c20.565-6.346,42.31-6.345,62.884,0
			c0.792,0.244,1.236,1.084,0.992,1.875C119.948,38.807,119.354,39.221,118.713,39.221z"/>
		<path class="st3" d="M137.712,39.081c-0.643,0-1.237-0.417-1.435-1.064c-0.24-0.792,0.207-1.63,0.999-1.871
			c20.227-6.146,41.623-6.16,61.87-0.041c0.793,0.24,1.242,1.077,1.002,1.87c-0.239,0.793-1.079,1.24-1.869,1.002
			c-19.68-5.947-40.472-5.933-60.13,0.039C138.004,39.06,137.856,39.081,137.712,39.081z"/>
		<path class="st8" d="M165.444,183.123v49.69c0,3.612,2.928,6.54,6.54,6.54h60.976c3.612,0,6.54-2.928,6.54-6.54V131.54
			c0-3.612-2.928-6.54-6.54-6.54h-60.976c-3.612,0-6.54,2.928-6.54,6.54v43.806V183.123z"/>
		<path class="st3" d="M232.96,240.853h-60.976c-4.434,0-8.04-3.606-8.04-8.039V131.54c0-4.433,3.607-8.04,8.04-8.04h60.976
			c4.434,0,8.04,3.606,8.04,8.04v101.274C241,237.247,237.394,240.853,232.96,240.853z M171.984,126.5
			c-2.779,0-5.04,2.261-5.04,5.04v101.274c0,2.779,2.261,5.039,5.04,5.039h60.976c2.779,0,5.04-2.261,5.04-5.039V131.54
			c0-2.779-2.261-5.04-5.04-5.04H171.984z"/>
		<path class="st19" d="M212.045,132.577h-35.345c-1.935,0-3.504,1.569-3.504,3.505v84.315c0,1.935,1.569,3.504,3.504,3.504h51.543
			c1.935,0,3.504-1.569,3.504-3.504v-84.315c0-1.936-1.569-3.505-3.504-3.505h-8.598H212.045z"/>
		<path class="st3" d="M228.243,225.401h-51.542c-2.76,0-5.005-2.245-5.005-5.004v-84.315c0-2.76,2.245-5.005,5.005-5.005h51.542
			c2.76,0,5.005,2.245,5.005,5.005v84.315C233.248,223.156,231.003,225.401,228.243,225.401z M176.701,134.077
			c-1.105,0-2.005,0.899-2.005,2.005v84.315c0,1.105,0.899,2.004,2.005,2.004h51.542c1.105,0,2.005-0.899,2.005-2.004v-84.315
			c0-1.105-0.899-2.005-2.005-2.005H176.701z"/>
		<path class="st3" d="M205.965,231.735c0,1.929-1.564,3.493-3.493,3.493c-1.929,0-3.493-1.564-3.493-3.493
			c0-1.929,1.564-3.493,3.493-3.493C204.401,228.242,205.965,229.806,205.965,231.735z"/>
		<path class="st17" d="M225.389,40.555c0-5.746-4.675-10.42-10.42-10.42h-4.896V123.5h15.316V40.555z"/>
	</g>
</g>
</svg>
